<svg width="224" height="144" viewBox="0 0 224 144" fill="none" xmlns="http://www.w3.org/2000/svg">
<path d="M169.689 58.0112C170.697 58.508 171.802 58.7791 172.925 58.8056C172.988 58.7984 173.049 58.7787 173.105 58.7477C173.16 58.7167 173.209 58.6749 173.248 58.6249C173.287 58.5749 173.316 58.5176 173.333 58.4564C173.349 58.3951 173.354 58.3312 173.346 58.2682C173.252 57.5322 172.423 58.1631 170.121 57.0999L170.238 56.2354C170.297 55.9901 170.005 55.5929 169.689 55.7097C169.374 55.8265 169.292 56.2004 169.198 56.878C169.105 57.5556 169.058 57.6958 169.689 58.0112ZM47.7456 61.3291C49.1514 60.9468 50.4716 60.3006 51.6359 59.4248C52.0915 59.0743 51.9396 58.2565 51.8111 57.7892C51.7745 57.668 51.6945 57.5645 51.5863 57.4987C51.4782 57.4328 51.3495 57.4092 51.225 57.4324C51.1005 57.4556 50.9889 57.5238 50.9117 57.6242C50.8345 57.7245 50.797 57.8499 50.8064 57.9761C50.8286 58.2293 50.8756 58.4798 50.9466 58.7238C48.1778 60.7449 47.103 60.2426 47.2666 61.0604C47.3029 61.1537 47.3705 61.2315 47.4579 61.2806C47.5453 61.3296 47.647 61.3467 47.7456 61.3291ZM44.5679 59.1678C46.9044 59.1678 46.11 57.7892 45.4791 57.9995L44.5796 58.1397C43.8085 54.483 44.4277 53.712 43.7618 53.6886C43.6614 53.6821 43.5624 53.7151 43.486 53.7806C43.4096 53.8461 43.3618 53.9389 43.3529 54.0391C43.2704 55.4836 43.3764 56.9328 43.6683 58.35C43.7968 58.9808 44.0305 59.1678 44.5679 59.1678ZM112.409 57.1584C113.075 57.1584 116.58 56.399 117.176 56.3055C118.052 56.1536 119.092 55.8849 119.162 54.9386C119.162 54.3545 118.741 53.6769 118.262 54.0274C118.162 54.0973 118.089 54.1984 118.053 54.3147C118.017 54.431 118.021 54.556 118.063 54.6699C118.239 55.1256 117.865 55.0905 112.222 56.3172C112.118 56.3493 112.031 56.4192 111.976 56.5131C111.921 56.607 111.904 56.718 111.928 56.8239C111.951 56.9299 112.014 57.0232 112.103 57.0851C112.192 57.1471 112.301 57.1732 112.409 57.1584ZM35.5722 28.5592C35.8293 28.8513 36.4601 28.5592 36.2732 28.1153C35.1049 25.2647 32.9553 22.087 31.6001 18.9561C31.3899 18.4537 30.9693 17.6009 30.5604 17.5542C30.5092 17.547 30.457 17.5541 30.4096 17.5747C30.3621 17.5953 30.3213 17.6286 30.2917 17.671C30.0347 18.0215 30.4085 18.9911 30.5837 19.4C31.1212 20.5566 33.7264 26.4447 35.5722 28.5592ZM73.4474 23.6291C73.4693 23.7203 73.5147 23.8042 73.5791 23.8725C73.6434 23.9407 73.7245 23.9909 73.8143 24.0181C73.9041 24.0452 73.9994 24.0484 74.0908 24.0273C74.1822 24.0063 74.2665 23.9616 74.3353 23.8978C75.2998 23.0196 76.1763 22.0492 76.9522 21.0005C80.457 32.2159 80.457 32.6131 81.0061 32.6131C81.0848 32.6109 81.1621 32.5918 81.2328 32.5571C81.3035 32.5224 81.3659 32.4729 81.4157 32.4119C81.4656 32.351 81.5018 32.28 81.5218 32.2039C81.5418 32.1277 81.5452 32.0481 81.5318 31.9706C80.2233 27.8349 78.8448 23.7927 77.6532 19.6687C77.6264 19.5662 77.5701 19.4739 77.4911 19.4034C77.412 19.3328 77.314 19.2872 77.2091 19.2722C77.1043 19.2572 76.9973 19.2736 76.9017 19.3192C76.8061 19.3648 76.7262 19.4376 76.6718 19.5285C76.001 20.5838 75.2175 21.563 74.3353 22.4492C73.6343 19.2481 71.9988 11.9348 71.9988 11.9348C71.9693 11.8171 71.8943 11.7158 71.7903 11.6534C71.6862 11.591 71.5616 11.5724 71.4438 11.6018C71.3261 11.6313 71.2249 11.7063 71.1624 11.8104C71.1 11.9144 71.0814 12.039 71.1109 12.1568C71.5081 13.9676 73.2021 22.823 73.4474 23.6291ZM12.5925 84.4023C8.83065 82.6032 5.47773 80.7573 1.62245 78.7245C0.874762 78.3273 0.360726 79.6942 1.52899 80.0096C4.89495 82.1106 8.48411 83.8307 12.2303 85.1383C12.6976 85.2668 13.0247 84.6593 12.5925 84.4023ZM15.5832 57.4271C15.6635 57.4981 15.7637 57.5429 15.8701 57.5554C15.9766 57.568 16.0844 57.5476 16.179 57.4971C16.9501 57.1233 15.9571 56.2004 16.3309 50.6511C25.8055 62.0884 25.2798 61.7964 25.677 61.7964C25.7593 61.8015 25.8413 61.783 25.9134 61.7431C25.9855 61.7032 26.0446 61.6435 26.0839 61.571C26.1232 61.4986 26.141 61.4164 26.1351 61.3342C26.1293 61.252 26.1 61.1732 26.0509 61.1071C24.5672 59.2379 18.0716 51.1651 16.3426 48.9688C16.2776 48.8864 16.1903 48.8244 16.0911 48.7901C15.9919 48.7558 15.885 48.7506 15.783 48.7752C15.6809 48.7998 15.5881 48.8531 15.5154 48.9288C15.4427 49.0045 15.3933 49.0995 15.3729 49.2025C15.1354 51.3361 15.0963 53.4871 15.2561 55.6279C11.7513 52.4853 8.39839 49.1557 4.85855 46.0949C4.75138 46.0089 4.61733 45.9634 4.47996 45.9665C4.34259 45.9695 4.21069 46.0209 4.10745 46.1116C4.00422 46.2023 3.93625 46.3264 3.91551 46.4623C3.89476 46.5981 3.92257 46.7369 3.99403 46.8542C5.37258 48.9922 13.1532 55.219 15.5832 57.4271ZM107.736 14.0961C107.736 14.2107 107.782 14.3207 107.863 14.4017C107.944 14.4828 108.054 14.5283 108.168 14.5283C108.283 14.5283 108.393 14.4828 108.474 14.4017C108.555 14.3207 108.601 14.2107 108.601 14.0961C108.801 9.80499 108.621 5.50457 108.063 1.24517C108.051 1.13279 108.007 1.0263 107.935 0.938631C107.864 0.850957 107.769 0.785859 107.661 0.751232C107.554 0.716605 107.438 0.713937 107.329 0.743549C107.22 0.77316 107.122 0.83378 107.047 0.918059C106.521 1.59565 107.783 3.73358 107.736 14.0961ZM139.349 34.3889C148.24 19.3883 147.761 20.136 147.691 19.8673C147.492 19.1897 146.931 19.5168 142.433 20.872C143.602 16.7247 145.062 12.297 146.032 8.10289C146.052 7.96727 146.021 7.82903 145.944 7.71534C145.867 7.60164 145.751 7.52073 145.618 7.48851C145.484 7.4563 145.344 7.4751 145.224 7.54123C145.104 7.60736 145.013 7.71603 144.969 7.84587C143.648 12.5189 142.34 17.0869 141.078 21.573C141.058 21.6657 141.061 21.7621 141.088 21.8531C141.115 21.9441 141.165 22.0268 141.233 22.0933C141.301 22.1599 141.384 22.2082 141.476 22.2336C141.567 22.2591 141.664 22.2609 141.756 22.2389C141.756 22.2389 144.852 21.2809 146.102 20.872L138.637 33.9917C138.592 34.0854 138.586 34.1924 138.617 34.291C138.649 34.3896 138.717 34.4725 138.807 34.5229C138.898 34.5734 139.004 34.5876 139.105 34.5627C139.205 34.5378 139.293 34.4757 139.349 34.3889ZM222.88 68.6541C222.273 68.362 211.034 75.3482 210.917 75.43C210.508 75.7221 210.917 76.4464 211.338 76.2244C212.015 75.9207 222.752 69.9509 223.114 69.3083C223.142 69.25 223.157 69.1868 223.161 69.1224C223.164 69.0579 223.154 68.9935 223.133 68.9327C223.111 68.872 223.078 68.8161 223.034 68.7682C222.991 68.7204 222.939 68.6816 222.88 68.6541ZM193.136 55.3008C193.136 55.3008 204.398 46.7141 206.501 45.0785C206.957 44.7163 206.501 43.9102 205.964 43.9686C203.844 44.0192 201.733 44.2577 199.655 44.6813C202.671 41.4642 205.341 37.9402 207.623 34.1669C208.008 33.536 207.074 32.8818 206.7 33.5243C204.126 37.7229 201.063 41.6014 197.576 45.0785C197.202 45.4406 197.435 46.3285 198.043 46.2468C200.105 45.7217 202.207 45.37 204.328 45.1953C204.328 45.1953 195.403 52.3801 192.646 54.6583C192.599 54.7328 192.577 54.8196 192.581 54.9073C192.585 54.9949 192.616 55.0792 192.669 55.149C192.722 55.2187 192.795 55.2706 192.879 55.2977C192.962 55.3248 193.052 55.3259 193.136 55.3008ZM177.026 21.4795C184.199 9.11928 185.449 7.32015 184.246 7.01641C183.732 6.8879 183.755 6.93463 176.22 21.0356C176.184 21.1395 176.187 21.2526 176.226 21.355C176.266 21.4573 176.34 21.5425 176.437 21.5954C176.533 21.6484 176.645 21.6658 176.752 21.6446C176.86 21.6234 176.957 21.565 177.026 21.4795Z" fill="white"/>
<path d="M210.135 97.7321C205.369 82.6965 193.324 71.1307 177.062 66.0137C177.051 65.716 177.019 65.4193 176.968 65.1258C181.407 63.1865 182.4 56.5157 181.419 50.7094C182.272 49.3192 184.538 42.1694 182.868 43.1508L179.819 44.9499C179.386 43.7816 178.884 42.6951 178.347 41.6203C178.463 39.7511 176.758 36.4099 173.755 34.2252C170.998 32.2158 166.255 30.4167 159.339 33.2906C153.942 35.5337 147.855 40.4871 146.932 47.6836C145.764 57.0298 148.86 61.5626 143.077 70.2428C136.687 67.3495 129.876 65.4959 122.901 64.752C122.901 64.2284 122.866 63.7054 122.796 63.1865C125.775 61.6794 126.406 56.7727 126.534 55.1722C130.039 52.1347 130.448 46.0831 127.702 45.9429C128.408 41.6075 128.678 37.2124 128.508 32.8233C128.357 30.1012 127.188 29.4937 126.651 29.3769C126.272 29.3052 125.88 29.3417 125.52 29.4822C125.161 29.6226 124.848 29.8615 124.618 30.1713C123.742 28.3839 122.06 28.6059 121.113 29.961C121.02 29.4801 120.779 29.0404 120.422 28.7043C120.066 28.3682 119.613 28.1527 119.127 28.0881C118.642 28.0235 118.148 28.1132 117.716 28.3445C117.284 28.5758 116.936 28.9369 116.721 29.3769C116.494 28.8946 116.129 28.4905 115.673 28.216C115.216 27.9415 114.688 27.809 114.156 27.8353C113.624 27.8616 113.111 28.0455 112.684 28.3637C112.256 28.6819 111.933 29.12 111.755 29.6222C110.587 27.0871 107.608 27.6712 106.942 30.2414C106.066 28.2671 103.671 28.2787 102.842 30.5685C100.657 28.9563 98.9396 30.5685 98.5891 33.2205C98.3769 37.7299 98.5645 42.2493 99.1499 46.7257C95.1895 45.8378 98.2737 55.1138 100.634 55.3358C101.042 58.8406 102.491 62.6958 105.307 63.6304C105.307 64.0978 105.237 64.5767 105.237 65.0441C97.6829 66.2503 90.4135 68.8279 83.7872 72.6495C80.1422 70.0793 72.0344 66.5862 64.2421 67.2287C62.8302 64.2457 61.7678 61.1095 61.0761 57.8826C60.5621 55.0671 61.8822 53.9572 61.8705 51.5272C63.3831 48.479 63.76 44.9915 62.9336 41.6904C59.2536 30.0078 37.0215 34.4472 37.6524 47.2747C37.7342 48.7351 37.8627 50.1954 37.9912 51.3286C35.2458 52.1581 35.6546 52.3567 36.414 55.6979C36.8229 57.5204 37.2902 59.0275 39.2062 58.6303C40.0824 62.4271 42.2904 68.4904 47.5009 68.4904C47.8163 68.4904 47.5009 68.2918 47.7929 70.2545C34.72 75.944 18.3059 86.6102 14.0534 105.302C13.0253 109.812 12.4062 116.214 15.3502 121.051C18.5863 126.436 24.3108 126.775 28.4231 126.506C27.4605 131.795 27.1506 137.182 27.5002 142.547C27.5023 142.622 27.525 142.695 27.5657 142.758C27.6065 142.82 27.6638 142.871 27.7313 142.904C27.7988 142.936 27.874 142.949 27.9486 142.942C28.0233 142.935 28.0944 142.907 28.1544 142.862C28.7852 142.488 27.5469 142.091 29.5213 126.425C40.5263 125.408 51.0173 120.677 60.7139 115.7C62.3145 116.868 63.9033 118.037 65.5506 119.088C66.9049 121.826 68.9802 124.144 71.5534 125.791C74.1265 127.437 77.1 128.351 80.1539 128.434C79.8618 133.352 79.8618 138.283 80.1539 143.201C80.1582 143.26 80.1745 143.318 80.2018 143.371C80.229 143.424 80.2666 143.471 80.3124 143.51C80.3582 143.548 80.4112 143.576 80.4683 143.594C80.5253 143.611 80.5853 143.616 80.6446 143.61C81.6493 143.516 80.3525 143.014 81.1469 128.422C90.8669 128.422 98.8461 122.079 106.849 117.23C116.265 121.541 139.35 129.567 151.558 127.254C152.119 132.231 152.037 136.951 152.516 141.764C152.532 141.85 152.577 141.929 152.644 141.985C152.712 142.041 152.797 142.072 152.884 142.072C152.972 142.072 153.057 142.041 153.124 141.985C153.191 141.929 153.237 141.85 153.252 141.764C153.559 136.846 153.359 131.909 152.656 127.032C161.126 125.023 166.325 119.053 167.704 109.777C168.264 109.403 168.872 108.983 169.503 108.504C176.734 111.389 191.7 118.41 199.013 118.667C198.674 124.1 198.195 129.836 198.114 135.467C198.13 135.562 198.179 135.649 198.253 135.711C198.327 135.773 198.42 135.807 198.517 135.807C198.613 135.807 198.707 135.773 198.78 135.711C198.854 135.649 198.903 135.562 198.92 135.467C199.083 133.913 200.146 120.653 200.088 118.632C211.794 118.364 213.64 108.784 210.135 97.7321ZM126.768 47.8005C127.083 47.3799 127.258 46.8892 127.714 47.0294C129.35 47.5084 128.041 51.5739 126.674 53.3848C126.791 51.5272 126.826 49.6463 126.768 47.8005ZM98.8812 47.8005C99.255 47.8005 99.2083 47.964 100.049 48.1276L100.517 53.8988C98.7877 52.2983 97.5377 47.8238 98.8812 47.8238V47.8005ZM180.052 46.6322C180.102 46.468 180.215 46.3302 180.366 46.2491C180.517 46.168 180.694 46.1504 180.858 46.1999C181.023 46.2495 181.16 46.3623 181.241 46.5135C181.323 46.6646 181.34 46.8418 181.291 47.006C180.882 48.4547 180.566 49.5061 180.298 50.5108C180.229 50.6358 180.131 50.7431 180.014 50.8242C179.896 50.9053 179.761 50.958 179.62 50.9781C178.592 51.0132 179.69 47.6836 180.052 46.6088V46.6322ZM160.39 51.3053C161.056 50.8029 161.862 51.4454 161.991 51.4571C163.089 52.1581 164.327 51.1417 164.012 50.8496L163.778 50.6627C162.914 49.9851 161.138 48.5832 161.512 47.6252C161.792 46.9009 162.937 47.006 163.685 46.971C163.711 46.9702 163.737 46.9633 163.761 46.951C163.784 46.9387 163.805 46.9212 163.821 46.8998C163.836 46.8784 163.847 46.8537 163.852 46.8276C163.857 46.8015 163.856 46.7746 163.848 46.749C163.732 46.3752 163.591 46.0013 163.451 45.5807C167.866 43.391 172.707 42.1948 177.634 42.076C178.136 43.2442 178.569 44.3541 178.954 45.4522C177.494 46.2817 175.835 47.193 175.449 48.8519C175.102 48.8088 174.75 48.8441 174.418 48.9553C174.087 49.0665 173.784 49.2508 173.533 49.4944C171.699 47.2864 164.105 47.4733 162.575 47.5317C160.601 47.6135 165.811 51.5973 167.248 52.7188C172.073 56.469 175.227 53.8871 174.024 50.4641C174.193 50.2573 174.414 50.1002 174.665 50.0096C174.916 49.9191 175.187 49.8985 175.449 49.9501C175.493 50.172 175.564 50.3878 175.66 50.5926C175.602 50.5638 175.538 50.5488 175.473 50.5488C175.408 50.5488 175.344 50.5638 175.286 50.5926C174.807 50.8964 175.286 51.3052 176.384 53.2563C176.248 53.394 176.104 53.5228 175.952 53.6418C175.508 53.9689 175.893 55.3942 177.377 53.6418C177.599 53.3731 177.178 52.5903 176.711 51.9011C177.275 52.2854 177.951 52.4711 178.632 52.4288C179.313 52.3865 179.961 52.1186 180.473 51.6674C180.984 54.8039 180.694 58.0186 179.632 61.0135C178.463 63.8758 175.531 64.0393 176.127 65.1258C176.281 68.9776 175.967 72.8337 175.192 76.6099C172.19 75.9556 166.278 68.6306 163.919 65.231C164.163 62.3903 163.796 59.5301 162.844 56.8428C162.061 55.4876 160.507 54.8685 160.098 53.338C159.939 52.9967 159.881 52.6166 159.933 52.2434C159.985 51.8702 160.144 51.52 160.39 51.2351V51.3053ZM178.101 49.3542C177.973 49.7398 177.891 50.2772 177.47 50.2772C177.05 50.2772 176.84 49.7865 176.886 49.3659C176.933 48.9453 177.05 47.9757 177.494 47.7187C177.579 47.6764 177.673 47.6545 177.768 47.6545C177.864 47.6545 177.957 47.6764 178.043 47.7187C178.592 47.8706 178.3 48.6883 178.101 49.2841V49.3542ZM171.804 52.0413C171.676 52.3567 171.547 52.9291 171.173 53.1044C171.108 53.1364 171.036 53.153 170.963 53.153C170.89 53.153 170.818 53.1364 170.753 53.1044C170.052 52.8474 170.823 50.2421 171.454 49.7398C171.509 49.6837 171.577 49.6424 171.652 49.6198C171.728 49.5971 171.807 49.5938 171.884 49.6101C171.961 49.6264 172.033 49.6618 172.092 49.713C172.152 49.7643 172.197 49.8297 172.225 49.9033C172.47 50.4407 171.874 51.7959 171.804 51.9712V52.0413ZM169.246 50.908C169.094 51.2118 169.024 51.4922 168.627 51.4922C168.533 51.4986 168.44 51.4821 168.354 51.444C168.268 51.4059 168.194 51.3473 168.136 51.2735C168.078 51.1997 168.04 51.1129 168.023 51.0206C168.007 50.9284 168.014 50.8336 168.042 50.7445C168.171 50.359 168.311 49.4828 168.779 49.2491C168.853 49.2149 168.933 49.1962 169.014 49.1943C169.096 49.1924 169.177 49.2072 169.252 49.2379C169.328 49.2685 169.397 49.3144 169.454 49.3726C169.511 49.4308 169.555 49.5001 169.585 49.5762C169.748 49.9617 169.479 50.4875 169.246 50.908ZM163.404 65.8852C166.722 71.6097 175.461 79.9044 176.139 77.1239C176.903 73.8233 177.256 70.4408 177.19 67.0535C193.195 72.7079 204.06 83.0704 208.792 97.0545C205.367 95.4199 201.604 94.6192 197.81 94.718C197.646 90.8744 192.377 83.4442 190.356 81.2128C189.947 80.7572 189.188 81.3414 189.632 81.797C192.662 85.2284 194.981 89.2271 196.455 93.5614C190.73 89.2505 179.199 83.2339 163.393 88.1874C159.292 81.1878 153.304 75.4834 146.114 71.7265C151.288 68.3428 157.239 66.3326 163.404 65.8852ZM102.479 39.5291C109.505 37.6116 116.887 37.3993 124.011 38.91C123.891 40.8898 123.953 42.8764 124.197 44.8447H123.987C123.018 40.382 116.802 39.0034 114.711 43.6765C113.643 43.3142 112.485 43.3142 111.417 43.6765C109.396 39.4707 103.543 40.8259 102.468 44.9849H102.246C102.491 43.1774 102.57 41.351 102.479 39.5291ZM118.368 49.144C118.578 48.5481 120.471 44.1321 121.697 44.0036C121.799 44.0023 121.9 44.0254 121.992 44.0709C122.083 44.1163 122.162 44.183 122.223 44.2652C122.284 44.3474 122.324 44.4429 122.34 44.5436C122.356 44.6444 122.348 44.7477 122.317 44.8447C121.274 46.3304 120.344 47.8925 119.536 49.5178C119.244 50.2421 118.099 49.9617 118.368 49.144ZM116.674 47.5084C116.534 47.8589 115.903 48.0692 115.681 47.6603C115.459 47.2514 115.996 45.6976 117.515 43.4195C117.901 42.847 118.263 42.5666 118.578 42.6134C118.681 42.6427 118.775 42.6967 118.852 42.7706C118.929 42.8446 118.986 42.9363 119.02 43.0377C119.053 43.1391 119.061 43.2471 119.043 43.3523C119.025 43.4576 118.982 43.5568 118.917 43.6414C118.028 44.843 117.275 46.14 116.674 47.5084ZM106.51 49.4477C107.012 48.3495 107.573 47.2397 108.11 46.1532C108.168 46.0484 108.252 45.961 108.355 45.9001C108.458 45.8392 108.575 45.807 108.695 45.807C108.814 45.807 108.931 45.8392 109.034 45.9001C109.137 45.961 109.221 46.0484 109.279 46.1532C109.352 46.2641 109.391 46.3941 109.391 46.527C109.391 46.66 109.352 46.79 109.279 46.9009C108.765 47.9173 108.239 48.9804 107.678 50.0085C107.234 50.5926 106.159 50.1487 106.51 49.4477ZM105.096 47.9757L105.026 48.0575C104.664 48.5832 103.753 48.2444 103.998 47.5785C104.673 45.7835 105.534 44.0645 106.568 42.4498C107.071 41.8423 108.087 42.368 107.737 43.0807C106.907 44.7396 105.891 46.2934 105.096 47.9757ZM100.926 48.0808C101.673 47.7654 101.884 46.9126 102.094 46.1766L102.339 46.1065C102.278 46.917 102.378 47.7316 102.632 48.5035C102.887 49.2753 103.291 49.9893 103.823 50.6043C104.453 51.2231 105.243 51.6547 106.104 51.8509C106.965 52.0471 107.863 52.0002 108.699 51.7155C109.535 51.4308 110.276 50.9194 110.838 50.2384C111.4 49.5574 111.763 48.7336 111.884 47.8589C111.763 48.9839 111.712 50.1155 111.732 51.2468C111.732 51.9478 111.569 52.824 112.433 52.8824H113.601C114.209 52.8824 114.372 51.831 113.671 51.8193H112.807C112.739 49.7378 112.852 47.6543 113.146 45.5924C113.227 45.02 112.398 44.9382 112.281 45.4756C111.767 47.9874 112.281 46.5504 111.826 44.6929C112.641 44.4004 113.533 44.4004 114.349 44.6929C114.092 45.6295 114.041 46.6108 114.2 47.569C114.36 48.5271 114.725 49.4392 115.272 50.2421C115.688 50.7814 116.216 51.225 116.818 51.5427C117.421 51.8605 118.085 52.045 118.765 52.0838C119.445 52.1225 120.126 52.0147 120.761 51.7675C121.396 51.5203 121.97 51.1395 122.445 50.651C123.593 49.3703 124.204 47.6969 124.151 45.978H124.373C124.513 46.9943 124.723 48.3963 125.798 48.3145C125.681 52.31 126.032 59.156 122.866 61.6561C122.457 61.9832 121.989 62.357 121.931 62.7309C121.785 63.9688 121.785 65.2197 121.931 66.4577C122.27 69.6937 116.604 76.0958 113.671 78.8296C108.017 71.1424 106.393 70.383 106.405 63.6421C106.405 62.9645 106.323 62.8594 105.856 62.6257C101.124 60.3359 101.556 53.7352 100.926 48.0808ZM105.295 66.0721C105.423 69.6587 108.239 74.507 113.204 79.7291C114.209 81.0376 123.088 70.1377 122.912 67.7778V65.8034C146.827 68.6189 163.965 82.3811 166.699 100.933C156.769 98.9822 144.222 101.272 142.095 101.681C141.183 95.8707 139.465 90.2163 136.99 84.8812C136.948 84.7774 136.867 84.6945 136.764 84.6506C136.661 84.6068 136.545 84.6057 136.441 84.6475C136.337 84.6894 136.254 84.7707 136.21 84.8737C136.167 84.9767 136.165 85.0928 136.207 85.1966C138.355 90.4623 139.922 95.9467 140.88 101.552C134.735 95.0802 125.389 92.2062 112.363 92.7904C104.522 93.1538 96.7341 94.2609 89.1028 96.0965C89.7132 92.5339 91.1673 89.1691 93.3436 86.2831C93.3913 86.1961 93.4057 86.0947 93.3842 85.9979C93.3627 85.901 93.3067 85.8153 93.2266 85.7566C93.1465 85.698 93.0479 85.6705 92.949 85.6792C92.8502 85.688 92.7579 85.7324 92.6894 85.8041C90.2346 88.8373 88.6227 92.4639 88.0163 96.3185C79.5461 98.3503 71.3205 101.292 63.4827 105.092C64.5575 82.2059 85.7148 69.9391 105.295 66.0721ZM54.6273 44.4358C54.6153 45.5451 54.6817 46.6538 54.8259 47.7537C50.6201 47.8589 43.9376 49.4944 38.9608 51.0365C38.8323 50.0085 38.5403 48.1392 38.5286 47.0294C43.5362 44.6427 49.1234 43.7426 54.6273 44.4358ZM50.9122 50.7094C48.5757 54.6815 49.078 55.3825 48.2953 55.3825C48.2075 55.3878 48.1196 55.372 48.0392 55.3363C47.9588 55.3006 47.8881 55.2461 47.8331 55.1774C47.7782 55.1087 47.7405 55.0278 47.7233 54.9415C47.7062 54.8552 47.71 54.766 47.7345 54.6815C48.7976 50.6627 49.814 49.915 50.3281 49.8215C50.4401 49.7987 50.5564 49.81 50.662 49.8539C50.7676 49.8978 50.8577 49.9723 50.9205 50.0679C50.9834 50.1634 51.0162 50.2756 51.0147 50.3899C51.0132 50.5043 50.9775 50.6156 50.9122 50.7094ZM47.3022 51.5856C46.87 52.2983 46.7649 53.2913 46.134 53.1394C45.5031 52.9876 45.9587 51.5623 46.3326 50.8029C46.7064 50.0435 47.0336 50.0318 47.2555 50.0903C47.3806 50.1243 47.4919 50.1967 47.5736 50.2973C47.6553 50.3979 47.7035 50.5216 47.7111 50.651C47.6654 50.9948 47.5236 51.3187 47.3022 51.5856ZM38.6104 53.9222C38.4818 54.2259 38.4702 55.1605 37.8393 55.1605C37.7165 55.1653 37.5957 55.1287 37.4962 55.0567C37.3966 54.9847 37.3241 54.8814 37.2902 54.7633C37.2284 53.946 37.4883 53.1369 38.0145 52.5086C38.1231 52.4116 38.2595 52.3514 38.4043 52.3367C38.5491 52.322 38.6949 52.3536 38.8206 52.4268C39.101 52.6137 39.0426 53.1044 38.6104 53.8871V53.9222ZM39.0426 56.6442C40.1057 52.824 40.7132 52.2632 41.0754 52.1814C41.1498 52.1643 41.2276 52.1683 41.2999 52.1931C41.3722 52.2179 41.436 52.2624 41.4843 52.3216C41.6431 52.5057 41.7229 52.745 41.7063 52.9875L40.1641 56.9713C40.1161 57.1201 40.011 57.2436 39.8719 57.3148C39.7327 57.386 39.571 57.399 39.4223 57.351C39.2736 57.303 39.15 57.1979 39.0788 57.0587C39.0076 56.9196 38.9946 56.7579 39.0426 56.6092V56.6442ZM40.2109 58.4083C42.4539 57.7541 43.1783 57.941 42.9329 54.5297C42.8512 53.56 42.6642 51.352 43.6456 51.387C44.44 51.387 44.4634 55.0787 45.6433 56.2236C46.8233 57.3685 48.3537 56.5624 49.6388 56.2236C53.1436 55.2657 52.3725 53.7703 52.1155 49.1323L55.0595 48.8986C56.3797 55.7447 58.1554 50.616 59.3471 49.8449C60.1064 49.3659 60.7607 50.4174 60.9009 51.2235C61.1696 52.9525 59.7326 54.8451 60.0363 57.3802C60.7248 61.0496 61.9036 64.6096 63.5411 67.9647C60.9826 72.8247 53.6343 77.3108 50.3631 79.0866C48.9846 74.0864 48.8677 67.5208 48.0266 67.5441C44.1479 67.5675 41.6011 64.6352 40.1641 58.3732L40.2109 58.4083ZM47.8981 71.376C48.1084 73.1401 48.9729 80.7222 50.2346 80.0913C53.4123 78.5959 63.0855 72.2406 64.4641 68.1516C66.5085 68.6189 72.8873 67.3806 82.7942 73.3504C75.4835 77.7171 69.6173 84.1359 65.9244 91.809C56.4731 90.6407 44.7788 89.1804 34.9537 94.3675C37.9561 87.2878 39.7553 86.5869 38.9024 86.0261C38.8583 85.9959 38.8085 85.9749 38.756 85.9644C38.7036 85.954 38.6495 85.9542 38.5972 85.9651C38.5448 85.976 38.4952 85.9974 38.4513 86.0279C38.4074 86.0585 38.3701 86.0976 38.3417 86.1429C38.0379 86.5985 33.7737 93.6432 33.6686 95.0802C32.0213 96.0849 28.5049 98.655 27.4534 100.676C23.1585 100.76 18.9733 102.047 15.3736 104.391C18.9251 90.6407 30.1521 79.2268 47.8513 71.341L47.8981 71.376ZM17.6049 122.394C13.1422 117.721 14.1001 109.905 15.0231 105.618C26.4253 98.1293 41.496 101.33 59.8377 115.151C53.6693 117.791 26.7174 131.845 17.6049 122.394ZM28.6334 100.653C37.9094 90.3837 51.3211 91.038 65.4454 92.7787C61.8238 101.132 61.5084 109.952 64.5342 117.149C54.0198 109.275 41.6011 100.618 28.6334 100.618V100.653ZM81.0651 127.523C69.5577 127.523 63.3776 117.417 63.5411 106.202C79.8969 98.8536 94.1847 95.0918 109.84 94.0053C124.139 93.0123 133.766 95.6175 140.074 102.183C109.255 109.088 96.533 127.488 81.0651 127.488V127.523ZM151.722 126.238C140.285 128.82 121.347 122.067 107.889 116.681C129.338 104.017 148.638 99.2392 166.851 102.078C168.288 115.128 162.914 123.703 151.722 126.238ZM167.926 108.55C168.532 101.795 167.104 95.0125 163.825 89.0753C176.372 85.8275 186.968 87.7201 196.174 94.8465C184.083 95.7461 171.898 105.186 167.914 108.55H167.926ZM199.702 117.628C192.553 117.628 177.505 110.618 170.578 107.791C177.984 102.183 186.758 96.2367 197.319 95.8162C201.445 95.5613 205.56 96.4636 209.2 98.4214C212.331 108.983 210.766 117.558 199.691 117.628H199.702Z" fill="white"/>
</svg>
