<svg width="202" height="203" viewBox="0 0 202 203" fill="none" xmlns="http://www.w3.org/2000/svg">
<path d="M73.6852 179.942C51.5732 181.07 15.0355 183.769 14.9577 185.463C14.881 187.128 21.1692 184.404 63.6417 181.876C66.4344 181.709 69.2705 181.561 72.1328 181.428C72.555 181.005 73.06 180.524 73.6852 179.942Z" fill="white"/>
<path d="M122.096 179.076C122.379 179.42 122.671 179.782 122.988 180.185C123.053 180.269 123.108 180.343 123.172 180.426C156.289 180.462 183.394 181.542 184.026 181.245C187.577 179.577 152.743 179.042 122.096 179.077V179.076Z" fill="white"/>
<path d="M166.667 50.1362C166.484 50.12 166.249 50.0958 165.984 50.0675C166.24 53.3753 166.448 57.2011 166.634 60.9785C166.42 74.0035 168.211 131.719 164.216 132.302C153.372 133.885 114.615 135.521 109.784 135.784C88.1331 136.965 47.124 137.072 25.2606 135.196C18.4956 134.616 19.2036 135.012 19.045 130.79C16.2786 57.2223 19.9955 43.6419 20.0146 42.6036C20.0369 41.3845 20.3227 38.907 20.7671 37.7435C20.9418 37.2859 21.2095 36.9223 21.7872 36.8446C23.279 36.6446 21.7539 36.2345 34.0243 35.274C61.4307 33.1258 103.994 30.6432 137.328 32.7278C136.662 29.8705 136.594 26.8819 137.12 23.959C95.6515 21.7602 26.416 23.9024 15.3474 29.9907C13.2517 31.1431 12.7931 32.7551 12.1447 34.5428C6.7574 49.409 8.90264 136.54 12.2508 151.184C13.0062 154.489 13.4284 156.273 15.3373 157.666C17.6452 159.351 24.3021 160.212 25.5636 160.264C26.4473 160.299 29.548 160.963 33.279 161.444C36.2847 161.832 41.2065 162.078 41.3458 162.096C50.6782 163.251 61.768 163.3 79.1804 163.537C79.6965 163.544 79.644 163.483 79.4622 165.896C78.7734 175.027 79.3845 175.176 78.2785 175.737C70.857 182.509 71.6963 181.643 68.2017 186.18C67.1917 187.492 65.909 189.399 65.9939 190.915C66.0413 191.759 66.1282 194.495 66.4767 195.212C67.821 197.976 92.1236 196.972 95.5667 196.739C103.011 196.234 120.427 196.153 126.928 194.674C127.543 194.534 127.911 194.182 128.117 193.602C128.494 192.543 128.822 189.318 128.301 188.323C127.298 186.405 125.899 183.906 122.984 180.185C115.778 170.989 117.323 177.682 116.322 170.314C115.282 162.651 115.35 163.051 115.705 163.058C115.477 163.065 151.516 161.387 165.813 157.944C168.233 157.361 170.531 156.762 171.859 154.24C176.879 144.707 177.509 77.3537 175.65 49.0696C173.355 49.6908 172.921 49.7049 166.665 50.1362H166.667ZM117.042 180.722C117.334 181.54 117.532 181.562 117.85 181.534C118.709 181.462 117.995 179.723 117.211 175.876C120.699 178.922 124.494 184.585 126.797 187.876C127.639 189.08 125.395 188.925 111.378 189.801C111.184 189.813 74.3738 191.52 68.7047 190.759C66.2171 190.424 66.111 190.876 72.1508 183.233C73.886 181.036 77.8775 177.395 78.7007 176.861C79.0845 176.613 78.7189 177.267 78.5118 181.729C78.4835 182.347 79.0219 182.862 79.1845 182.445C80.4712 179.143 80.9893 167.072 80.8237 167.072C80.8237 163.514 80.6964 163.541 81.1297 163.54C96.2171 163.503 82.1367 164.094 107.39 163.389C113.688 163.213 111.518 163.341 113.688 163.171C113.984 163.148 113.888 163.338 114.003 164.528C114.666 171.374 116.381 178.861 117.043 180.721L117.042 180.722ZM170.935 152.934C169.798 155.846 167.899 156.244 159.447 158.002C154.2 159.094 121.693 161.362 121.669 161.364C118.408 161.651 92.8932 162.324 92.8922 162.288C47.4594 162.288 38.4178 160.277 29.0642 159.18C18.4794 157.939 15.4262 158.002 14.196 153.266C13.6112 151.014 12.6507 147.202 12.5972 144.876C12.5689 143.601 12.3205 143.119 12.7043 143.273C17.221 145.085 82.7892 145.59 112.719 144.547C128.247 144.006 124.576 143.75 137.678 143.203C165.099 142.056 169.595 140.357 173.057 140.351C173.143 143.752 171.975 150.267 170.933 152.935L170.935 152.934Z" fill="white"/>
<path d="M119.096 62.7562C118.662 58.2304 117.083 50.0968 111.4 45.8882C111.749 45.1539 111.451 44.2641 110.725 43.8904C108.155 42.5693 99.0908 38.4243 90.4412 40.5412C82.2673 42.541 76.8375 47.4557 74.8821 49.4757C74.2741 50.1049 74.3236 51.1119 74.9831 51.6795C75.075 51.7583 75.172 51.8411 75.271 51.926C72.6824 56.378 72.2016 62.0159 73.7378 69.6343C73.8408 70.1443 73.8731 70.311 74.0681 70.413C74.2903 70.5301 74.5408 70.3978 74.87 70.2544C75.3265 70.0565 75.3073 69.8726 75.1821 69.3707C73.9842 64.5409 74.0135 57.181 76.4244 52.8885C77.1607 53.4824 78.0162 53.346 78.5323 52.8067C80.2079 51.0553 84.9013 46.8467 92.2693 45.5771C99.6706 44.3025 106.201 46.8729 108.665 48.0364C109.416 48.3899 110.294 48.088 110.665 47.3476L110.686 47.3072C114.845 50.7281 117.367 57.5325 117.42 62.3653C117.43 63.1844 117.891 63.1168 118.865 63.0309C119.003 63.0188 119.107 62.8956 119.094 62.7552L119.096 62.7562ZM109.098 47.1244C106.548 45.9195 99.7877 43.2591 92.0996 44.5833C84.4357 45.9033 79.5493 50.2867 77.8041 52.1098C77.6243 52.2976 77.3263 52.3178 77.1243 52.1542C76.6668 51.7866 76.0962 51.3028 75.6427 50.9129C75.4215 50.723 75.4053 50.3867 75.6093 50.1766C80.5826 45.0388 88.4192 40.9563 95.57 40.9563C102.193 40.9563 108.261 43.7581 110.264 44.7873C110.51 44.9135 110.609 45.2165 110.485 45.4619L109.767 46.8931C109.642 47.1396 109.35 47.2406 109.099 47.1224L109.098 47.1244Z" fill="white"/>
<path d="M48.8794 94.8264C48.7289 95.5738 48.1765 95.4627 48.0088 94.9345C47.2503 92.5469 47.5876 91.6682 45.401 90.04C45.1657 89.8653 44.0547 89.02 43.9203 88.724C43.7517 88.3534 44.1597 87.9837 44.4637 88.1251C47.4624 89.526 49.5309 91.5803 48.8794 94.8264Z" fill="white"/>
<path d="M112.37 68.1756C112.123 73.4094 112.156 73.9326 107.342 75.0467C101.57 76.3819 101.935 75.591 100.817 72.757C99.8249 70.2411 100.214 69.5209 99.635 69.3008C99.2219 69.1442 99.2976 68.7483 98.1129 68.6483C95.6758 68.4433 95.0284 69.0927 93.5214 70.4966C93.3467 70.6592 93.4215 71.7773 93.4366 71.9237C93.6426 73.9235 93.4851 74.7972 93.4114 75.9718C93.2912 77.8747 91.1974 78.2595 89.1704 78.4766C85.4495 78.8756 83.8456 79.9068 82.27 75.5102C81.7065 73.9387 80.1107 69.7896 81.5519 68.9483C83.6184 67.7423 89.6754 66.4031 89.9208 66.3637C94.2093 65.686 92.7064 68.8654 93.5315 68.1888C96.7706 65.5345 98.7199 67.2717 99.1088 67.0646C99.3098 66.9576 98.6219 65.1426 100.512 64.4255C101.625 64.0033 102.29 63.8589 106.991 63.1721C112.285 62.3984 112.14 63.2509 112.37 68.1756ZM110.667 68.1069C110.497 63.9326 111.029 64.4376 107.779 64.7447C107.754 64.7467 102.092 65.5022 101.324 65.8092C100.792 66.0213 100.92 66.3718 101.199 67.4818C102.013 70.7087 102.718 74.17 103.919 73.9488C108.869 73.0378 108.49 72.9903 109.526 72.662C110.426 72.3762 110.344 71.6298 110.667 68.1069ZM91.6964 72.855C91.661 71.4864 91.8691 71.9419 91.3378 68.2413C91.254 67.6555 90.7732 67.4868 83.0639 69.8512C82.47 70.033 82.2286 70.0966 82.4963 71.0067C84.3183 77.1969 84.6567 77.5656 86.9746 77.0869C92.0327 76.0405 91.8145 77.4343 91.6964 72.855Z" fill="white"/>
<path d="M103.353 91.1725C102.379 93.0542 100.244 93.4673 99.4973 93.0037C98.9681 92.6744 99.4044 92.3381 100.005 92.2361C102.637 91.7896 103.303 88.5869 103.091 85.9256C102.384 86.5174 100.498 88.8899 97.1046 88.3132C96.5814 88.2243 96.0421 87.3133 97.6187 87.3588C99.3913 87.4103 101.293 86.4609 102.137 84.8378C102.6 83.948 102.621 83.446 103.307 83.347C105.038 83.0966 104.652 88.6637 103.353 91.1725Z" fill="white"/>
<path d="M96.5827 71.3076C97.3715 71.4601 96.4565 72.7721 96.3474 76.602C96.3231 77.4676 96.4514 78.3342 96.711 79.1563C97.7159 82.3408 101.483 78.7877 102.639 78.9765C104.804 79.33 96.7443 85.4304 95.1556 79.4906C94.59 77.3767 95.6384 71.1258 96.5837 71.3086L96.5827 71.3076Z" fill="white"/>
<path d="M105.214 58.534C105.583 59.2329 104.688 59.5965 104.147 59.448C102.74 59.0602 101.448 58.7531 100.175 58.9471C99.6228 59.0309 99.0026 58.4582 99.446 57.8866C100.307 56.7766 104.558 57.2917 105.214 58.534Z" fill="white"/>
<path d="M87.4215 59.4875C88.4355 59.4309 88.5648 60.1632 87.9608 60.6267C86.9306 61.4176 86.2822 61.2964 84.8056 62.9144C84.4339 63.3224 84.1299 63.6648 83.6461 63.376C82.3109 62.5781 85.1702 59.6127 87.4215 59.4875Z" fill="white"/>
<path d="M106.074 69.5158C106.063 68.2674 104.791 67.8129 104.127 68.7966C103.697 69.4269 104.066 70.7661 105.032 70.7661C105.631 70.7661 106.157 70.2026 106.074 69.5158Z" fill="white"/>
<path d="M87.7435 71.6824C87.5344 72.1672 87.7031 73.058 88.0657 73.3833C88.4747 73.7509 89.1666 73.7317 89.4433 73.2025C90.3564 71.4602 88.3141 70.3472 87.7435 71.6824Z" fill="white"/>
<path d="M156.959 123.304L156.207 124.287C160.584 127.968 162.321 130.29 163.058 129.883C163.945 129.394 160.262 126.058 156.959 123.304Z" fill="white"/>
<path d="M143.665 114.056C129.597 106.455 116.262 105.025 115.886 101.603C115.883 101.577 115.507 99.6645 115.434 98.3798C115.268 95.4184 115.623 95.476 116.286 89.7978C116.307 89.618 116.936 84.2822 117.052 84.1438C117.059 84.1357 118.777 83.7529 119.139 83.659C119.837 83.4782 120.509 83.1995 121.249 83.1863C121.439 83.1823 121.633 83.0722 121.812 82.9864C125.908 81.035 125.428 79.4493 125.263 74.3367C125.263 74.3125 124.803 69.8826 124.699 69.4271C124.3 67.6899 123.968 66.0194 122.928 64.7377C121.566 63.056 120.681 62.7217 119.797 62.5328C119.06 62.3753 116.917 62.0642 116.19 62.2611C114.866 62.6197 116.344 58.7979 112.288 53.4014C107.96 47.6434 101.929 47.4121 97.7482 46.8778C97.4957 46.8455 97.231 46.9374 96.9705 46.9485C96.5089 46.9698 96.2645 46.6587 96.213 46.389C95.3545 41.8501 95.7958 41.8046 95.6403 39.8745C95.5757 39.0716 94.7858 39.1564 94.201 39.7109C92.3002 41.5137 92.5467 41.3935 91.4508 43.1812C90.864 44.1387 90.8862 43.7953 90.9509 39.1059C90.964 38.1615 90.2186 37.9686 89.7288 38.3827C89.1277 38.8908 88.4834 39.3513 87.9128 39.8907C86.7078 41.0279 85.1524 42.9085 84.902 44.9376C84.7555 46.1274 84.4606 47.7596 85.0474 49.4836C85.3514 50.3765 85.1696 49.6341 82.5537 51.5592C80.8953 52.7803 78.9672 55.1841 78.7056 55.5618C73.1001 63.6438 77.429 68.1939 76.3392 68.5676C74.5454 69.1837 73.809 69.4473 72.8113 69.9563C69.7015 71.541 69.4469 75.6335 70.1994 79.0958C70.7822 81.7774 71.5791 85.4982 72.7325 87.7455C75.0525 92.2662 81.9659 88.7767 82.586 90.0291C84.3131 93.5156 85.5807 95.5154 88.6905 97.8546C89.1389 98.1919 89.5318 98.6121 90.0801 98.811C90.2327 98.8666 90.2378 98.9928 90.1802 99.1605C88.7339 103.382 89.5571 103.103 88.4976 103.286C78.847 104.964 59.5803 111.062 52.9375 115.217C48.7733 117.823 48.846 117.883 48.8803 117.577C49.0914 115.731 50.4408 107.981 51.5487 104.669C51.5972 104.524 53.0021 100.398 53.4344 99.9968C58.3905 95.3962 57.9794 96.5072 60.9943 88.7706C62.4375 85.0669 62.8315 84.5791 62.7517 83.6994C62.6406 82.4733 61.272 82.7086 60.4337 83.6085C58.5026 85.681 58.1956 87.0365 57.3492 88.3878C57.1441 88.7151 56.9189 88.6929 56.2048 88.7969C55.7857 88.8585 56.0049 88.4525 55.8998 87.7859C55.0524 82.3975 57.4734 80.5684 58.9339 73.4934C59.149 72.4541 57.7017 70.9633 56.3654 72.9257C52.9789 77.897 52.0527 83.3399 51.3568 82.5834C51.2811 82.5005 51.2023 82.3834 51.1993 82.2793C51.1649 80.9492 51.578 77.3051 51.5831 77.2799C51.7528 76.4991 52.0244 70.9249 51.4326 69.925C50.7165 68.713 49.4813 69.1857 49.046 70.425C47.3158 75.3548 47.8996 74.2509 46.8209 80.6876C46.7805 80.929 46.7038 80.9876 46.4008 81.0229C46.1978 81.0461 46.0321 81.0179 45.9776 80.7896C44.5272 74.7922 45.3696 72.6773 43.7818 71.4966C43.1263 71.0098 42.182 71.1815 41.9315 71.9935C41.0579 74.8235 41.678 76.7193 42.0598 80.8522C42.2285 82.6823 42.2224 82.6662 42.0143 82.7662C41.5406 82.9934 41.5507 82.6662 37.7764 76.7132C36.8643 75.275 35.7897 75.4437 35.4312 76.2446C34.7333 77.799 37.5552 83.5429 38.4874 84.8276C39.0156 85.5558 38.9338 85.9982 39.155 88.401C39.8206 95.6578 42.5749 97.6 42.2961 98.2272C42.077 98.7201 41.9972 99.2665 41.6699 99.72C38.549 104.042 39.7974 103.149 33.3586 109.227C30.6165 111.816 24.503 117.028 21.8547 121.721C21.5194 122.314 21.9739 122.686 22.5284 122.264C22.591 122.217 23.6939 121.121 24.1464 120.616C34.7181 108.821 38.4117 108.733 43.3455 98.6747C43.7758 97.797 43.392 97.0183 42.8334 96.2072C40.8882 93.3833 40.767 90.3048 40.5923 89.0958C39.9337 84.5428 38.5601 83.3358 36.3291 77.5263C36.0442 76.7839 36.4917 76.4315 36.6745 76.6456C37.4199 77.5253 36.7785 76.5819 39.0641 80.3503C41.4144 84.2246 41.2447 84.2458 42.8122 83.5196C44.2182 82.8682 41.8719 75.38 42.7708 72.3288C42.8759 71.9743 42.9708 71.9491 43.2768 72.1299C44.5323 72.8702 44.2555 78.9484 45.1716 81.5229C45.3332 81.9774 45.8089 82.0986 46.2755 82.0592C46.5896 82.0329 46.8947 81.8966 47.2017 81.8016C47.4279 81.7319 47.5865 81.5814 47.6552 81.3522C48.3278 79.1039 49.153 70.1402 50.3276 70.5704C51.5053 71.0017 50.6589 75.3275 50.2135 80.5987C49.9863 83.2914 49.9004 83.3712 51.8588 83.7125C52.5143 83.8267 52.7405 82.0733 56.6876 74.1913C57.131 73.3055 57.7865 72.9894 57.7794 73.9812C57.7663 75.8265 54.4101 81.844 54.4919 86.1345C54.4939 86.2638 54.4808 86.1376 54.9413 88.809C55.0575 89.4796 54.6979 88.7464 51.9467 91.0613C50.6216 92.1763 50.6751 93.1581 51.2326 92.8106C51.8325 92.4379 52.4476 92.0834 53.0092 91.6592C56.5412 88.9918 57.4986 90.6957 58.3551 88.9757C59.6691 86.3365 60.0439 85.8638 61.4387 84.1549C61.4871 84.0953 61.6124 84.0974 61.7013 84.0711C61.872 84.6599 60.7519 86.793 60.0045 88.8403C56.6492 98.0273 52.9476 97.4364 51.8123 100.724C50.6135 104.196 49.8853 105.916 48.038 115.395C48.0319 115.424 44.5252 134.307 44.5141 134.702C44.4929 135.423 45.0383 135.625 45.3514 134.886C45.8059 133.813 46.7967 129.328 46.9866 128.468C48.0774 123.52 48.2218 119.58 48.8349 119.078C54.8828 114.125 72.8527 108.7 80.4186 106.372C81.1145 106.158 80.6913 106.561 81.9205 108.374C88.5996 118.225 94.7101 121.036 101.264 124.188C101.84 124.465 102.808 124.875 103.783 124.266C105.696 123.07 109.965 119.151 113.257 116.474C121.591 109.696 121.444 106.475 122.277 106.752C129.833 109.256 136.215 111.597 142.59 115.06L143.664 114.055L143.665 114.056ZM120.192 63.9579C124.587 66.0749 123.705 76.9112 124.096 76.9516C123.82 79.416 124 80.7886 121.943 81.4673C121.596 81.5814 122.304 81.2996 121.398 73.3176C120.996 69.7745 121.12 68.1383 120.381 65.5669C120.06 64.4508 119.269 63.5135 120.192 63.9579ZM117.04 63.658C118.986 63.7378 119.556 65.5507 120.501 78.2434C120.548 78.8726 120.473 79.519 120.533 79.519C120.533 81.9046 120.544 81.7733 117.342 82.5642C117.164 82.6076 117.119 82.5329 117.125 82.3894C118.01 62.2026 113.258 63.5034 117.04 63.658ZM73.4536 86.0234C72.0093 82.2086 69.454 72.6914 73.0274 71.339C73.0355 71.5441 73.0597 71.3451 72.9254 72.0996C72.3547 75.3063 76.5786 88.7252 76.5796 88.7494C74.7838 88.6888 74.1808 87.9454 73.4536 86.0234ZM79.5783 88.5414C77.3997 88.8555 77.2573 86.6819 76.0109 81.5239C73.4758 71.0279 73.3567 70.732 77.1846 69.8149C77.8168 69.6634 77.6118 69.6443 77.8289 71.1098C79.5298 82.5793 80.6933 84.2388 81.7255 88.0081C81.8407 88.4292 81.6892 88.2363 79.5783 88.5414ZM120.412 106.485C114.34 114.066 110.643 117.426 102.838 123.209C102.63 123.363 102.46 123.387 102.229 123.278C91.8397 118.394 88.4642 115.012 83.2496 108.026C81.6235 105.848 81.6932 106.024 82.2305 105.89C86.9593 104.704 89.3298 104.651 89.6742 104.121C90.2277 103.271 90.97 101.572 91.2438 100.857C91.4568 100.3 91.5589 99.6988 91.6902 99.113C91.772 98.7464 91.6488 98.4575 91.3326 98.2202C84.0132 92.7369 82.3527 86.7405 79.3853 73.657C77.8289 66.792 79.2066 62.5854 82.0235 59.1241C83.6435 57.1344 84.806 56.0214 86.8876 54.7084C88.2673 53.8377 88.3784 53.5903 88.7551 53.6953C91.3285 54.4124 94.6283 53.2742 96.9492 51.9511C97.8411 51.443 101.067 51.9278 102.056 52.2026C110.094 54.4347 113.465 59.9786 115.033 67.2061C116.86 75.6235 115.856 80.8068 115.331 85.4346C114.511 92.652 113.467 93.6823 113.866 98.9635C114.246 104.005 115.288 104.221 117.617 105.116C120.475 106.216 120.78 106.025 120.411 106.484L120.412 106.485Z" fill="white"/>
<path d="M60.7084 116.111C52.8416 118.266 50.8509 128.252 57.3017 133.015C62.5759 136.909 70.463 134.501 72.5457 128.438C75.1989 120.714 68.1734 114.067 60.7084 116.111ZM64.3263 133.633C52.8466 134.546 50.9448 119.436 61.4609 116.995C65.1524 116.138 69.7025 117.828 71.5841 122.343C73.7243 127.477 69.6843 133.207 64.3263 133.633Z" fill="white"/>
<path d="M122.437 114.172C117.736 114.847 113.888 119.194 114.257 124.46C114.908 133.771 127.575 136.431 132.469 128.483C136.55 121.858 131.543 112.865 122.437 114.172ZM126.1 131.744C119.962 133.238 114.612 128.061 115.306 122.663C115.964 117.543 121.003 114.189 125.994 115.292C135.182 117.322 135.135 129.545 126.1 131.744Z" fill="white"/>
<path d="M156.15 117.445C150.653 108.54 136.133 113.82 138.074 124.424C140.058 135.264 157.066 134.793 157.561 122.234C157.41 120.834 157.37 119.422 156.15 117.445ZM149.06 130.836C143.788 131.74 138.803 127.298 138.902 122.882C139.11 113.565 151.067 110.914 155.378 118.253C158.611 123.757 154.977 129.822 149.06 130.836Z" fill="white"/>
<path d="M55.7702 125.795C55.848 127.207 55.9187 128.187 57.2569 128.662C58.6649 129.162 60.7142 128.696 61.1353 127.322C61.4757 126.212 60.8263 125.942 61.3808 125.705C61.8211 125.516 62.3696 125.213 63.7836 125.181C65.5238 125.378 65.7359 125.284 65.7389 125.942C65.744 126.994 65.5571 127.533 66.3378 128.02C67.0519 128.465 68.3568 128.605 69.7112 127.996C71.0757 127.383 71.805 124.489 69.6264 122.867C64.836 119.299 55.5571 121.933 55.7712 125.794L55.7702 125.795ZM69.988 125.875C69.8183 127.069 68.5386 127.094 67.4125 127.035C66.0692 126.964 68.7265 124.093 63.7583 124.012C62.7241 123.995 60.794 124.323 60.1981 125.277C59.9708 125.641 60.0324 126.342 60.0506 126.754C60.092 127.721 58.4972 127.759 57.5811 127.45C56.8317 127.197 56.3025 125.952 57.3044 124.274C57.3822 124.143 58.674 123.129 59.481 122.907C61.305 122.406 62.923 122.105 65.8177 122.346C67.9104 122.521 70.2809 123.811 69.988 125.875Z" fill="white"/>
<path d="M128.138 122.087C127.697 121.923 127.35 122.542 127.368 122.874C127.478 124.889 127.529 124.255 127.295 125.437C126.933 127.263 124.208 126.684 123.522 126.848C122.828 127.013 122.213 126.804 121.587 126.583C120.11 126.062 120.639 122.567 120.06 122.352C119.661 122.205 119.247 122.519 119.26 122.977C119.267 123.237 119.323 123.496 119.353 123.754C119.631 126.178 119.463 127.884 122.942 128.1C123.345 128.125 123.348 128.08 123.363 128.446C123.381 128.893 123.47 129.127 123.141 129.126C122.263 129.123 121.711 129.062 120.999 129.347C120.686 129.473 120.62 130.019 121.032 130.13C121.519 130.262 121.404 130.233 124.049 130.233C124.049 130.114 126.69 130.457 127.278 130.01C127.792 129.62 127.262 129.096 126.746 129.104C125.841 129.119 124.979 129.14 124.971 129.021C124.905 128.02 124.969 128.054 125.161 128.009C127.742 127.418 128.774 127.049 128.491 122.537C128.477 122.304 128.328 122.155 128.14 122.086L128.138 122.087Z" fill="white"/>
<path d="M122.859 125.916C127.735 127.459 126.069 121.661 126.434 121.66C126.434 119.326 126.493 119.176 126.174 118.117C125.79 116.838 123.867 116.474 122.868 117.001C121.551 117.696 121.605 118.578 121.578 122.264C121.565 124.072 121.517 125.492 122.86 125.917L122.859 125.916ZM123.583 117.844C125.268 117.579 125.226 118.541 125.463 121.087C125.259 124.737 125.465 124.944 124.102 124.982C122.165 125.037 122.968 124.05 122.649 120.669C122.549 119.612 122.534 118.008 123.583 117.844Z" fill="white"/>
<path d="M154.261 119.85C153.698 119.312 153.226 119.868 151.729 121.005C151.239 121.377 151.648 120.049 150.506 119.644C150.331 119.582 150.438 119.485 150.474 119.411C150.744 118.838 150.907 118.274 150.753 117.612C149.995 114.338 145.331 116.215 146.707 119.238C146.821 119.49 146.812 119.494 146.567 119.524C145.944 119.601 145.936 119.598 146.126 119.012C146.489 117.888 145.935 116.608 144.589 116.246C143.314 115.902 141.971 117.045 141.945 118.467C141.923 119.706 142.8 119.83 142.239 120.049C141.8 120.221 141.456 120.435 141.367 120.895C141.086 122.34 141.3 125.442 141.511 126C141.693 126.479 142.003 126.871 142.535 126.921C143.495 127.013 144.455 127.164 145.427 126.964C145.862 126.874 151.095 127.44 151.344 126.215C151.647 124.728 151.565 124.819 151.883 124.985C154.971 126.608 154.616 126.659 154.616 123.215C154.64 123.215 154.742 120.31 154.261 119.85ZM148.651 116.719C149.267 116.713 149.87 117.34 149.874 117.99C149.878 118.621 149.296 119.259 148.705 119.221C146.708 119.094 147.376 116.733 148.651 116.719ZM145.205 118.329C145.226 119.62 142.926 119.912 142.925 118.303C142.925 116.757 145.178 116.621 145.205 118.329ZM150.376 124.494C150.355 125.603 150.464 125.607 149.63 125.774C149.359 125.829 144.138 125.923 143.042 125.832C142.388 125.777 142.394 124.788 142.343 123.519C142.254 121.279 142.23 121.079 142.908 120.851C143.868 120.529 147.176 120.582 147.176 120.606C150.406 120.606 150.141 120.487 150.321 121.132C150.615 122.19 150.415 122.345 150.376 124.493V124.494ZM153.647 123.531C153.647 125.032 153.904 124.959 152.053 123.953C151.591 123.702 151.523 123.479 151.538 122.935C151.551 122.481 151.707 122.19 152.092 121.955C152.993 121.407 153.472 120.658 153.52 121.365C153.665 123.529 153.686 123.528 153.647 123.531Z" fill="white"/>
<path d="M184.588 10.8493C177.505 5.53977 164.457 4.1389 155.839 5.97609C132.813 10.8867 130.229 38.1254 147.731 46.9972C149.595 47.9426 149.683 47.8113 149.561 48.1365C148.956 49.7535 146.028 56.3842 144.818 57.9123C142.658 60.6413 153.722 58.7748 160.448 50.7928C161.104 50.0131 164.916 50.5716 166.228 50.6848C173.073 50.2131 172.94 50.2434 175.912 49.4273C193.753 44.5288 199.533 22.0513 184.587 10.8483L184.588 10.8493ZM175.938 47.3507C171.58 48.5032 173.265 48.3355 168.11 48.8829C161.274 49.6091 161.225 48.3658 159.887 49.6293C156.754 52.5856 155.695 53.4016 151.456 55.6661C150.054 56.4155 147.523 57.3689 146.727 57.377C146.987 56.7276 147.571 56.5246 149.883 51.0181C151.789 46.4791 151.229 47.3639 148.368 45.4893C144.746 43.1158 141.755 40.9635 139.594 36.0963C135.409 26.67 138.444 9.28889 161.172 7.45473C162.4 7.35575 163.631 7.30828 164.861 7.23758C164.871 7.4921 167.76 7.10426 171.241 7.8456C173.14 8.2496 172.202 7.81934 174.317 8.39908C176.947 9.12022 180.567 9.96155 184.227 13.032C197.21 23.9248 191.583 43.2148 175.939 47.3518L175.938 47.3507Z" fill="white"/>
<path d="M164.174 26.6758C162.448 26.6687 161.386 28.3282 161.401 29.5594C161.44 33.1842 166.88 33.3751 166.978 29.3755C167.017 27.7616 165.762 26.6819 164.175 26.6758H164.174Z" fill="white"/>
<path d="M153.424 26.5186C151.887 26.4368 150.584 28.081 150.565 29.4001C150.544 30.8434 151.83 32.2069 153.277 32.1422C156.637 32.3705 157.496 26.7357 153.425 26.5186H153.424Z" fill="white"/>
<path d="M174.586 26.3851C173.098 26.2498 171.839 27.9284 171.84 29.2677C171.842 30.7271 173.154 31.9987 174.589 32.0027C178.12 32.0108 178.618 26.3185 174.585 26.3861L174.586 26.3851Z" fill="white"/>
</svg>
