<svg width="204" height="204" viewBox="0 0 204 204" fill="none" xmlns="http://www.w3.org/2000/svg">
<path d="M167.416 50.8958C167.829 50.8084 168.206 50.6005 168.5 50.2984C168.465 50.4661 168.421 50.6317 168.368 50.7945C168.287 51.0679 168.591 51.1489 168.692 50.9768C169.05 50.4452 169.191 49.7968 169.087 49.1644C169.082 49.1046 169.059 49.0477 169.023 49.0002C168.986 48.9527 168.937 48.9167 168.88 48.8965C168.824 48.8762 168.763 48.8726 168.704 48.886C168.646 48.8994 168.592 48.9292 168.55 48.972C168.125 49.4884 168.044 50.2174 167.325 50.4401C167.268 50.4557 167.219 50.4922 167.188 50.5424C167.157 50.5926 167.147 50.6526 167.158 50.7105C167.17 50.7683 167.203 50.8196 167.251 50.854C167.299 50.8884 167.358 50.9033 167.416 50.8958ZM165.422 47.4836C165.478 47.5199 165.543 47.5404 165.611 47.5428C165.678 47.5453 165.744 47.5297 165.803 47.4976C165.862 47.4655 165.912 47.4181 165.946 47.3605C165.98 47.3028 165.999 47.2369 165.999 47.1698C165.999 47.0888 165.999 46.9976 165.513 46.2686C165.412 46.1168 165.29 45.8333 165.027 45.975C164.764 46.1168 164.946 46.38 165.088 46.7344C165.371 47.4836 165.371 47.4836 165.422 47.4836ZM165.26 45.6308C165.756 45.6308 166.1 45.6308 166.161 46.0459C166.169 46.1077 166.201 46.1637 166.251 46.2017C166.3 46.2396 166.362 46.2564 166.424 46.2484C166.486 46.2403 166.542 46.2081 166.58 46.1587C166.618 46.1093 166.635 46.0469 166.627 45.9851C166.546 45.6571 166.353 45.3677 166.081 45.1678C165.809 44.9679 165.475 44.8701 165.138 44.8916C165.058 44.9249 164.992 44.9843 164.95 45.0601C164.907 45.1359 164.892 45.2237 164.906 45.3093C164.92 45.3949 164.963 45.4732 165.027 45.5316C165.091 45.5899 165.173 45.6249 165.26 45.6308ZM41.4209 76.4918C38.5808 77.8655 35.4554 78.546 32.3013 78.4774C29.1473 78.4087 26.0544 77.5929 23.2769 76.0969C23.2258 76.066 23.1646 76.0567 23.1067 76.0709C23.0488 76.0851 22.9989 76.1218 22.968 76.1728C22.9372 76.2239 22.9278 76.2851 22.9421 76.343C22.9563 76.4009 22.993 76.4508 23.044 76.4816C28.5925 80.0963 36.7431 80.2988 41.5727 76.755C41.6076 76.7349 41.6331 76.7017 41.6436 76.6628C41.654 76.6238 41.6486 76.5824 41.6284 76.5475C41.6083 76.5125 41.5751 76.4871 41.5362 76.4766C41.4972 76.4662 41.4558 76.4716 41.4209 76.4918ZM40.6716 46.4711C41.2487 46.704 42.2005 46.4711 41.9474 45.9345C41.7784 45.5251 41.6594 45.0967 41.593 44.6588C41.593 44.597 41.5684 44.5378 41.5248 44.4941C41.4811 44.4504 41.4219 44.4259 41.3601 44.4259C41.2983 44.4259 41.2391 44.4504 41.1954 44.4941C41.1518 44.5378 41.1272 44.597 41.1272 44.6588C41.1212 45.0872 41.1619 45.515 41.2487 45.9345C41.1106 46.0131 40.9508 46.045 40.7931 46.0256C40.7639 46.0177 40.7333 46.0155 40.7032 46.0194C40.6732 46.0232 40.6441 46.0329 40.6178 46.0479C40.5915 46.063 40.5684 46.0831 40.5498 46.107C40.5312 46.131 40.5176 46.1584 40.5096 46.1876C40.5016 46.2169 40.4995 46.2474 40.5033 46.2775C40.5071 46.3076 40.5168 46.3366 40.5319 46.3629C40.5469 46.3893 40.567 46.4124 40.591 46.4309C40.615 46.4495 40.6424 46.4632 40.6716 46.4711ZM39.5072 44.2538C39.664 43.8895 39.7927 43.5138 39.892 43.1299C39.901 43.0946 39.9029 43.0579 39.8976 43.0219C39.8923 42.9859 39.8798 42.9514 39.861 42.9203C39.8421 42.8891 39.8172 42.8621 39.7878 42.8407C39.7583 42.8193 39.7249 42.8041 39.6895 42.7958C39.3857 42.7046 39.3351 43.0286 39.1832 43.4235C39.096 43.6199 39.0249 43.8231 38.9706 44.031C38.9703 44.0933 38.9885 44.1543 39.023 44.2062C39.0574 44.2582 39.1066 44.2986 39.1641 44.3225C39.2217 44.3464 39.2851 44.3526 39.3462 44.3404C39.4073 44.3281 39.4633 44.298 39.5072 44.2538ZM42.8789 45.2055C42.9365 45.2308 43.0006 45.2376 43.0623 45.2249C43.1239 45.2122 43.1801 45.1807 43.2231 45.1346C43.3784 44.7698 43.507 44.3942 43.6079 44.0108C43.6185 43.9762 43.6219 43.9398 43.6179 43.9038C43.6139 43.8679 43.6025 43.8332 43.5844 43.8018C43.5664 43.7705 43.5421 43.7432 43.513 43.7216C43.4839 43.7001 43.4507 43.6848 43.4155 43.6766C43.1016 43.5855 43.0409 43.95 42.9092 44.2943C42.7776 44.6385 42.5245 45.0638 42.8789 45.2055ZM38.0189 47.2811C38.3823 47.4631 38.7986 47.5098 39.1934 47.4128C39.4465 47.3014 39.2744 46.9166 39.0314 46.9976C38.7639 46.9793 38.5073 46.8844 38.2922 46.7243C38.1552 46.6344 38.0373 46.5184 37.9452 46.3829C37.8531 46.2473 37.7887 46.095 37.7556 45.9345C37.6847 45.5093 37.0165 45.6713 37.1177 46.0965C37.1669 46.3499 37.2737 46.5886 37.43 46.794C37.5863 46.9995 37.7878 47.1661 38.0189 47.2811ZM109.997 158.12C109.997 157.851 109.891 157.593 109.701 157.404C109.511 157.214 109.254 157.107 108.985 157.107C108.716 157.107 108.459 157.214 108.269 157.404C108.079 157.593 107.972 157.851 107.972 158.12C107.972 158.388 108.079 158.646 108.269 158.835C108.459 159.025 108.716 159.132 108.985 159.132C109.254 159.132 109.511 159.025 109.701 158.835C109.891 158.646 109.997 158.388 109.997 158.12ZM109.977 168.093C110.137 168.108 110.299 168.089 110.451 168.038C110.603 167.987 110.743 167.905 110.862 167.797C110.981 167.689 111.076 167.557 111.141 167.41C111.206 167.263 111.239 167.104 111.239 166.943C111.239 166.783 111.206 166.624 111.141 166.477C111.076 166.33 110.981 166.198 110.862 166.09C110.743 165.982 110.603 165.9 110.451 165.849C110.299 165.798 110.137 165.779 109.977 165.794C109.817 165.779 109.656 165.798 109.503 165.849C109.351 165.9 109.211 165.982 109.092 166.09C108.973 166.198 108.878 166.33 108.813 166.477C108.749 166.624 108.715 166.783 108.715 166.943C108.715 167.104 108.749 167.263 108.813 167.41C108.878 167.557 108.973 167.689 109.092 167.797C109.211 167.905 109.351 167.987 109.503 168.038C109.656 168.089 109.817 168.108 109.977 168.093ZM110.271 176.294C109.995 176.32 109.739 176.448 109.553 176.653C109.366 176.858 109.263 177.126 109.263 177.403C109.263 177.68 109.366 177.947 109.553 178.152C109.739 178.357 109.995 178.485 110.271 178.511C110.547 178.485 110.803 178.357 110.989 178.152C111.175 177.947 111.279 177.68 111.279 177.403C111.279 177.126 111.175 176.858 110.989 176.653C110.803 176.448 110.547 176.32 110.271 176.294ZM104.125 132.321C104.624 134.964 104.962 137.636 105.137 140.32C105.137 140.414 105.175 140.504 105.241 140.57C105.308 140.637 105.398 140.674 105.492 140.674C105.586 140.674 105.676 140.637 105.742 140.57C105.809 140.504 105.846 140.414 105.846 140.32C105.648 137.591 105.231 134.882 104.601 132.22C104.575 132.171 104.534 132.133 104.484 132.109C104.435 132.086 104.379 132.08 104.325 132.091C104.271 132.103 104.223 132.131 104.186 132.173C104.15 132.214 104.129 132.266 104.125 132.321ZM106.049 161.967C106.049 161.897 106.021 161.83 105.972 161.781C105.922 161.732 105.855 161.704 105.785 161.704C105.716 161.704 105.649 161.732 105.599 161.781C105.55 161.83 105.522 161.897 105.522 161.967C105.421 168.903 105.299 185.477 105.36 187.28C105.374 187.359 105.416 187.432 105.478 187.484C105.54 187.536 105.618 187.565 105.699 187.565C105.781 187.565 105.859 187.536 105.921 187.484C105.983 187.432 106.025 187.359 106.039 187.28C106.18 184.009 106.049 163.587 106.049 161.967ZM133.224 92.3273C133.235 92.3556 133.255 92.3798 133.28 92.3962C133.306 92.4126 133.336 92.4204 133.366 92.4184C136.039 91.0379 138.446 89.1935 140.474 86.9711C140.502 86.9411 140.518 86.9012 140.518 86.8598C140.518 86.8183 140.502 86.7785 140.474 86.7484C138.155 85.1081 131.604 82.3845 131.594 83.154C131.543 86.2881 132.096 89.4027 133.224 92.3273ZM58.684 107.019C59.5043 107.053 60.3146 106.829 61.0011 106.378C61.6876 105.928 62.2157 105.274 62.5112 104.508C62.7846 103.647 62.6834 103.495 61.8531 98.4833C62.4585 98.9688 63.0943 99.4153 63.7566 99.8198C63.965 99.9001 64.1957 99.9002 64.4042 99.8201C64.6126 99.74 64.7839 99.5853 64.8848 99.3861C64.9856 99.1868 65.0089 98.9572 64.9502 98.7418C64.8914 98.5263 64.7547 98.3404 64.5666 98.22C62.8728 97.3389 61.5719 95.8537 60.9216 94.0586C60.8305 93.7448 59.6459 93.6435 59.2004 94.4029C59.2004 94.494 60.7495 103.1 60.7697 103.191C60.8357 103.451 60.8357 103.722 60.7697 103.981C60.6193 104.306 60.3891 104.588 60.1006 104.801C59.8121 105.013 59.4745 105.149 59.1194 105.196C58.8362 105.252 58.5447 105.251 58.2619 105.193C57.9791 105.136 57.7106 105.022 57.4721 104.86C57.2335 104.697 57.0296 104.489 56.8723 104.247C56.7149 104.005 56.6073 103.734 56.5556 103.45C56.5039 103.166 56.5092 102.875 56.5712 102.593C56.6331 102.311 56.7506 102.045 56.9166 101.808C57.0826 101.572 57.2939 101.372 57.5383 101.218C57.7826 101.064 58.055 100.961 58.3397 100.913C58.5774 100.872 58.7888 100.737 58.9274 100.54C59.066 100.342 59.1205 100.098 59.0789 99.8603C59.0372 99.6226 58.9029 99.4112 58.7054 99.2726C58.508 99.134 58.2635 99.0795 58.0259 99.1211C57.3234 99.2384 56.6643 99.5389 56.115 99.9922C55.5657 100.445 55.1457 101.036 54.8972 101.703C54.6692 102.306 54.5933 102.957 54.6761 103.596C54.759 104.236 54.9982 104.846 55.3725 105.371C55.7467 105.896 56.2446 106.322 56.8222 106.609C57.3997 106.896 58.0392 107.037 58.684 107.019Z" fill="white"/>
<path d="M69.9033 100.002C69.797 97.9561 69.0805 95.989 67.8462 94.3541C66.6119 92.7191 64.9162 91.4912 62.9778 90.8287C54.2399 87.8722 46.2006 98.1086 51.3745 105.874C52.5951 107.693 54.3723 109.066 56.4394 109.789C58.5066 110.511 60.7524 110.544 62.8399 109.883C64.9274 109.221 66.7442 107.901 68.0177 106.119C69.2912 104.338 69.9528 102.191 69.9033 100.002ZM53.7033 93.5219C59.9099 87.8114 69.0224 92.5094 69.2654 100.012C69.2425 101.923 68.6912 103.791 67.6726 105.408C66.654 107.025 65.2079 108.329 63.4941 109.175C57.8444 111.636 51.0201 107.393 50.5443 101.419C50.4193 99.9507 50.6368 98.4731 51.1797 97.1027C51.7226 95.7323 52.576 94.5066 53.6729 93.5219H53.7033ZM126.3 92.1348C127.179 93.4811 128.369 94.5963 129.77 95.3864C131.17 96.1765 132.74 96.6185 134.347 96.675C135.954 96.7315 137.551 96.401 139.004 95.7112C140.457 95.0214 141.722 93.9926 142.694 92.7114C143.666 91.4303 144.316 89.9343 144.588 88.3496C144.861 86.7648 144.749 85.1377 144.262 83.6053C143.774 82.0729 142.925 80.6802 141.787 79.5444C140.649 78.4086 139.254 77.563 137.721 77.0789C128.628 74.2642 121.318 84.8549 126.3 92.1348ZM128.628 79.7924C134.956 73.9604 143.947 79.0128 144.18 86.2826C144.16 88.1892 143.614 90.0533 142.603 91.6699C141.592 93.2865 140.155 94.593 138.45 95.4457C132.81 97.9061 125.976 93.6738 125.49 87.6899C125.367 86.2178 125.59 84.7374 126.14 83.3664C126.69 81.9954 127.553 80.7717 128.659 79.7924H128.628ZM63.8586 44.2031C56.3763 28.4081 37.1995 21.6749 21.7285 32.2049C1.681 45.9041 6.4195 74.8211 28.9578 82.5971C50.9695 90.4136 74.9961 67.7336 63.8586 44.2031ZM49.7545 80.5518C47.9171 81.4515 45.98 82.1312 43.9833 82.5768C44.1149 81.3213 44.2769 78.0813 44.3376 76.5626C45.2894 78.0813 47.0106 79.6001 49.147 79.2963C51.01 79.0027 52.6604 77.2713 54.2095 74.2338C55.7262 70.9143 56.5792 67.3304 56.7205 63.6836C56.8855 63.2614 56.9911 62.8185 57.0344 62.3673C57.5489 61.1818 58.1478 60.0347 58.8265 58.9349C59.191 58.6173 59.5081 58.249 59.7681 57.8414C60.0511 57.0566 60.1141 56.2093 59.9504 55.3912C59.9186 54.5707 59.616 53.7839 59.0898 53.1536C59.5049 52.3132 60.6591 48.4758 60.8515 47.7266C60.868 47.6463 60.8545 47.5627 60.8134 47.4918C60.7723 47.4208 60.7066 47.3674 60.6288 47.3418C58.5989 47.0323 56.5456 46.9036 54.493 46.9571C54.4221 46.8254 50.7771 57.2339 50.443 58.0946C50.4276 58.1417 50.4219 58.1916 50.4264 58.241C50.4309 58.2904 50.4455 58.3384 50.4692 58.382C50.4929 58.4256 50.5252 58.4639 50.5642 58.4946C50.6033 58.5252 50.6482 58.5476 50.6961 58.5603C51.7024 58.7164 52.7164 58.8178 53.7336 58.8641C53.7336 59.2994 53.5413 60.5043 53.4704 60.8891C53.1817 61.2556 52.9464 61.6613 52.7718 62.0939C51.5147 63.1873 50.6298 64.6455 50.2405 66.2654C48.4484 58.3983 47.203 55.0166 40.1155 51.0779C39.7611 50.8856 39.3359 50.7438 38.9511 50.4907C43.8516 51.6652 44.3984 52.2221 44.5806 51.9791C50.1291 44.1626 47.5473 35.2222 41.857 31.6278C36.5313 27.7803 31.2764 31.4152 29.3628 37.5003C27.9453 42.2894 30.3753 46.4812 31.6308 48.2227C30.4765 48.3341 30.0816 48.4657 29.1603 48.5669C21.364 49.4073 15.046 58.7527 12.1503 66.0528C3.51363 46.2382 22.3259 23.6797 44.1959 28.9042C69.1945 35.7588 73.7406 68.9486 49.7545 80.5518ZM18.7821 75.4893C19.5516 74.2946 21.4754 70.9736 21.9209 70.1939C27.5504 74.5274 38.1209 75.0944 43.6694 71.3988C43.6694 71.5709 43.4163 81.3314 43.4163 82.7186C39.0308 83.5212 34.5184 83.2853 30.2405 82.0299C25.9627 80.7745 22.0384 78.5345 18.7821 75.4893ZM50.5443 68.5233C50.526 68.2075 50.4888 67.8931 50.4329 67.5817C50.524 67.2982 50.5848 67.0451 50.6759 66.7109C51.334 67.8044 53.5109 69.7484 54.412 69.8598C54.4574 69.8634 54.5026 69.8516 54.5404 69.8263C54.5782 69.801 54.6064 69.7637 54.6205 69.7204C54.6345 69.6771 54.6335 69.6304 54.6178 69.5877C54.602 69.545 54.5723 69.5089 54.5335 69.4852C53.0345 68.5535 51.8303 67.2159 51.0606 65.6276C51.2938 64.9924 51.6365 64.403 52.0731 63.8861C52.8668 65.1318 53.9829 66.1395 55.303 66.8021C55.3263 66.808 55.3505 66.8094 55.3743 66.806C55.3981 66.8026 55.421 66.7946 55.4416 66.7824C55.4623 66.7702 55.4804 66.754 55.4948 66.7348C55.5093 66.7156 55.5198 66.6937 55.5258 66.6704C55.5317 66.6472 55.5331 66.6229 55.5297 66.5992C55.5263 66.5754 55.5183 66.5525 55.5061 66.5318C55.4939 66.5111 55.4777 66.493 55.4585 66.4786C55.4393 66.4642 55.4174 66.4537 55.3941 66.4477C54.2099 65.6337 53.235 64.5513 52.549 63.2887C52.6806 63.1267 52.8224 62.9647 52.9641 62.8128C53.7774 63.6132 54.8613 64.0793 56.0016 64.1189C55.8225 67.1536 55.1982 70.1455 54.1488 72.9986C53.319 75.0044 52.0205 76.7821 50.362 78.1826C51.7573 75.4741 52.0756 72.3378 51.253 69.4042C51.2327 69.3348 51.1898 69.2742 51.1311 69.232C51.0724 69.1898 51.0013 69.1684 50.929 69.1713C50.0684 69.1713 51.2733 72.6948 45.2084 76.5929C44.8951 76.1444 44.6142 75.6741 44.368 75.1856C44.4288 71.7431 44.287 68.3107 44.1453 64.9897C44.1453 64.9279 44.1207 64.8687 44.077 64.825C44.0334 64.7813 43.9741 64.7568 43.9124 64.7568C43.8506 64.7568 43.7914 64.7813 43.7477 64.825C43.704 64.8687 43.6795 64.9279 43.6795 64.9897C43.7403 66.7514 43.6795 68.4929 43.6795 70.5787C40.2775 72.7151 36.3794 73.4542 31.3979 72.8973C28.0842 72.7228 24.8915 71.5941 22.2044 69.6472C22.5588 68.9992 24.037 66.1642 24.4521 65.4048C24.4721 65.3702 24.4825 65.3309 24.4821 65.291C24.4817 65.251 24.4705 65.2119 24.4498 65.1778C24.4291 65.1436 24.3996 65.1156 24.3644 65.0968C24.3292 65.078 24.2895 65.0689 24.2496 65.0707C24.0066 65.0707 24.2496 65.0099 22.2246 68.4828C19.0307 67.2317 16.4514 64.7831 15.0359 61.6586C16.6747 58.5301 18.8237 55.6967 21.3944 53.2751C22.7149 55.1084 24.3904 56.6576 26.3215 57.8306C28.2525 59.0036 30.3996 59.7764 32.6352 60.1032C34.8709 60.43 37.1494 60.3041 39.3354 59.7329C41.5214 59.1617 43.5702 58.157 45.3603 56.7783C45.3946 56.7417 45.4149 56.6941 45.4175 56.644C45.4201 56.5939 45.4049 56.5445 45.3746 56.5045C45.3443 56.4645 45.3009 56.4365 45.2519 56.4254C45.2029 56.4144 45.1517 56.421 45.1071 56.4442C43.6378 57.4539 42.041 58.2642 40.3585 58.8539C37.0397 59.9052 33.474 59.884 30.1678 58.7935C26.8617 57.7029 23.9832 55.5985 21.9411 52.7789C22.9108 51.9921 23.9633 51.3131 25.0799 50.7539C28.9173 59.3906 38.3841 60.0082 42.9606 53.7914C45.3299 55.6342 46.0589 55.8671 47.9523 60.4436C43.6086 64.2303 39.6498 66.1136 35.863 66.0731C32.7164 66.095 29.6058 65.4019 26.7662 64.0461C23.9265 62.6903 21.4319 60.7072 19.4706 58.2464C19.3086 58.0237 18.9441 58.2464 19.1061 58.4894C22.1436 63.1166 27.9048 66.1541 34.9518 66.8223C39.7206 67.2881 44.7831 64.5644 48.1851 61.1017C48.7116 62.8432 49.3495 65.4048 49.4204 65.7086C49.1065 66.7211 45.7146 69.8699 45.178 69.9914C44.8641 70.0623 45.0261 70.5483 45.3096 70.4268C46.9415 69.4825 48.4114 68.2826 49.6634 66.8729C49.7748 67.3994 49.9773 68.3411 50.0076 68.5739C50.038 68.8068 50.5645 68.8473 50.5443 68.5233ZM56.6193 53.2548C56.4938 53.2195 56.3616 53.2154 56.2341 53.2428C56.1067 53.2703 55.9879 53.3285 55.8881 53.4123C55.7883 53.4961 55.7105 53.6031 55.6614 53.7239C55.6124 53.8447 55.5936 53.9756 55.6068 54.1053C54.5234 54.3382 54.5943 55.1178 55.222 55.6241C55.8434 56.0163 56.4856 56.3745 57.1458 56.6973C56.9129 57.2542 56.7306 57.7098 56.4876 58.2464C55.4751 58.2464 52.3263 58.0541 51.2328 57.9629C51.6378 56.6973 53.7741 50.8147 54.9486 47.6354C55.9611 47.6861 59.1303 47.7671 60.1529 47.9291C59.9099 48.9416 58.8771 51.8879 58.5835 52.8093C58.4272 52.7062 58.2516 52.6358 58.0673 52.6023C57.883 52.5689 57.6939 52.5731 57.5113 52.6147C57.3287 52.6564 57.1564 52.7345 57.0049 52.8445C56.8533 52.9545 56.7256 53.0941 56.6294 53.2548H56.6193ZM57.0648 58.7324C57.2369 58.1857 57.4495 57.6592 57.733 56.9707C57.7781 56.9786 57.8246 56.9718 57.8654 56.9512C57.9063 56.9306 57.9395 56.8973 57.96 56.8564C57.9804 56.8154 57.9872 56.7689 57.9791 56.7239C57.971 56.6788 57.9487 56.6375 57.9153 56.6062C57.6621 56.3733 55.3131 55.1279 55.4043 54.8849C55.4954 54.6419 56.0826 54.8141 56.4168 55.0064C57.0757 55.2778 57.7523 55.5044 58.4418 55.6848C58.486 55.6896 58.5307 55.6797 58.5687 55.6566C58.6068 55.6334 58.6362 55.5984 58.6523 55.5569C58.6685 55.5154 58.6705 55.4697 58.658 55.4269C58.6456 55.3842 58.6194 55.3467 58.5835 55.3203C57.7928 55.0333 57.0217 54.6951 56.275 54.3078C56.1231 54.1661 56.0523 53.7813 56.275 53.7914C57.0189 53.9687 57.7119 54.3152 58.3 54.8039C58.3233 54.8259 58.3506 54.843 58.3805 54.8544C58.4104 54.8657 58.4423 54.8711 58.4742 54.8702C58.5062 54.8692 58.5377 54.862 58.5668 54.8489C58.596 54.8358 58.6223 54.8171 58.6443 54.7938C58.6662 54.7705 58.6833 54.7432 58.6947 54.7133C58.7061 54.6834 58.7114 54.6516 58.7105 54.6196C58.7095 54.5876 58.7023 54.5562 58.6892 54.527C58.6761 54.4978 58.6574 54.4715 58.6341 54.4496C58.2537 54.1492 57.8509 53.8785 57.4293 53.6396C56.923 53.3459 57.2875 52.9814 57.7938 53.0523C58.4721 53.1536 59.3429 54.0648 59.2518 55.9379C59.3361 56.4411 59.2707 56.9579 59.0637 57.4241C58.8566 57.8904 58.5172 58.2855 58.0874 58.5603C57.4349 59.5957 56.8823 60.6907 56.437 61.8307C55.9918 61.9459 55.5229 61.9319 55.0854 61.7902C54.6478 61.6485 54.2597 61.3851 53.9665 61.0308C54.0374 60.6764 54.25 59.4614 54.3108 59.0058C56.5686 59.0767 56.9635 59.0666 57.0749 58.7324H57.0648ZM50.8581 70.9938C51.2068 73.5773 50.7804 76.2062 49.633 78.5471C48.8933 78.759 48.1059 78.7355 47.3801 78.4797C46.6544 78.2239 46.0263 77.7484 45.583 77.1194C48.0503 75.815 49.9342 73.6273 50.8581 70.9938ZM32.2281 49.1339C32.2461 49.1553 32.2697 49.1712 32.2962 49.18C32.3227 49.1888 32.3511 49.1902 32.3783 49.1839C32.4055 49.1776 32.4304 49.164 32.4504 49.1444C32.4703 49.1249 32.4845 49.1003 32.4914 49.0732C34.0203 43.0589 33.9798 43.4336 33.838 43.3526C32.137 42.4211 32.6736 40.6087 33.3621 40.3961C33.7064 40.2847 34.162 40.5074 34.6176 41.0137C34.9152 41.2934 35.1409 41.6407 35.2758 42.0262C36.2883 44.8612 41.8975 41.1251 44.3275 39.3329C44.4961 39.1928 44.6956 39.0945 44.9095 39.0463C45.1234 38.9982 45.3457 39.0014 45.5581 39.0557C45.7705 39.1101 45.967 39.214 46.1315 39.359C46.296 39.504 46.4238 39.6859 46.5044 39.8898C46.7373 40.3353 46.312 40.7099 46.0589 40.2239C45.5324 39.3329 44.611 39.8291 44.6313 40.0721C44.8338 42.5831 44.368 46.1471 42.4139 47.8886C40.4598 49.6301 38.1918 48.7289 37.9893 48.9011C37.7868 49.0732 37.8981 49.2352 37.8981 49.4276C37.8076 49.6424 37.7674 49.8752 37.7806 50.108C37.7939 50.3408 37.8602 50.5675 37.9745 50.7708C38.0888 50.974 38.2481 51.1484 38.4402 51.2806C38.6323 51.4128 38.8521 51.4993 39.0828 51.5336C39.9102 51.8462 40.6984 52.254 41.4318 52.7486C37.8273 58.3173 29.95 57.4972 26.9328 49.9946C28.6195 49.4187 30.3775 49.078 32.1573 48.9821L32.2281 49.1339ZM14.7018 62.2964C15.3559 63.8598 16.3325 65.2675 17.5677 66.4277C18.803 67.5879 20.2691 68.4745 21.8703 69.0296C21.7488 69.2219 18.9239 73.8389 18.2556 74.9729C15.7972 72.611 13.799 69.8129 12.3629 66.7211C13.3653 64.9188 13.912 63.8253 14.7018 62.3066V62.2964ZM191.667 44.3549C185.966 26.1299 165.423 17.7566 149.466 27.4563C131.484 38.3711 130.41 62.6711 147.562 74.9426C170.1 91.0211 199.503 68.8271 191.667 44.3549ZM160.887 71.9759C164.238 76.4208 167.599 76.7651 169.847 76.2487C174.039 75.2969 177.714 70.5888 178.788 64.7872C178.802 64.7187 178.789 64.6472 178.751 64.5883C178.713 64.5294 178.653 64.4881 178.585 64.4733C178.517 64.4585 178.445 64.4716 178.386 64.5096C178.327 64.5475 178.286 64.6073 178.271 64.6758C177.795 67.1531 176.755 69.4879 175.234 71.5001C169.28 79.2558 163.084 75.4691 158.335 66.8831C156.792 64.4213 155.925 61.5957 155.824 58.6919C158.234 57.5579 158.183 57.4972 158.467 57.7402C161.281 60.1601 166.395 65.9313 167.103 66.7109C167.116 66.7782 167.152 66.839 167.204 66.8827C167.257 66.9264 167.323 66.9503 167.392 66.9503C167.46 66.9503 167.527 66.9264 167.579 66.8827C167.632 66.839 167.668 66.7782 167.68 66.7109C168.814 62.1344 169.705 57.3858 173.077 54.1154C174.329 53.8273 175.597 53.6143 176.874 53.4776C181.359 59.1476 180.721 66.7109 180.701 73.8896C177.694 76.1856 174.24 77.8268 170.56 78.7074C166.881 79.588 163.058 79.6886 159.337 79.0027C159.556 76.6046 160.077 74.2437 160.887 71.9759ZM177.735 53.3864C178.281 53.3864 178.231 52.4954 177.735 52.5663C175.621 52.7426 173.546 53.234 171.579 54.0243C171.305 54.1357 170.991 54.1964 171.093 54.4698C171.194 54.7432 171.417 54.5407 172.176 54.3483C169.199 57.4972 168.075 61.9319 167.296 65.9212C166.739 65.2428 165.362 63.6734 165.007 63.2684C168.126 56.3936 167.954 56.1809 169.786 54.7938C170.495 54.2268 173.381 52.1411 175.77 50.6426C177.046 49.8326 177.957 49.2656 180.084 52.2119C182.058 54.9558 182.109 54.9963 180.843 61.0207C180.462 58.2465 179.367 55.6191 177.664 53.3966L177.735 53.3864ZM155.46 47.4228C155.642 47.4228 155.733 47.5646 155.875 47.7772C159.216 52.8397 158.963 52.2626 158.963 52.3638C158.963 52.8498 159.621 53.5788 160.279 54.1964C159.742 54.3989 158.74 54.8039 158.143 55.0469C158.143 53.1839 156.826 53.1839 156.472 53.9636C155.844 53.0422 154.447 51.2197 154.164 50.8653C154.087 50.7563 153.983 50.6691 153.862 50.6122C153.741 50.5554 153.608 50.531 153.475 50.5413C152.999 49.9338 151.926 48.5163 151.511 47.8987C151.612 47.8784 155.136 47.4836 155.449 47.4228H155.46ZM162.345 57.0213C162.193 58.2566 160.259 56.8796 161.008 56.1911C161.146 56.4255 161.339 56.6233 161.57 56.7678C161.801 56.9122 162.063 56.9992 162.334 57.0213H162.345ZM162.233 56.3834C161.818 56.3126 160.978 55.3709 161.221 55.1583C161.464 54.9457 162.507 56.2214 162.486 56.3733C162.401 56.4019 162.31 56.4055 162.223 56.3834H162.233ZM164.552 62.8128C163.671 61.8813 159.672 57.7503 159.57 57.6693C159.423 57.45 159.234 57.2626 159.013 57.1182C158.792 56.9738 158.544 56.8754 158.284 56.8289C158.151 56.4842 158.099 56.1136 158.133 55.7456L160.745 54.6318C160.988 54.8444 160.745 54.6318 160.623 55.0976C160.565 55.3148 160.59 55.546 160.694 55.7456C159.682 56.4948 160.694 58.2363 162.031 58.1047C162.428 58.3768 162.771 58.7201 163.043 59.1172C163.343 60.1507 163.768 61.1436 164.309 62.0737C164.643 62.6711 164.623 62.6002 164.542 62.8128H164.552ZM163.691 59.1982C163.691 58.8742 164.856 57.6592 165.038 57.5073C165.58 57.6651 166.109 57.8683 166.617 58.1148C166.324 58.7831 165.382 60.9194 164.916 62.0028C164.408 61.1134 163.994 60.1735 163.681 59.1982H163.691ZM163.276 58.5502C163.08 58.2922 162.848 58.0637 162.588 57.8718C162.712 57.737 162.806 57.5765 162.862 57.4015C162.918 57.2266 162.935 57.0415 162.912 56.8593C162.97 56.8206 163.019 56.7698 163.055 56.7104C163.092 56.651 163.116 56.5843 163.124 56.5151C163.205 56.0392 162.669 55.6443 162.314 55.3102C161.265 54.4872 160.332 53.5269 159.54 52.4549C160.345 52.858 161.113 53.3288 161.838 53.8623C163.053 54.7634 164.613 55.6139 164.491 57.1124C164.044 57.5574 163.634 58.0383 163.266 58.5502H163.276ZM153.637 51.1488C154.666 52.3112 155.61 53.5463 156.462 54.8444C156.491 54.8896 156.533 54.925 156.583 54.9463C156.633 54.9676 156.687 54.9738 156.74 54.964C156.793 54.9543 156.842 54.9291 156.881 54.8916C156.92 54.8541 156.947 54.806 156.958 54.7533C156.958 54.4698 157.09 53.9636 157.353 54.0749C157.91 54.8343 157.353 56.0189 157.728 56.9606C155.014 58.1553 157.231 57.8516 155.561 55.9481C154.012 54.3179 153.404 51.6652 153.637 51.1488ZM164.076 50.1363C164.446 48.8116 164.446 47.411 164.076 46.0863C163.926 45.496 163.834 44.8923 163.803 44.2841C164.411 44.3489 165.025 44.3216 165.625 44.2031C167.397 43.9094 168.308 42.9577 168.744 43.2513C169.027 43.4437 169.078 44.0411 168.895 44.9928C168.891 45.0237 168.897 45.055 168.911 45.0826C168.926 45.1103 168.948 45.1328 168.976 45.1471C169.004 45.1615 169.035 45.167 169.066 45.163C169.097 45.1589 169.126 45.1454 169.149 45.1244C169.534 44.8087 170.017 44.6369 170.515 44.6384C171.862 44.7498 171.811 46.6634 170.515 47.4836C170.487 47.5057 170.468 47.537 170.461 47.5719C170.454 47.6068 170.459 47.6431 170.476 47.6745C170.493 47.7059 170.52 47.7303 170.553 47.7435C170.587 47.7567 170.623 47.7579 170.657 47.7468C171.143 47.5798 171.665 47.5434 172.169 47.6411C172.674 47.7388 173.144 47.9673 173.533 48.3037C173.745 49.1514 174.033 49.9782 174.393 50.7742C172.986 51.7361 171.103 53.0523 169.756 54.0952C168.541 51.5437 167.032 53.3561 165.99 51.3108C164.937 49.5592 164.268 50.1667 164.025 50.1059L164.076 50.1363ZM181.045 62.2863C181.775 60.0629 182.194 57.7495 182.291 55.4114C182.147 54.286 181.691 53.2232 180.975 52.3436C178.099 48.1923 176.925 48.8808 174.707 50.3793C174.505 49.7617 174.059 48.4758 173.978 48.1316C174.11 47.9999 174.454 47.6658 174.555 47.5949C174.93 47.0693 175.22 46.4886 175.416 45.8737C175.675 45.0146 175.781 44.1167 175.73 43.2209C175.781 42.3719 175.646 41.5219 175.335 40.7302C174.691 39.6044 173.673 38.7398 172.458 38.2867C171.242 37.8335 169.907 37.8204 168.683 38.2496C166.789 37.6218 164.349 36.9738 163.428 37.3687C162.695 37.5454 162.039 37.9523 161.554 38.5297C161.07 39.1071 160.784 39.8246 160.737 40.5768C160.691 41.3291 160.887 42.0763 161.296 42.709C161.706 43.3416 162.307 43.8262 163.013 44.0917C162.982 44.8734 163.071 45.6553 163.276 46.4103C163.619 47.473 163.647 48.6124 163.357 49.6908C163.175 50.5008 163.438 50.8653 164.37 50.7033C165.463 50.7843 164.866 52.7283 167.346 53.0928C167.944 53.1941 168.42 53.2852 169.037 54.4293C168.004 55.2548 167.228 56.3577 166.8 57.6086C166.249 57.2839 165.665 57.0191 165.058 56.8188C164.991 56.314 164.815 55.8297 164.542 55.3997C164.27 54.9696 163.907 54.6039 163.479 54.3281C162.535 53.5402 161.518 52.8451 160.441 52.2524C160.228 52.1411 159.783 51.7968 159.429 51.8677C155.905 46.5014 156.27 46.7343 155.166 46.7343C153.74 46.789 152.323 46.9789 150.934 47.3013C150.884 47.32 150.839 47.3498 150.802 47.3884C150.765 47.4269 150.737 47.4733 150.721 47.5241C150.66 47.7671 150.721 47.6253 152.139 49.6503C153.455 51.4931 152.979 50.5919 153.06 51.5842C153.239 53.4972 154.019 55.3046 155.287 56.7479C155.529 57.119 155.626 57.5656 155.561 58.0034L155.429 58.0642C155.085 58.2363 155.52 61.6889 155.763 62.4989C156.876 65.6811 158.478 68.6702 160.512 71.3583C159.515 73.7512 158.903 76.2869 158.7 78.8711C149.658 76.8461 141.933 70.7002 138.45 62.7217C134.967 54.7432 135.858 45.3877 141.143 36.6498C155.773 15.1747 187.86 23.8012 191.667 48.8909C193.064 58.4186 188.892 67.4602 181.4 73.3934C181.502 69.6925 181.36 65.9888 180.975 62.3066L181.045 62.2863ZM177.056 82.8401C177.144 84.4642 177.426 86.072 177.897 87.6292C177.929 87.7258 177.998 87.8056 178.089 87.8511C178.18 87.8967 178.286 87.9043 178.383 87.8722C179.152 87.6494 178.018 86.5863 177.684 82.8097C177.654 82.4148 177.026 82.4351 177.056 82.8401ZM180.154 94.9394C180.134 94.8549 180.081 94.7817 180.007 94.7362C179.933 94.6906 179.844 94.6763 179.76 94.6964C179.675 94.7166 179.602 94.7695 179.556 94.8435C179.511 94.9176 179.496 95.0067 179.517 95.0913C180.813 101.673 180.64 102.31 181.299 102.179C181.957 102.047 181.491 101.419 180.154 94.9394ZM182.534 110.593C181.977 110.745 182.716 110.826 183.212 116.971C183.212 117.528 184.123 117.498 184.063 116.971C183.807 114.893 183.405 112.836 182.858 110.815C182.855 110.778 182.843 110.741 182.825 110.709C182.806 110.676 182.78 110.648 182.749 110.627C182.718 110.606 182.682 110.591 182.645 110.585C182.608 110.58 182.57 110.582 182.534 110.593ZM156.837 93.8459C157.918 90.6381 158.82 87.3729 159.54 84.0652C159.555 83.989 159.541 83.91 159.499 83.8442C159.458 83.7784 159.393 83.7309 159.318 83.7114C159.243 83.692 159.163 83.7021 159.095 83.7396C159.027 83.7772 158.976 83.8393 158.953 83.9133C158.143 87.1634 157.069 90.3123 156.067 93.6131C156.05 93.7105 156.069 93.8107 156.121 93.8949C156.173 93.979 156.254 94.0413 156.349 94.0699C156.443 94.0985 156.545 94.0916 156.635 94.0503C156.725 94.0091 156.797 93.9364 156.837 93.8459ZM152.726 107.221C153.293 107.221 153.192 106.533 154.801 100.508C154.823 100.436 154.815 100.358 154.779 100.291C154.743 100.225 154.682 100.175 154.609 100.154C154.537 100.132 154.458 100.141 154.392 100.177C154.326 100.213 154.276 100.274 154.255 100.346C153.941 101.359 152.564 105.621 152.311 106.695C152.295 106.757 152.294 106.823 152.308 106.886C152.322 106.949 152.35 107.008 152.39 107.059C152.43 107.11 152.481 107.151 152.539 107.179C152.597 107.207 152.661 107.221 152.726 107.221ZM148.129 120.384C148.483 120.384 148.463 120.12 148.757 118.946C149.152 117.346 149.769 114.896 150.012 114.207C150.164 113.802 149.547 113.62 149.395 114.005C148.712 115.988 148.174 118.019 147.785 120.08C147.792 120.165 147.832 120.244 147.896 120.3C147.96 120.357 148.044 120.386 148.129 120.384ZM144.788 129C143.855 130.807 143.135 132.717 142.641 134.69C142.614 134.792 142.629 134.901 142.682 134.992C142.736 135.083 142.823 135.149 142.925 135.176C143.027 135.203 143.135 135.188 143.226 135.135C143.318 135.082 143.384 134.995 143.411 134.893C145.102 129.152 145.648 129.101 145.152 128.818C145.117 128.804 145.078 128.797 145.04 128.799C145.001 128.8 144.964 128.81 144.929 128.827C144.895 128.844 144.864 128.869 144.84 128.899C144.816 128.928 144.798 128.963 144.788 129ZM134.207 99.5666C134.308 100.356 134.673 103.617 134.794 104.518C134.802 104.574 134.82 104.627 134.848 104.676C134.876 104.725 134.914 104.768 134.958 104.802C135.003 104.836 135.054 104.862 135.108 104.876C135.163 104.891 135.219 104.895 135.275 104.887C135.331 104.88 135.385 104.862 135.434 104.834C135.483 104.805 135.525 104.768 135.56 104.723C135.594 104.679 135.619 104.628 135.634 104.573C135.648 104.519 135.652 104.462 135.645 104.406C135.513 103.536 134.946 100.265 134.825 99.4856C134.764 99.1211 134.157 99.1919 134.207 99.5666ZM135.797 114.055C135.908 114.693 136.323 117.447 136.455 118.176C136.556 118.723 137.366 118.521 137.265 117.984C137.022 116.637 136.698 115.281 136.445 113.934C136.364 113.478 135.726 113.64 135.797 114.055ZM137.437 128.139C137.482 129.839 137.665 131.532 137.984 133.202C138.105 133.759 138.936 133.536 138.834 132.989C138.488 131.38 138.225 129.755 138.045 128.119C137.953 127.744 137.366 127.734 137.437 128.139ZM111.112 43.8791C110.92 43.5146 110.383 43.8183 110.555 44.1828C113.846 50.9362 113.593 50.9969 114.069 50.9969C114.147 50.9962 114.224 50.9757 114.292 50.9372C114.361 50.8988 114.418 50.8436 114.46 50.777C114.501 50.7103 114.525 50.6343 114.529 50.5559C114.533 50.4775 114.518 50.3994 114.484 50.3287C113.37 48.1518 112.195 46.0357 111.112 43.8791ZM117.39 57.0821C117.238 56.7378 116.721 57.0112 116.873 57.3554C117.886 59.6133 118.726 61.9319 119.759 64.1999C119.982 64.7062 120.721 64.3012 120.498 63.8051C119.495 61.4763 118.311 59.1374 117.39 57.0821ZM126.3 77.7067C126.361 77.71 126.422 77.6983 126.478 77.6724C126.533 77.6465 126.582 77.6074 126.619 77.5584C126.656 77.5094 126.68 77.452 126.69 77.3914C126.7 77.3307 126.694 77.2686 126.674 77.2106C126.32 76.1981 124.568 72.4822 124.123 71.4798C123.94 71.0647 123.333 71.3887 123.505 71.8038C125.915 77.3321 125.874 77.7067 126.3 77.7067ZM144.747 74.0313C144.373 74.6692 142.651 77.0081 142.186 77.6054C142.151 77.65 142.126 77.7009 142.111 77.7553C142.096 77.8097 142.092 77.8664 142.099 77.9224C142.106 77.9783 142.124 78.0323 142.152 78.0813C142.18 78.1303 142.217 78.1733 142.262 78.2079C142.306 78.2424 142.357 78.2679 142.411 78.2828C142.466 78.2977 142.523 78.3017 142.579 78.2947C142.634 78.2876 142.688 78.2696 142.737 78.2417C142.786 78.2138 142.829 78.1765 142.864 78.1319C143.736 76.9159 144.527 75.6442 145.233 74.3249C145.272 74.2605 145.284 74.1832 145.266 74.1101C145.248 74.037 145.202 73.9741 145.137 73.9351C145.073 73.8962 144.995 73.8844 144.922 73.9025C144.849 73.9205 144.786 73.9669 144.747 74.0313ZM127.059 35.8398C127.474 35.8398 127.697 35.2121 127.261 35.0197C126.34 34.6046 122.462 33.3187 121.5 32.9947C121.105 32.8428 120.903 33.4503 121.298 33.6022C122.32 33.9667 126.725 35.8398 127.059 35.8398ZM130.572 37.3586C132.39 38.3474 134.299 39.1578 136.273 39.7784C136.386 39.798 136.502 39.7749 136.6 39.7136C136.697 39.6524 136.768 39.5573 136.8 39.4467C136.831 39.3361 136.821 39.2178 136.77 39.1145C136.719 39.0113 136.632 38.9304 136.526 38.8874C134.588 38.3614 132.703 37.6563 130.896 36.7814C130.511 36.6093 130.188 37.1966 130.572 37.3586ZM82.2456 36.7511C86.2956 34.0274 87.5106 34.6451 87.3081 33.9262C87.2965 33.8848 87.2767 33.8461 87.25 33.8124C87.2232 33.7787 87.19 33.7506 87.1523 33.7299C87.1146 33.7092 87.0732 33.6961 87.0304 33.6916C86.9876 33.687 86.9443 33.6911 86.9031 33.7034C85.0751 34.1842 83.3354 34.9532 81.7495 35.9816C81.2838 36.3461 81.7495 37.0751 82.2456 36.7511ZM73.042 40.1632C72.7281 40.4163 72.9813 40.8314 73.3356 40.8314C73.4571 40.8314 73.4774 40.8314 74.5911 40.2746C75.7049 39.7177 76.9806 39.1203 77.4565 38.9786C77.5364 38.9471 77.6017 38.8869 77.6395 38.8097C77.6773 38.7326 77.6849 38.6441 77.6608 38.5617C77.6367 38.4792 77.5826 38.4088 77.5092 38.3641C77.4359 38.3195 77.3484 38.3039 77.2641 38.3204C75.7989 38.7926 74.3845 39.4099 73.042 40.1632Z" fill="white"/>
<path d="M69.1331 42.0768C68.6066 42.3705 65.7007 43.8993 65.3868 44.1018C65.3222 44.1468 65.273 44.2105 65.2458 44.2843C65.2185 44.3581 65.2146 44.4385 65.2344 44.5147C65.2543 44.5908 65.297 44.659 65.3568 44.7101C65.4167 44.7612 65.4907 44.7928 65.5691 44.8005C66.9142 44.1651 68.2194 43.4482 69.4773 42.654C69.5342 42.6002 69.5711 42.5286 69.5818 42.4511C69.5926 42.3736 69.5766 42.2947 69.5365 42.2274C69.4964 42.1602 69.4346 42.1086 69.3612 42.0813C69.2879 42.0539 69.2074 42.0523 69.1331 42.0768ZM60.4863 25.8971C61.8452 25.9062 63.1919 25.6401 64.4451 25.1147C65.6983 24.5893 66.8322 23.8156 67.7783 22.8401C68.7244 21.8647 69.4632 20.7077 69.9501 19.439C70.437 18.1703 70.6619 16.8162 70.6113 15.4582C70.3076 6.41659 58.5929 2.10334 52.6698 9.79834C47.3238 16.491 52.4673 25.8971 60.4863 25.8971ZM54.4113 9.00859C60.6179 3.28797 69.7304 7.99609 69.9633 15.4987C69.9447 17.4029 69.3957 19.2643 68.3781 20.8739C67.3605 22.4835 65.9144 23.7777 64.2022 24.6112C58.5423 27.0817 51.7282 22.8393 51.2422 16.8656C51.1255 15.3999 51.351 13.9272 51.901 12.5637C52.451 11.2001 53.3104 9.9831 54.4113 9.00859ZM83.0043 17.3212C84.7964 17.5136 86.5987 17.5338 88.3908 17.6148C88.4714 17.6148 88.5486 17.5828 88.6056 17.5259C88.6626 17.4689 88.6946 17.3917 88.6946 17.3111C88.6946 17.2305 88.6626 17.1533 88.6056 17.0963C88.5486 17.0393 88.4714 17.0073 88.3908 17.0073C86.5076 16.8352 85.3533 16.6023 83.0043 16.4505C82.4677 16.4201 82.4576 17.2605 83.0043 17.3212ZM72.3933 16.248C73.2134 16.3391 76.5851 16.572 77.4558 16.6833C77.9114 16.7542 78.0937 16.0657 77.6178 15.9847C75.904 15.7157 74.1768 15.5399 72.4439 15.4582C72.3921 15.4549 72.3401 15.4618 72.2909 15.4786C72.2417 15.4954 72.1963 15.5217 72.1573 15.556C72.1183 15.5903 72.0864 15.632 72.0635 15.6786C72.0406 15.7252 72.0271 15.7759 72.0237 15.8278C72.0204 15.8796 72.0274 15.9316 72.0441 15.9808C72.0609 16.03 72.0872 16.0754 72.1215 16.1144C72.1558 16.1534 72.1975 16.1853 72.2441 16.2082C72.2908 16.2311 72.3415 16.2446 72.3933 16.248ZM32.1363 91.1628C32.4299 89.2998 32.5008 87.447 32.7236 85.5941C32.7742 85.2498 32.2072 85.1688 32.1566 85.5232C31.8731 87.3457 31.4377 89.1783 31.2251 91.0312C31.2261 91.1425 31.2668 91.2497 31.3401 91.3335C31.4133 91.4173 31.5141 91.4721 31.6242 91.488C31.7343 91.5039 31.8465 91.4799 31.9405 91.4202C32.0344 91.3606 32.1039 91.2693 32.1363 91.1628ZM31.0428 96.1747C30.0303 101.733 29.7974 102.412 30.5264 102.412C31.0732 102.412 30.9719 102.047 31.6604 96.2557C31.7111 95.8811 31.1238 95.8001 31.0428 96.1747ZM49.6627 105.429C48.1237 106.239 46.2101 107.181 45.6127 107.535C45.5297 107.584 45.4653 107.659 45.4297 107.749C45.3941 107.838 45.3892 107.937 45.4158 108.03C45.4425 108.123 45.4991 108.204 45.5769 108.261C45.6547 108.318 45.7492 108.347 45.8456 108.345C47.2574 107.645 48.6298 106.867 49.9563 106.016C50.0182 105.969 50.0617 105.902 50.0793 105.826C50.0969 105.75 50.0875 105.671 50.0527 105.601C50.0179 105.531 49.9599 105.476 49.8887 105.445C49.8175 105.413 49.7376 105.408 49.6627 105.429ZM43.7396 108.547C42.6342 109.066 41.5561 109.64 40.5097 110.269C40.1857 110.562 40.5704 111.048 40.9552 110.866C41.3399 110.684 43.4966 109.347 43.9927 109.114C44.4888 108.882 44.1142 108.385 43.7396 108.547ZM84.5129 116.982C84.8774 117.214 85.2217 116.658 84.8673 116.415C84.0978 115.908 81.1717 113.742 80.3617 113.316C80.2569 113.266 80.1372 113.255 80.0253 113.287C79.9133 113.319 79.8169 113.39 79.7542 113.488C79.3391 114.136 80.7363 114.501 84.5129 116.982ZM70.4898 107.626C70.9961 107.98 71.5023 108.315 72.0187 108.639C75.4713 110.927 75.3093 110.998 75.5219 110.998C75.5919 110.997 75.66 110.975 75.7177 110.935C75.7754 110.896 75.82 110.84 75.846 110.775C75.872 110.71 75.8782 110.639 75.8637 110.57C75.8493 110.502 75.8149 110.439 75.7649 110.39C74.2278 109.125 72.6222 107.945 70.9556 106.857C70.4696 106.563 70.0241 107.312 70.4898 107.626ZM170.191 141.18C168.53 141.413 166.819 141.585 165.128 141.97C165.024 142.002 164.935 142.07 164.877 142.163C164.819 142.255 164.796 142.364 164.812 142.472C164.828 142.58 164.882 142.678 164.964 142.75C165.046 142.821 165.151 142.86 165.26 142.861C165.655 142.861 168.176 142.183 170.322 141.849C170.849 141.808 170.646 141.099 170.191 141.18ZM161.24 142.821C159.539 143.074 157.666 143.226 155.823 143.539C155.307 143.631 155.449 144.38 155.955 144.38C156.461 144.38 160.086 143.651 161.372 143.448C161.787 143.377 161.645 142.76 161.24 142.821ZM99.9738 106.522C99.9228 106.437 99.8397 106.374 99.7429 106.35C99.646 106.325 99.5434 106.34 99.4574 106.391C99.3715 106.442 99.3094 106.525 99.2847 106.622C99.26 106.719 99.2748 106.821 99.3258 106.907C99.8254 107.721 100.613 108.318 101.532 108.579C102.451 108.84 103.434 108.745 104.287 108.315C104.344 108.28 104.386 108.225 104.404 108.16C104.422 108.096 104.414 108.027 104.383 107.968C104.353 107.909 104.3 107.864 104.237 107.841C104.174 107.819 104.105 107.822 104.044 107.849C103.318 108.141 102.512 108.169 101.768 107.926C101.023 107.683 100.388 107.187 99.9738 106.522ZM107.061 102.776C106.99 103.363 106.464 103.039 106.423 103.394C106.423 103.586 106.585 103.657 106.788 103.657C106.968 103.651 107.143 103.597 107.294 103.501C107.446 103.404 107.57 103.269 107.652 103.11C107.735 102.95 107.773 102.771 107.764 102.591C107.754 102.412 107.697 102.238 107.598 102.088C107.03 101.479 106.512 100.825 106.049 100.134C106.031 100.07 105.99 100.017 105.933 99.9846C105.876 99.9523 105.808 99.944 105.745 99.9615C105.682 99.9789 105.628 100.021 105.596 100.078C105.564 100.135 105.555 100.202 105.573 100.265C105.811 100.801 106.11 101.307 106.464 101.774C106.695 102.088 106.895 102.423 107.061 102.776ZM101.685 95.3647C101.658 95.2439 101.584 95.1387 101.48 95.0722C101.375 95.0057 101.249 94.9835 101.128 95.0103C101.007 95.0372 100.902 95.1109 100.836 95.2154C100.769 95.3198 100.747 95.4464 100.774 95.5672C101.057 97.491 100.885 98.3111 101.644 98.3111C101.789 98.3111 101.929 98.2535 102.031 98.151C102.134 98.0484 102.191 97.9094 102.191 97.7643C102.191 97.5112 101.766 95.79 101.685 95.3647ZM109.643 95.4558C109.622 95.3454 109.561 95.2465 109.472 95.1773C109.384 95.1082 109.273 95.0735 109.16 95.0796C109.048 95.0858 108.942 95.1324 108.861 95.2109C108.781 95.2894 108.731 95.3943 108.722 95.5065C108.722 95.6583 108.864 97.4707 108.914 97.6125C108.929 97.7467 108.996 97.8696 109.102 97.9541C109.207 98.0386 109.342 98.0778 109.476 98.063C109.61 98.0483 109.733 97.9808 109.818 97.8754C109.902 97.77 109.941 97.6354 109.927 97.5011C109.906 97.3796 109.744 96.3873 109.643 95.4558ZM100.095 94.8483C100.225 94.4179 100.495 94.0429 100.862 93.7826C101.228 93.5223 101.671 93.3914 102.12 93.4106C102.199 93.4197 102.278 93.3986 102.342 93.3517C102.406 93.3047 102.45 93.2353 102.465 93.1575C102.566 92.4285 99.8422 92.7221 99.2448 94.6155C99.2139 94.7283 99.2291 94.8487 99.287 94.9503C99.3449 95.0519 99.4408 95.1263 99.5536 95.1572C99.6664 95.188 99.7868 95.1729 99.8884 95.1149C99.99 95.057 100.064 94.9611 100.095 94.8483ZM107.669 93.0461C108.037 93.0248 108.402 93.1252 108.708 93.332C109.013 93.5388 109.243 93.8404 109.36 94.1902C109.542 94.5851 110.18 94.3218 110.058 93.8966C109.86 93.4192 109.503 93.0253 109.047 92.7816C108.591 92.538 108.065 92.4597 107.557 92.5601C107.503 92.5832 107.458 92.625 107.431 92.678C107.403 92.731 107.396 92.7918 107.409 92.8498C107.422 92.9079 107.456 92.9594 107.503 92.9952C107.551 93.0311 107.609 93.0491 107.669 93.0461ZM185.803 127.117C185.803 127.117 185.267 124.666 185.125 123.958C185.108 123.879 185.059 123.809 184.991 123.766C184.923 123.722 184.84 123.707 184.761 123.725C184.681 123.742 184.612 123.791 184.569 123.859C184.525 123.927 184.51 124.01 184.528 124.089L185.004 126.975C183.395 126.771 181.762 126.912 180.212 127.387C178.662 127.862 177.23 128.662 176.013 129.732C174.795 130.802 173.818 132.119 173.148 133.595C172.478 135.072 172.129 136.673 172.125 138.295C172.732 153.553 194.632 153.249 194.936 138.295C194.957 135.659 194.055 133.099 192.387 131.057C190.72 129.016 188.391 127.622 185.803 127.117ZM188.416 143.084C186.816 147.63 180.781 146.82 180.781 141.393V138.112C180.605 138.135 180.425 138.12 180.254 138.068C180.084 138.015 179.927 137.927 179.793 137.809C179.659 137.692 179.552 137.547 179.478 137.384C179.405 137.222 179.367 137.045 179.367 136.867C179.367 136.689 179.405 136.513 179.478 136.35C179.552 136.188 179.659 136.043 179.793 135.925C179.927 135.807 180.084 135.719 180.254 135.667C180.425 135.614 180.605 135.599 180.781 135.622C180.781 134.609 180.781 133.597 180.852 132.493C180.856 132.33 180.892 132.168 180.959 132.019C181.025 131.869 181.12 131.734 181.238 131.621C181.357 131.508 181.496 131.42 181.649 131.361C181.802 131.302 181.965 131.274 182.128 131.278C182.459 131.289 182.773 131.43 183.001 131.671C183.228 131.912 183.351 132.233 183.343 132.564C183.343 133.627 183.343 134.64 183.282 135.601H185.419C185.582 135.597 185.745 135.626 185.897 135.686C186.049 135.746 186.188 135.835 186.305 135.949C186.422 136.064 186.515 136.2 186.578 136.351C186.642 136.501 186.674 136.663 186.674 136.827C186.677 136.991 186.647 137.154 186.586 137.307C186.525 137.46 186.435 137.599 186.32 137.717C186.205 137.834 186.068 137.928 185.917 137.993C185.766 138.057 185.603 138.091 185.439 138.092H183.252C183.252 141.788 183.151 142.405 183.657 143.033C184.376 143.944 185.469 143.641 186.036 142.243C186.148 141.928 186.38 141.67 186.682 141.525C186.984 141.381 187.331 141.363 187.646 141.474C187.962 141.585 188.22 141.818 188.364 142.12C188.509 142.421 188.527 142.768 188.416 143.084ZM104.439 11.4791C102.367 11.4684 100.313 11.8685 98.3958 12.6563C96.4789 13.4441 94.7372 14.604 93.2713 16.0689C91.8055 17.5339 90.6444 19.2748 89.8554 21.1912C89.0663 23.1075 88.6649 25.1612 88.6743 27.2336C89.0894 48.0911 119.788 48.1012 120.193 27.2336C120.204 25.1617 119.804 23.1082 119.016 21.1919C118.228 19.2757 117.068 17.5346 115.603 16.0695C114.138 14.6045 112.397 13.4444 110.481 12.6565C108.564 11.8685 106.511 11.4684 104.439 11.4791ZM108.985 19.4373C108.83 19.7281 108.567 19.9463 108.252 20.0448C107.938 20.1433 107.598 20.1142 107.304 19.9638C106.782 19.6767 106.175 19.5822 105.591 19.697C105.006 19.8117 104.48 20.1284 104.105 20.5916C102.94 21.8066 102.991 25.9376 102.991 26.1603L106.029 25.6946C106.356 25.6449 106.69 25.7274 106.957 25.9239C107.224 26.1205 107.401 26.4149 107.451 26.7425C107.501 27.0701 107.418 27.4041 107.222 27.6708C107.025 27.9376 106.731 28.1154 106.403 28.1651L103.001 28.6815C103.001 31.0912 103.113 33.42 103.194 35.769C103.179 36.0838 103.047 36.3817 102.823 36.6035C102.599 36.8253 102.3 36.9548 101.985 36.9663C101.67 36.9777 101.362 36.8703 101.123 36.6654C100.884 36.4605 100.73 36.173 100.693 35.8601C100.581 32.5391 100.5 29.1675 100.46 25.563C100.46 23.538 100.46 20.8953 102.262 18.9007C105.087 15.8126 110.099 17.3617 108.985 19.4373Z" fill="white"/>
<path d="M152.402 147.721C156.543 135.692 156.34 136.401 156.269 136.3C156.198 136.199 143.107 135.956 135.837 136.097C132.938 131.75 129.149 128.069 124.721 125.295C120.293 122.522 115.326 120.72 110.15 120.009C109.363 119.145 108.277 118.613 107.112 118.52L105.847 118.085C105.796 117.097 105.796 116.106 105.847 115.118C108.688 114.036 111.009 111.91 112.337 109.175C113.825 105.834 113.086 101.561 112.215 90.6967C114.301 91.3447 114.352 89.1982 113.086 87.5175C113.143 87.1583 113.125 86.7912 113.033 86.4393C112.941 86.0874 112.777 85.7584 112.552 85.473C112.326 85.1876 112.044 84.952 111.723 84.7811C111.402 84.6102 111.049 84.5077 110.687 84.48C110.881 84.1813 110.994 83.8365 111.012 83.4804C111.031 83.1243 110.955 82.7696 110.793 82.4522C110.631 82.1347 110.388 81.8657 110.088 81.6724C109.788 81.4791 109.443 81.3684 109.087 81.3514C108.876 80.8879 108.525 80.5021 108.084 80.2479C107.643 79.9937 107.133 79.8839 106.626 79.9339C106.555 79.5933 106.393 79.278 106.159 79.0206C105.925 78.7633 105.626 78.5732 105.294 78.4699C104.961 78.3667 104.607 78.3541 104.269 78.4335C103.93 78.5129 103.618 78.6813 103.366 78.9214C103.154 78.5974 102.627 77.7975 102.354 77.4938C102.57 77.2807 102.719 77.0087 102.782 76.7117C102.845 76.4147 102.819 76.1057 102.708 75.8231C103.204 75.6679 103.638 75.3582 103.946 74.9393C104.253 74.5205 104.419 74.0142 104.419 73.4944C104.419 72.9745 104.253 72.4683 103.946 72.0494C103.638 71.6305 103.204 71.3209 102.708 71.1656C103.508 68.2496 100.774 66.4575 98.2935 67.6219C98.1594 67.2873 97.9291 67.0001 97.6317 66.7964C97.3344 66.5928 96.9833 66.4819 96.6229 66.4777C98.6479 63.9262 95.7623 62.1442 93.0184 63.015C92.838 62.5521 92.5349 62.1472 92.1416 61.8436C91.7484 61.5401 91.2798 61.3495 90.7864 61.2922C90.2929 61.235 89.7932 61.3132 89.3408 61.5187C88.8885 61.7241 88.5007 62.0489 88.2191 62.4581C87.5548 62.2837 86.8484 62.3768 86.252 62.7176C85.6556 63.0584 85.2168 63.6197 85.0298 64.2806C84.6047 64.1805 84.1626 64.1757 83.7355 64.2667C83.3083 64.3578 82.9066 64.5423 82.5593 64.8071C82.3276 64.4066 81.9579 64.1041 81.5193 63.9564C81.0808 63.8087 80.6035 63.8257 80.1766 64.0044C79.7497 64.1831 79.4026 64.5112 79.2001 64.9272C78.9975 65.3433 78.9535 65.8189 79.0763 66.2651C78.7961 66.3433 78.5476 66.5076 78.3659 66.7347C78.1842 66.9618 78.0785 67.2403 78.0638 67.5307C77.9524 67.512 77.8383 67.5171 77.7291 67.5456C77.6198 67.5742 77.5178 67.6255 77.4298 67.6963C77.3418 67.7671 77.2698 67.8557 77.2185 67.9563C77.1673 68.0569 77.1379 68.1672 77.1323 68.28C76.8686 68.2131 76.5911 68.2246 76.3339 68.3132C76.0767 68.4017 75.8509 68.5634 75.6843 68.7784C75.5176 68.9934 75.4174 69.2524 75.3958 69.5236C75.3743 69.7948 75.4323 70.0663 75.5629 70.305C75.2331 70.3791 74.9324 70.5487 74.6983 70.7926C74.4642 71.0365 74.3072 71.3439 74.2467 71.6765C74.1862 72.0091 74.225 72.3521 74.3583 72.6628C74.4915 72.9735 74.7133 73.238 74.9959 73.4235C73.3961 73.8892 72.3634 75.4485 72.9709 76.866C71.1484 77.9696 70.3991 80.2073 71.685 81.7665C71.4537 82.4101 71.4637 83.1158 71.7132 83.7526C71.9627 84.3895 72.4348 84.9141 73.0418 85.2292C72.777 85.5548 72.6086 85.9479 72.5557 86.3641C72.5028 86.7804 72.5674 87.2031 72.7423 87.5846C72.9172 87.966 73.1954 88.2908 73.5454 88.5223C73.8953 88.7538 74.3031 88.8827 74.7225 88.8945C74.7534 89.2613 74.8786 89.6138 75.0858 89.918C75.2931 90.2222 75.5754 90.4677 75.9054 90.6307C76.2354 90.7936 76.602 90.8686 76.9695 90.8482C77.337 90.8279 77.693 90.7129 78.003 90.5145C78.168 90.7776 78.4064 90.9867 78.6889 91.1159C78.9714 91.245 79.2855 91.2886 79.5924 91.2412C79.8994 91.1938 80.1857 91.0575 80.4161 90.8492C80.6464 90.6409 80.8107 90.3696 80.8886 90.069C81.3842 90.2554 81.9161 90.3249 82.4429 90.2722C82.9697 90.2195 83.4773 90.0461 83.9262 89.7653C83.511 92.2864 81.5974 92.4686 82.1948 95.1113C81.842 95.5753 81.6468 96.14 81.6377 96.7229C81.6286 97.3058 81.806 97.8764 82.1441 98.3512C82.0293 98.5954 81.9644 98.86 81.9533 99.1296C81.9422 99.3992 81.985 99.6683 82.0793 99.9211C82.1737 100.174 82.3176 100.405 82.5026 100.602C82.6876 100.798 82.9099 100.956 83.1566 101.065C83.0619 101.251 83.017 101.458 83.0265 101.667C83.036 101.875 83.0995 102.078 83.2107 102.254C83.322 102.431 83.4772 102.575 83.6612 102.674C83.8452 102.773 84.0516 102.822 84.2603 102.816C84.4594 103.561 84.8416 104.244 85.3721 104.802C85.9027 105.361 86.5647 105.778 87.2978 106.016C87.399 118.743 87.8648 117.214 86.6498 118.692C85.5307 119.28 84.6137 120.19 84.0173 121.305C66.258 127.471 59.0895 141.555 56.7405 160.458C55.3838 160.245 55.323 160.195 55.2724 160.367C54.7258 162.494 54.5343 164.697 54.7054 166.887C54.7054 167.019 54.7054 167.009 56.3254 167.404C56.781 175.21 61.0031 183.675 69.4879 185.163C69.3765 186.803 69.2449 196.199 69.4879 198.326C69.4987 198.375 69.5262 198.42 69.5658 198.452C69.6054 198.484 69.6547 198.501 69.7056 198.501C69.7565 198.501 69.8058 198.484 69.8454 198.452C69.885 198.42 69.9125 198.375 69.9233 198.326C69.9233 197.191 70.065 187.006 70.1562 185.315C75.3098 185.821 78.327 183.665 82.3871 179.24C88.7659 172.152 92.3805 164.508 96.147 156.489C96.8086 155.194 97.341 153.838 97.7366 152.439C98.3308 152.679 98.9857 152.725 99.6077 152.571C100.23 152.416 100.787 152.069 101.199 151.578C102.65 152.047 104.19 152.164 105.695 151.923C105.949 151.875 106.191 151.776 106.406 151.631C106.62 151.486 106.803 151.299 106.941 151.08C107.08 150.862 107.172 150.617 107.212 150.361C107.252 150.105 107.239 149.844 107.173 149.594C108.469 149.533 109.279 148.359 107.983 147.377C107.571 147.059 107.134 146.775 106.677 146.526C107.75 146.455 110.585 146.141 111.507 145.514C112.428 144.886 112.398 143.316 111.122 143.144C110.585 143.073 102.698 143.397 100.906 143.65C99.1324 143.838 97.4532 144.542 96.0761 145.675C94.0511 147.346 79.7344 159.243 74.6213 163.536C71.6546 162.999 60.5374 161.096 57.5809 160.63C60.0311 140.208 68.3539 127.997 83.7439 122.246C82.8023 126.094 87.3585 130.042 88.8064 131.217C91.1858 133.171 95.0738 135.267 98.4049 134.356C100.521 133.789 102.101 132.159 103.113 129.496C107.609 133.394 109.725 132.958 110.433 132.594C113.157 131.166 113.046 124.221 110.778 120.879C115.637 121.632 120.289 123.379 124.442 126.011C128.596 128.644 132.161 132.105 134.916 136.178C130.268 136.28 130.552 136.28 130.511 136.401C129.413 139.363 128.347 142.337 127.312 145.321C126.907 142.8 126.299 139.368 126.036 138.375C126.014 138.321 125.972 138.277 125.92 138.251C125.867 138.225 125.807 138.219 125.75 138.233C125.694 138.248 125.644 138.283 125.611 138.332C125.578 138.38 125.563 138.439 125.57 138.497C125.864 139.732 126.471 144.42 126.806 146.789C122.695 158.686 119.475 169.409 119.556 169.52C119.637 169.631 129.681 169.631 130.977 169.611C131.99 178.076 132.759 195.723 132.729 197.819C132.729 197.878 132.752 197.935 132.794 197.977C132.836 198.019 132.892 198.042 132.951 198.042C133.01 198.042 133.067 198.019 133.109 197.977C133.151 197.935 133.174 197.878 133.174 197.819C133.356 194.093 133.174 182.895 133.002 180.475C135.396 180.078 137.591 178.895 139.239 177.114C140.474 175.848 142.277 172.102 143.522 169.085C145.486 168.953 145.547 168.983 145.547 168.852C146.701 166.169 147.845 163.01 148.807 159.932C153.586 159.213 156.006 152.51 154.072 149.472C153.638 148.782 153.07 148.187 152.402 147.721ZM69.8524 169.246C70.5004 169.135 69.7815 168.234 94.2233 148.146C98.2733 144.835 98.5872 144.521 103.498 144.187C105.32 144.066 110.049 143.894 110.585 143.883C111 143.883 111.365 143.883 111.335 144.258C111.335 144.906 110.322 145.098 109.623 145.271C107.528 145.778 105.381 146.043 103.224 146.06C103.16 146.06 103.098 146.086 103.053 146.131C103.007 146.177 102.981 146.239 102.981 146.303C102.981 146.368 103.007 146.43 103.053 146.475C103.098 146.521 103.16 146.546 103.224 146.546H105.33C105.976 146.859 106.593 147.228 107.173 147.65C107.416 147.822 107.852 147.984 107.882 148.217C108.044 149.564 104.642 148.318 103.447 147.741C103.406 147.72 103.357 147.715 103.312 147.73C103.268 147.744 103.231 147.775 103.209 147.817C103.188 147.859 103.184 147.907 103.198 147.952C103.212 147.996 103.244 148.033 103.285 148.055C104.146 148.592 107.123 149.634 106.434 150.647C105.553 151.923 103.245 151.376 101.716 151.072C102.035 150.814 102.419 150.648 102.826 150.593C103.233 150.537 103.648 150.595 104.024 150.758C104.076 150.771 104.13 150.765 104.178 150.742C104.225 150.718 104.263 150.678 104.283 150.629C104.304 150.58 104.307 150.526 104.291 150.475C104.275 150.425 104.241 150.381 104.196 150.353C103.574 150.092 102.886 150.03 102.228 150.177C101.569 150.324 100.973 150.672 100.521 151.173C99.3161 152.328 97.8176 152.054 96.6533 150.88C96.6117 150.843 96.5583 150.822 96.5027 150.821C96.4472 150.82 96.3931 150.839 96.3503 150.875C96.3076 150.91 96.2789 150.96 96.2694 151.015C96.26 151.069 96.2704 151.126 96.2989 151.173C96.5318 151.531 96.8349 151.838 97.1899 152.075C95.386 156.511 93.3584 160.854 91.1149 165.085C87.0649 172.679 82.9541 178.045 78.3371 181.953C73.3354 186.257 65.9846 184.677 61.7625 179.756C59.2313 176.83 57.6416 172.73 57.0544 167.606C59.1604 167.971 67.5743 169.176 69.8524 169.246ZM87.4091 84.7837C86.5356 85.3973 85.8601 86.2524 85.4651 87.2441C85.0699 86.8953 84.7643 86.4566 84.574 85.965C84.3837 85.4734 84.3143 84.9433 84.3716 84.4193C85.2728 80.3693 89.4341 76.8255 92.8868 75.7826C95.013 74.922 100.42 75.8839 102.161 78.486C101.593 78.4344 101.026 78.5969 100.572 78.9416C100.299 78.5873 99.9503 78.2992 99.5509 78.0986C99.1515 77.8981 98.7119 77.7904 98.2651 77.7836C97.8182 77.7768 97.3756 77.871 96.9703 78.0593C96.5649 78.2475 96.2074 78.5249 95.9243 78.8708C95.3703 79.0322 94.8702 79.34 94.4764 79.7617C94.1038 79.5622 93.681 79.4761 93.26 79.5139C92.839 79.5516 92.4383 79.7117 92.1071 79.9744C91.7545 80.0701 91.4445 80.2822 91.2276 80.5763C91.0107 80.8704 90.8996 81.2292 90.9124 81.5944C90.468 81.5504 90.0192 81.6003 89.5953 81.7408C89.1713 81.8812 88.7816 82.1092 88.4514 82.4099C88.1211 82.7105 87.8577 83.0772 87.6782 83.4861C87.4986 83.8951 87.407 84.3371 87.4091 84.7837ZM106.556 126.853C101.827 131.754 87.6218 126.043 86.7004 121.487C86.6275 120.997 86.6711 120.497 86.8277 120.027C86.9842 119.558 87.2494 119.132 87.6015 118.784C87.7028 118.682 87.7737 118.571 87.8749 118.47C87.8867 118.44 87.8867 118.408 87.8749 118.378L88.0673 118.135C88.3204 117.66 88.0065 107.585 87.9559 106.137C88.3369 106.142 88.7098 106.027 89.0209 105.806C89.332 105.586 89.5653 105.273 89.6873 104.912C89.9029 105.03 90.1485 105.081 90.393 105.059C90.6376 105.037 90.8702 104.943 91.0617 104.79C91.2532 104.636 91.3951 104.429 91.4694 104.195C91.5437 103.961 91.5472 103.71 91.4794 103.475L93.9701 100.802C93.9667 101.134 94.0585 101.46 94.2346 101.742C94.4107 102.024 94.6639 102.25 94.9641 102.392C95.2644 102.535 95.5992 102.589 95.929 102.547C96.2588 102.506 96.5699 102.371 96.8254 102.158C97.0871 101.968 97.3036 101.722 97.4593 101.439C97.6151 101.155 97.7063 100.841 97.7265 100.518C97.7305 100.483 97.7222 100.448 97.7032 100.419C97.6841 100.389 97.6555 100.367 97.6221 100.356C97.5887 100.346 97.5526 100.347 97.52 100.36C97.4873 100.372 97.4601 100.396 97.443 100.427C97.2747 100.679 97.0257 100.866 96.7369 100.958C96.448 101.05 96.1365 101.042 95.8534 100.933C95.9525 100.513 95.933 100.074 95.7971 99.6648C95.6612 99.2554 95.4143 98.8918 95.0839 98.6145C93.5651 93.7545 93.7069 91.8307 96.4305 90.0082C98.4555 88.4794 105.543 85.0774 110.312 89.421C110.64 89.8016 111.03 90.1235 111.466 90.3727C112.701 107.19 113.491 107.413 108.874 112.293C107.46 113.727 105.576 114.604 103.569 114.764C103.214 114.764 103.174 115.28 103.569 115.321C104.083 115.391 104.604 115.391 105.118 115.321C105.118 118.753 104.966 118.49 105.948 118.834C109.299 120.383 109.006 124.291 106.556 126.853ZM136.333 178.308C135.27 178.898 134.132 179.344 132.951 179.635C132.8 177.934 132.182 172.547 131.777 169.51C135.462 169.429 139.168 169.277 142.702 169.054C141.224 172.74 138.986 177.012 136.333 178.308ZM143.026 144.896C140.798 144.835 140.798 142.081 143.026 142.02C145.253 141.96 145.253 144.886 143.026 144.947V144.896ZM134.004 139.682C133.532 139.964 133.149 140.375 132.901 140.866C132.597 141.443 123.9 165.105 123.485 166.452C123.463 166.525 123.414 166.585 123.347 166.622C123.281 166.658 123.203 166.666 123.13 166.644C123.058 166.623 122.997 166.573 122.961 166.507C122.924 166.441 122.916 166.363 122.938 166.29C123.454 164.376 130.957 142.891 131.038 142.76C132.83 138.284 133.529 138.355 136.951 138.244C138.52 138.193 149.941 138.143 151.592 138.416C151.956 138.477 151.875 138.993 151.592 139.023C150.69 139.135 134.713 139.378 134.004 139.732V139.682ZM149.111 158.919C149.496 157.623 149.85 156.357 150.123 155.152C150.574 155.335 151.042 155.47 151.521 155.558C151.573 155.57 151.628 155.56 151.674 155.532C151.719 155.503 151.752 155.458 151.764 155.406C151.776 155.353 151.767 155.298 151.738 155.253C151.71 155.207 151.664 155.175 151.612 155.163C150.508 154.731 149.482 154.122 148.574 153.36C147.957 152.662 147.673 152.145 148.392 151.639C149.769 152.723 151.561 153.664 152.219 154.14C152.261 154.161 152.309 154.166 152.354 154.156C152.4 154.145 152.441 154.119 152.469 154.082C152.498 154.045 152.513 154 152.511 153.953C152.51 153.906 152.493 153.861 152.462 153.826C151.723 153.158 149.222 151.477 147.916 150.171C147.895 149.964 147.939 149.757 148.04 149.575C148.142 149.394 148.296 149.249 148.483 149.158C149.658 150.183 150.941 151.076 152.31 151.821C152.355 151.848 152.408 151.857 152.459 151.846C152.51 151.835 152.555 151.804 152.584 151.761C152.736 151.568 152.584 151.497 151.571 150.657C150.812 150.029 149.749 149.148 148.969 148.379C147.866 147.366 149.982 147.549 151.916 148.379C152.589 148.764 153.138 149.333 153.497 150.021C153.856 150.708 154.01 151.484 153.941 152.257C153.789 155.183 151.986 158.22 149.111 159.02V158.919ZM66.1365 13.1089C65.7299 13.1682 65.3152 13.086 64.962 12.876C64.7288 12.2829 64.3338 11.7672 63.8218 11.3877C63.3098 11.0082 62.7015 10.7801 62.0663 10.7295C60.5171 10.8307 60.2134 13.0177 59.0288 13.1797C58.32 13.281 57.4493 12.552 56.4368 11.0332C56.4243 11.0076 56.4049 10.9859 56.3807 10.9708C56.3566 10.9556 56.3286 10.9476 56.3001 10.9476C56.2716 10.9476 56.2436 10.9556 56.2194 10.9708C56.1952 10.9859 56.1758 11.0076 56.1634 11.0332C56.0517 11.4133 56.0183 11.8121 56.0653 12.2054C56.1123 12.5987 56.2387 12.9784 56.4368 13.3215C56.2727 13.3139 56.1174 13.2453 56.0014 13.1291C55.6571 12.795 55.485 14.0302 56.3153 14.8807C56.0604 14.8672 55.8116 14.798 55.5863 14.6782C55.08 14.2834 55.2926 16.3691 56.9531 17.3209C56.4835 17.2912 56.0246 17.1674 55.6037 16.957C55.1828 16.7465 54.8085 16.4536 54.5029 16.0957C54.483 16.0681 54.4544 16.048 54.4216 16.0386C54.3889 16.0292 54.3539 16.0311 54.3224 16.0439C54.2909 16.0568 54.2646 16.0799 54.2477 16.1094C54.2309 16.139 54.2245 16.1734 54.2295 16.2071C54.4095 17.7092 55.1038 19.1028 56.1945 20.1511C57.2853 21.1994 58.7053 21.8379 60.2134 21.9581C63.5648 21.9581 65.6809 18.3536 64.9013 15.5895C65.099 15.5273 65.311 15.5273 65.5088 15.5895C65.538 15.6114 65.5742 15.6221 65.6107 15.6195C65.6471 15.6169 65.6814 15.6012 65.7073 15.5754C65.7331 15.5495 65.7488 15.5152 65.7514 15.4788C65.754 15.4423 65.7433 15.4061 65.7214 15.3769C65.6179 15.2117 65.5487 15.0274 65.5182 14.8349C65.4876 14.6424 65.4962 14.4457 65.5435 14.2566C65.5907 14.0675 65.6757 13.8899 65.7933 13.7344C65.9108 13.579 66.0586 13.4489 66.2276 13.3519C66.2437 13.3314 66.2543 13.3071 66.2583 13.2813C66.2623 13.2555 66.2595 13.2292 66.2504 13.2048C66.2412 13.1803 66.226 13.1587 66.206 13.1419C66.1861 13.1251 66.1621 13.1137 66.1365 13.1089ZM63.018 13.8885C62.8175 13.8661 62.6323 13.7706 62.4978 13.6202C62.3633 13.4699 62.2889 13.2752 62.2889 13.0734C62.2889 12.8717 62.3633 12.677 62.4978 12.5266C62.6323 12.3763 62.8175 12.2808 63.018 12.2584C63.2185 12.2808 63.4038 12.3763 63.5383 12.5266C63.6728 12.677 63.7472 12.8717 63.7472 13.0734C63.7472 13.2752 63.6728 13.4699 63.5383 13.6202C63.4038 13.7706 63.2185 13.8661 63.018 13.8885ZM35.7514 114.845C32.4525 114.661 29.1434 114.827 25.8795 115.341C25.8455 115.346 25.8145 115.363 25.7921 115.389C25.7698 115.415 25.7577 115.448 25.758 115.483C25.7497 117.245 25.9883 119.001 26.4668 120.697C26.4765 120.725 26.4941 120.749 26.5175 120.767C26.5409 120.785 26.569 120.796 26.5984 120.798C29.5282 121.031 32.4744 120.95 35.3869 120.555C35.964 120.474 36.3791 114.885 35.7514 114.845ZM33.0278 118.156C32.9608 118.486 32.798 118.789 32.5597 119.026C32.3214 119.264 32.0183 119.427 31.6882 119.493C31.3581 119.559 31.0158 119.527 30.7041 119.4C30.3924 119.272 30.1252 119.056 29.9359 118.778C29.7465 118.499 29.6436 118.171 29.6398 117.834C29.6361 117.498 29.7317 117.167 29.9148 116.885C30.0979 116.602 30.3602 116.38 30.669 116.246C30.9778 116.112 31.3193 116.072 31.6508 116.131C31.8754 116.171 32.0898 116.255 32.2813 116.379C32.4728 116.503 32.6375 116.665 32.7658 116.853C32.8941 117.042 32.9834 117.254 33.0284 117.478C33.0734 117.702 33.0732 117.932 33.0278 118.156ZM33.615 113.68C33.7919 113.713 33.9734 113.711 34.1492 113.673C34.3251 113.635 34.4918 113.564 34.6399 113.461C34.788 113.359 34.9145 113.229 35.0123 113.078C35.11 112.927 35.1771 112.759 35.2097 112.582C35.2423 112.405 35.2397 112.224 35.2021 112.048C35.1646 111.872 35.0927 111.705 34.9907 111.557C34.8887 111.409 34.7585 111.282 34.6076 111.185C34.4567 111.087 34.288 111.02 34.1111 110.987C33.754 110.921 33.3853 111 33.0863 111.206C32.7872 111.412 32.5822 111.729 32.5165 112.086C32.4507 112.443 32.5294 112.812 32.7355 113.111C32.9415 113.41 33.2579 113.615 33.615 113.68Z" fill="white"/>
<path d="M38.962 110.339C33.8995 103.009 22.3773 105.601 20.98 114.217C20.6972 115.661 20.7424 117.149 21.1124 118.572C21.4823 119.996 22.1676 121.318 23.1173 122.44C24.0671 123.563 25.2572 124.458 26.5995 125.059C27.9418 125.66 29.402 125.951 30.8721 125.912C39.2961 125.912 43.2753 116.617 38.962 110.339ZM36.8358 121.477C36.8296 121.506 36.8146 121.532 36.7929 121.552C36.7711 121.572 36.7436 121.585 36.7143 121.588C32.9525 122.093 29.148 122.198 25.3641 121.902C25.3339 121.898 25.3056 121.885 25.2823 121.865C25.259 121.846 25.2417 121.82 25.2325 121.791C24.2268 118.065 24.0403 114.165 24.6858 110.36C24.6904 110.327 24.706 110.298 24.73 110.276C24.7539 110.253 24.7848 110.24 24.8174 110.238C28.8906 109.771 33.0064 109.815 37.0686 110.37C37.0988 110.375 37.1265 110.39 37.1482 110.412C37.1699 110.433 37.1845 110.461 37.1901 110.491C37.8243 114.142 37.7037 117.885 36.8358 121.487V121.477Z" fill="white"/>
</svg>
