<svg width="113" height="43" viewBox="0 0 113 43" fill="none" xmlns="http://www.w3.org/2000/svg">
<g clip-path="url(#clip0_2184_5266)">
<path fill-rule="evenodd" clip-rule="evenodd" d="M108.671 28.903C108.738 29.6667 109.349 30.6388 110.408 30.6388H111.027C111.267 30.6388 111.464 30.4421 111.464 30.2018V16.5831H111.461C111.449 16.3537 111.259 16.1699 111.027 16.1699H109.108C108.876 16.1699 108.686 16.3537 108.674 16.5831H108.671V17.6897C107.496 16.2406 105.642 15.6391 103.784 15.6391C99.5587 15.6391 96.1339 19.0667 96.1339 23.295C96.1339 27.5236 99.5587 30.9512 103.784 30.9512C105.642 30.9512 107.668 30.2299 108.671 28.9013V28.903ZM103.791 28.2718C101.104 28.2718 98.9257 26.0438 98.9257 23.295C98.9257 20.5467 101.104 18.3187 103.791 18.3187C106.478 18.3187 108.656 20.5467 108.656 23.295C108.656 26.0438 106.478 28.2718 103.791 28.2718Z" fill="#909090"/>
<path fill-rule="evenodd" clip-rule="evenodd" d="M93.7073 22.3242C93.7073 18.3518 91.2034 15.6719 87.2102 15.6719C85.304 15.6719 83.7414 16.7751 83.1894 17.7227C83.0702 16.9817 82.6771 16.2029 81.4582 16.2029H80.8369C80.5966 16.2029 80.4003 16.3998 80.4003 16.64V28.937C80.4003 28.9374 80.4003 28.9383 80.4003 28.9389V30.2599H80.4027C80.4153 30.4889 80.605 30.6729 80.8371 30.6729H82.7559C82.7852 30.6729 82.8141 30.6694 82.8419 30.664C82.8546 30.6615 82.8664 30.6565 82.8788 30.653C82.893 30.6486 82.9079 30.6452 82.9215 30.6396C82.9385 30.6326 82.954 30.6231 82.9699 30.6142C82.9777 30.6094 82.9858 30.6061 82.9933 30.6011C83.0125 30.5887 83.0301 30.5739 83.047 30.5587C83.0498 30.5559 83.0531 30.554 83.0559 30.5514C83.075 30.533 83.0924 30.5126 83.1078 30.4914C83.1558 30.4255 83.1852 30.3456 83.19 30.2599H83.1925V22.2149C83.1925 20.0815 84.9208 18.3518 87.0528 18.3518C89.1847 18.3518 90.9131 20.0815 90.9131 22.2149L90.9148 28.9394L90.9153 28.937C90.9153 28.943 90.9162 28.9491 90.9162 28.9555V30.2599H90.9188C90.9315 30.4889 91.121 30.6729 91.353 30.6729H93.2719C93.3014 30.6729 93.3301 30.6694 93.3578 30.664C93.3692 30.6619 93.3797 30.6573 93.3909 30.6542C93.4065 30.6496 93.4227 30.6457 93.4378 30.6396C93.4534 30.6332 93.4677 30.6241 93.4826 30.6157C93.4917 30.6106 93.5011 30.6069 93.5098 30.6011C93.5275 30.5894 93.5438 30.5754 93.5597 30.5615C93.5637 30.5577 93.5683 30.5549 93.5721 30.5511C93.5904 30.5335 93.6065 30.5146 93.6213 30.4947C93.6224 30.4932 93.6236 30.492 93.6247 30.4905C93.672 30.4252 93.701 30.3462 93.7059 30.261C93.7059 30.2604 93.7061 30.2599 93.7061 30.2599H93.7087L93.7073 22.3242Z" fill="#909090"/>
<path fill-rule="evenodd" clip-rule="evenodd" d="M73.7246 28.9029C73.7917 29.6666 74.4026 30.6388 75.4609 30.6388H76.0802C76.3202 30.6388 76.5167 30.442 76.5167 30.2018V16.5831H76.5142C76.5017 16.3537 76.3119 16.1699 76.0802 16.1699H74.1614C73.9293 16.1699 73.7398 16.3537 73.7268 16.5831H73.7246V17.6897C72.5489 16.2406 70.6954 15.6391 68.8366 15.6391C64.6118 15.6391 61.187 19.0667 61.187 23.2951C61.187 27.5236 64.6118 30.9513 68.8366 30.9513C70.6954 30.9513 72.721 30.23 73.7244 28.9012L73.7246 28.9029ZM68.8441 28.2717C66.1573 28.2717 63.9789 26.0438 63.9789 23.2951C63.9789 20.5467 66.1573 18.3187 68.8441 18.3187C71.5312 18.3187 73.7092 20.5467 73.7092 23.2951C73.7092 26.0438 71.5312 28.2717 68.8441 28.2717Z" fill="#909090"/>
<path fill-rule="evenodd" clip-rule="evenodd" d="M49.8401 26.9525C51.121 27.8405 52.5192 28.2719 53.8628 28.2719C55.1428 28.2719 56.4662 27.6078 56.4662 26.4518C56.4662 24.9086 53.5826 24.6685 51.7709 24.0523C49.9588 23.4361 48.3982 22.1622 48.3982 20.0992C48.3982 16.9426 51.2086 15.6389 53.8318 15.6389C55.4937 15.6389 57.2085 16.1874 58.3203 16.9731C58.7031 17.2634 58.47 17.5968 58.47 17.5968L57.4087 19.1136C57.2895 19.2845 57.0809 19.4321 56.7816 19.2472C56.4821 19.0624 55.4321 18.3185 53.8318 18.3185C52.2312 18.3185 51.2672 19.0582 51.2672 19.975C51.2672 21.0744 52.5202 21.4202 53.9877 21.7949C56.5453 22.4848 59.3352 23.3141 59.3352 26.4518C59.3352 29.2331 56.7357 30.9518 53.8628 30.9518C51.6857 30.9518 49.8321 30.3307 48.2775 29.189C47.9536 28.8647 48.1798 28.5634 48.1798 28.5634L49.2358 27.0543C49.4507 26.7721 49.7216 26.8705 49.8401 26.9525Z" fill="#909090"/>
<path fill-rule="evenodd" clip-rule="evenodd" d="M42.4635 28.9029C42.5305 29.6666 43.1415 30.6388 44.1997 30.6388H44.819C45.059 30.6388 45.2558 30.442 45.2558 30.2018V16.5831H45.2531C45.2405 16.3537 45.051 16.1699 44.819 16.1699H42.9002C42.6682 16.1699 42.4786 16.3537 42.4658 16.5831H42.4635V17.6897C41.2878 16.2406 39.4343 15.6391 37.5756 15.6391C33.3508 15.6391 29.9258 19.0667 29.9258 23.2951C29.9258 27.5236 33.3508 30.9513 37.5756 30.9513C39.4343 30.9513 41.4599 30.23 42.4632 28.9012L42.4635 28.9029ZM37.5831 28.2717C34.8961 28.2717 32.7178 26.0438 32.7178 23.2951C32.7178 20.5467 34.8961 18.3187 37.5831 18.3187C40.27 18.3187 42.4481 20.5467 42.4481 23.2951C42.4481 26.0438 40.27 28.2717 37.5831 28.2717Z" fill="#909090"/>
<path fill-rule="evenodd" clip-rule="evenodd" d="M19.2008 23.8158C16.3576 23.8158 14.0527 26.1206 14.0527 28.964C14.0527 31.8073 16.3576 34.1121 19.2008 34.1121C22.044 34.1121 24.3488 31.8073 24.3488 28.964C24.3488 26.1206 22.044 23.8158 19.2008 23.8158ZM5.82577 23.8163C2.98261 23.8163 0.677734 26.1206 0.677734 28.964C0.677734 31.8073 2.98261 34.1121 5.82577 34.1121C8.66905 34.1121 10.974 31.8073 10.974 28.964C10.974 26.1206 8.66905 23.8163 5.82577 23.8163ZM17.6612 17.3806C17.6612 20.224 15.3565 22.5291 12.5133 22.5291C9.67001 22.5291 7.36526 20.224 7.36526 17.3806C7.36526 14.5378 9.67001 12.2327 12.5133 12.2327C15.3565 12.2327 17.6612 14.5378 17.6612 17.3806Z" fill="#909090"/>
</g>
<defs>
<clipPath id="clip0_2184_5266">
<rect width="111.545" height="42.1586" fill="white" transform="translate(0.678711 0.815186)"/>
</clipPath>
</defs>
</svg>
