<svg width="92" height="43" viewBox="0 0 92 43" fill="none" xmlns="http://www.w3.org/2000/svg">
<g clip-path="url(#clip0_2184_5269)">
<path d="M6.44936 27.9356H0.272132V31.0244H6.44936V27.9356Z" fill="#909090"/>
<path d="M15.7124 27.9356H9.5391V31.0244H15.7124V27.9356Z" fill="#909090"/>
<path d="M15.7141 21.7585H0.268555V24.8472H15.7141V21.7585Z" fill="#909090"/>
<path d="M9.53886 15.5818H0.272135V18.6703H9.53886V15.5818Z" fill="#909090"/>
<path d="M15.7156 15.5818H12.6271V18.6703H15.7156V15.5818Z" fill="#909090"/>
<path d="M60.5538 15.5642C55.5934 15.5642 53.0316 19.072 53.0316 23.3992C53.0316 27.7265 55.5303 31.2347 60.5538 31.2347C65.5774 31.2347 68.0761 27.7265 68.0761 23.3992C68.0763 19.072 65.5141 15.5642 60.5538 15.5642ZM64.3066 23.4132C64.3031 26.1958 63.3655 28.4496 60.5538 28.4496C57.7422 28.4496 56.8044 26.196 56.8015 23.4132V23.3993C56.8044 20.6169 57.7424 18.3633 60.554 18.3633C63.3655 18.3633 64.3031 20.6169 64.3066 23.3993V23.4064C64.3066 23.4087 64.3066 23.4108 64.3066 23.4132Z" fill="#909090"/>
<path d="M38.3434 31.0241V9.36138C38.3434 9.36138 41.2006 8.95552 41.4221 8.92571C41.6731 8.8918 42.0063 9.07048 42.0063 9.42373V17.4542C42.5992 16.8905 43.2521 16.4361 43.9637 16.0898C44.6759 15.744 45.511 15.5708 46.4704 15.5708C47.3011 15.5708 48.037 15.7116 48.6796 15.9936C49.3226 16.2749 49.859 16.6709 50.289 17.1796C50.7191 17.6891 51.0454 18.2971 51.2679 19.004C51.4903 19.7109 51.6015 20.4895 51.6015 21.3398V31.0239H47.9384V21.3398C47.9384 20.4106 47.7233 19.6912 47.2933 19.1817C46.863 18.6727 46.2179 18.4181 45.3575 18.4181C44.7248 18.4181 44.1319 18.5615 43.5785 18.8485C43.0246 19.1353 42.5006 19.5254 42.0063 20.0201V31.0241H38.3434Z" fill="#909090"/>
<path d="M87.2463 31.2327C84.7255 31.2327 83.1457 29.7657 83.1457 27.0289V18.9178H80.3048C80.3048 18.9178 80.9087 16.8294 80.9564 16.665C81.0043 16.5007 81.1292 16.3242 81.38 16.2893C81.6308 16.2544 83.1422 16.0436 83.1422 16.0436L83.8403 11.6023C83.8403 11.6023 85.8915 11.3131 86.2167 11.2646C86.5238 11.2186 86.8022 11.4398 86.8022 11.7743V16.0436H90.3952V18.9178H86.8022V26.9196C86.8022 28.0121 87.4674 28.4296 88.1049 28.4296C88.4946 28.4296 89.0283 28.2227 89.4266 28.038C89.6727 27.9242 90.054 28.0086 90.1526 28.3521C90.2397 28.6564 90.7028 30.2719 90.7028 30.2719C90.3032 30.5299 89.04 31.2327 87.2463 31.2327Z" fill="#909090"/>
<path d="M78.2928 18.9662C77.5788 18.7343 76.2369 18.3632 74.9605 18.3632C73.6599 18.3632 72.6366 18.8125 72.6366 19.8939C72.6366 21.2446 74.842 21.6378 76.3517 22.1884C77.361 22.5565 80.0676 23.2741 80.0676 26.1851C80.0676 29.7212 77.1311 31.233 73.9985 31.233C70.8656 31.233 69.0147 30.0678 69.0147 30.0678C69.0147 30.0678 69.5007 28.3512 69.5991 28.0124C69.6881 27.7074 70.0426 27.6005 70.2684 27.6872C71.0747 27.998 72.5306 28.4299 74.1762 28.4299C75.8424 28.4299 76.6485 27.9212 76.6485 26.8367C76.6485 25.3932 74.3986 24.9521 72.9105 24.4827C71.8854 24.1597 69.1722 23.4062 69.1722 20.2047C69.1722 17.0509 71.9415 15.5712 74.9013 15.5712C77.4066 15.5712 78.6355 16.0951 79.5534 16.5628C79.5534 16.5628 79.0419 18.3454 78.966 18.611C78.8763 18.9267 78.6174 19.0714 78.2928 18.9662Z" fill="#909090"/>
<path d="M36.914 16.0933C36.914 15.7521 36.6225 15.5569 36.3445 15.5887C35.1152 15.7295 34.2382 16.308 33.6708 16.8466C32.5567 15.9737 31.0102 15.5569 29.2745 15.5569C25.7945 15.5569 23.0756 17.2365 23.0756 20.8988C23.0756 23.0012 23.9705 24.4499 25.3918 25.3027C24.3363 25.8023 23.6333 26.8625 23.6333 27.9047C23.6333 29.6482 25.0106 30.1942 25.0106 30.1942C25.0106 30.1942 22.6023 31.3631 22.6023 33.7016C22.6023 36.6953 25.3573 37.9056 28.7236 37.9056C33.5761 37.9056 36.9146 35.9014 36.9146 32.2214C36.9146 29.9565 35.1814 28.7061 31.4045 28.5575C29.1632 28.469 27.7114 28.3883 27.3517 28.2693C26.8765 28.1115 26.6429 27.7309 26.6429 27.3108C26.6429 26.8471 27.0238 26.4056 27.6243 26.1024C28.1481 26.1951 28.7008 26.2409 29.2749 26.2409C32.7577 26.2409 35.4739 24.5662 35.4739 20.899C35.4739 20.0097 35.3134 19.2377 35.0215 18.5782C35.5331 18.3052 36.1627 18.1131 36.9144 18.1131C36.9144 18.1131 36.914 16.4045 36.914 16.0933ZM27.3239 31.0433C27.3239 31.0433 29.1513 31.1125 30.9774 31.1971C33.029 31.292 33.6683 31.7341 33.6683 32.7964C33.6683 34.0942 31.8854 35.3567 29.3939 35.3567C27.0289 35.3567 25.8475 34.5338 25.8475 33.1638C25.8475 32.3778 26.2625 31.4985 27.3239 31.0433ZM29.2811 23.6845C27.6325 23.6845 26.3463 22.8089 26.3463 20.8988C26.3463 18.9885 27.6337 18.1129 29.2811 18.1129C30.9287 18.1129 32.2159 18.9862 32.2159 20.8988C32.2159 22.8114 30.9303 23.6845 29.2811 23.6845Z" fill="#909090"/>
</g>
<defs>
<clipPath id="clip0_2184_5269">
<rect width="91.3435" height="42.1586" fill="white" transform="translate(0.222656 0.815186)"/>
</clipPath>
</defs>
</svg>
