<svg width="181" height="43" viewBox="0 0 181 43" fill="none" xmlns="http://www.w3.org/2000/svg">
<path d="M66.8797 35.9469H1.97409C1.47077 35.9469 1.18141 35.4324 1.51829 35.0561C2.59796 33.85 4.57765 32.4643 5.9764 32.4643C8.18756 32.4643 8.50344 34.0473 10.3987 34.0473C13.5575 34.0473 17.0322 23.283 22.4022 23.283C27.7722 23.283 27.7722 29.6149 33.7739 29.6149C39.7756 29.6149 42.3027 8.71948 50.8314 8.71948C58.3129 8.71948 65.7944 24.348 68.1726 34.3381C68.3707 35.1706 67.7304 35.9469 66.8797 35.9469Z" fill="#909090"/>
<path d="M76.9102 30.5489H79.3284V25.1068C79.3284 22.7397 80.5595 21.4788 82.1643 21.4788C83.5713 21.4788 84.4507 22.5406 84.4507 24.2883V30.5489H86.8689V23.8901C86.8689 21.0806 85.2201 19.2665 82.67 19.2665C81.241 19.2665 79.9879 19.886 79.3284 20.9921V13.9572H76.9102V30.5489Z" fill="#909090"/>
<path d="M92.5573 15.4394C92.5573 14.5545 91.8538 13.8245 90.9524 13.8245C90.0731 13.8245 89.3256 14.5545 89.3256 15.4394C89.3256 16.3464 90.0731 17.0764 90.9524 17.0764C91.8538 17.0764 92.5573 16.3464 92.5573 15.4394ZM89.7433 30.5489H92.1616V19.4878H89.7433V30.5489Z" fill="#909090"/>
<path d="M95.1912 30.5489H97.6095V25.1068C97.6095 22.784 98.6867 21.4788 100.248 21.4788C101.567 21.4788 102.204 22.607 102.204 24.3325V30.5489H104.622V25.1068C104.622 22.784 105.678 21.4788 107.238 21.4788C108.557 21.4788 109.195 22.607 109.195 24.3325V30.5489H111.613V23.9343C111.613 21.1027 110.14 19.2665 107.656 19.2665C106.205 19.2665 104.798 20.0408 104.139 21.4566C103.545 20.0851 102.358 19.2665 100.731 19.2665C99.3242 19.2665 98.225 19.9523 97.6095 20.9921V19.4878H95.1912V30.5489Z" fill="#909090"/>
<path d="M113.695 25.0183C113.695 28.1818 115.981 30.7701 118.993 30.7701C120.576 30.7701 121.895 29.9516 122.511 29.0667V30.5489H124.929V19.4878H122.511V20.97C121.895 20.0851 120.576 19.2665 118.993 19.2665C115.981 19.2665 113.695 21.8548 113.695 25.0183ZM122.708 25.0183C122.708 27.0093 121.389 28.5579 119.433 28.5579C117.476 28.5579 116.157 27.0093 116.157 25.0183C116.157 23.0273 117.476 21.4788 119.433 21.4788C121.389 21.4788 122.708 23.0273 122.708 25.0183Z" fill="#909090"/>
<path d="M127.985 30.5489H130.403V13.9572H127.985V30.5489Z" fill="#909090"/>
<path d="M132.642 25.0183C132.642 28.1818 134.928 30.7701 137.94 30.7701C139.523 30.7701 140.842 29.9516 141.457 29.0667V30.5489H143.875V19.4878H141.457V20.97C140.842 20.0851 139.523 19.2665 137.94 19.2665C134.928 19.2665 132.642 21.8548 132.642 25.0183ZM141.655 25.0183C141.655 27.0093 140.336 28.5579 138.379 28.5579C136.423 28.5579 135.104 27.0093 135.104 25.0183C135.104 23.0273 136.423 21.4788 138.379 21.4788C140.336 21.4788 141.655 23.0273 141.655 25.0183Z" fill="#909090"/>
<path d="M150.449 35.1724L157.506 19.4878H154.824L151.46 27.319L148.075 19.4878H145.415L150.141 29.9516L147.789 35.1724H150.449Z" fill="#909090"/>
<path d="M157.922 25.0183C157.922 28.1818 160.208 30.7701 163.22 30.7701C164.803 30.7701 166.122 29.9516 166.737 29.0667V30.5489H169.155V19.4878H166.737V20.97C166.122 20.0851 164.803 19.2665 163.22 19.2665C160.208 19.2665 157.922 21.8548 157.922 25.0183ZM166.935 25.0183C166.935 27.0093 165.616 28.5579 163.659 28.5579C161.703 28.5579 160.384 27.0093 160.384 25.0183C160.384 23.0273 161.703 21.4788 163.659 21.4788C165.616 21.4788 166.935 23.0273 166.935 25.0183Z" fill="#909090"/>
<path d="M180.39 27.496C180.39 25.8147 179.444 24.6644 177.466 24.1556L175.619 23.6689C174.696 23.4255 174.146 23.0494 174.146 22.3415C174.146 21.6336 174.828 21.2133 175.751 21.2133C176.608 21.2133 177.334 21.6557 177.554 22.5849H179.972C179.796 20.5939 178.147 19.2665 175.773 19.2665C173.311 19.2665 171.684 20.5054 171.684 22.3637C171.684 23.9786 172.607 25.2174 174.498 25.7041L176.301 26.1908C177.444 26.4784 177.927 26.8987 177.927 27.6509C177.927 28.403 177.202 28.8234 176.147 28.8234C175.07 28.8234 174.08 28.3809 173.882 27.1863H171.376C171.508 29.3985 173.509 30.7701 176.081 30.7701C178.543 30.7701 180.39 29.6419 180.39 27.496Z" fill="#909090"/>
</svg>
