<svg width="150" height="43" viewBox="0 0 150 43" fill="none" xmlns="http://www.w3.org/2000/svg">
<g clip-path="url(#clip0_2184_5271)">
<path d="M3.93577 18.077C3.93577 15.758 2.76119 13.8419 0.56543 12.2327H5.66896C6.56861 12.918 7.29755 13.8021 7.79874 14.816C8.29993 15.8299 8.55979 16.946 8.55799 18.077C8.55979 19.208 8.29993 20.3241 7.79874 21.3379C7.29755 22.3518 6.56861 23.236 5.66896 23.9213C7.32602 24.6123 8.26874 26.2988 8.26874 28.7126V33.3119H3.64769V28.7126C3.64769 26.4136 2.5504 24.8043 0.566601 23.9224C2.76236 22.312 3.93694 20.3971 3.93694 18.0781L3.93577 18.077ZM13.9508 18.077C13.9508 15.758 12.7762 13.8419 10.5804 12.2327H15.6851C16.5846 12.9181 17.3133 13.8023 17.8143 14.8162C18.3152 15.83 18.5749 16.946 18.573 18.077C18.5749 19.2079 18.3152 20.3239 17.8143 21.3378C17.3133 22.3516 16.5846 23.2358 15.6851 23.9213C17.341 24.6123 18.2849 26.2988 18.2849 28.7126V33.3119H13.6627V28.7126C13.6627 26.4136 12.5642 24.8043 10.5804 23.9224C12.7762 22.312 13.9508 20.3971 13.9508 18.0781V18.077ZM23.9681 18.077C23.9681 15.758 22.7935 13.8419 20.5978 12.2327H25.7013C26.601 12.918 27.3299 13.8021 27.8311 14.816C28.3323 15.8299 28.5921 16.946 28.5903 18.077C28.5921 19.208 28.3323 20.3241 27.8311 21.3379C27.3299 22.3518 26.601 23.236 25.7013 23.9213C27.3584 24.6123 28.3011 26.2988 28.3011 28.7126V33.3119H23.6789V28.7126C23.6789 26.4136 22.5816 24.8043 20.5978 23.9224C22.7935 22.312 23.9681 20.3971 23.9681 18.0781V18.077ZM42.6678 29.4821H39.1639V16.0648H47.7737C51.9146 16.0648 53.9557 17.5991 53.9557 20.109C53.9557 21.8143 52.9545 23.0979 51.0866 23.7503C53.0119 24.0372 53.8784 25.0526 53.8784 26.8739V29.4798H50.3348V27.0273C50.3348 25.493 49.5642 24.8805 47.5418 24.8805H42.6701V29.4821H42.6678ZM47.5793 18.0196H42.6678V22.9269H47.5406C49.3124 22.9269 50.4097 21.949 50.4097 20.4158C50.4097 18.9015 49.3909 18.0196 47.5793 18.0196ZM60.0406 16.0648H56.5356V29.4821H60.0406V16.0648ZM70.7875 25.11H66.512V29.4798H63.0058V16.0648H70.8637C75.0046 16.0648 77.1816 17.79 77.1816 20.5505C77.1816 23.4048 74.9671 25.11 70.7875 25.11ZM70.7103 18.0196H66.512V23.1553H70.6716C72.4821 23.1553 73.5993 22.2359 73.5993 20.5693C73.5993 18.9401 72.4821 18.0196 70.7103 18.0196ZM87.0432 25.11H82.7676V29.4798H79.2614V16.0648H87.1193C91.2602 16.0648 93.4372 17.79 93.4372 20.5505C93.4372 23.4048 91.2216 25.11 87.0432 25.11ZM86.9659 18.0196H82.7676V23.1553H86.9272C88.7377 23.1553 89.8549 22.2359 89.8549 20.5693C89.8549 18.9401 88.7377 18.0196 86.9659 18.0196ZM99.0221 16.0648V27.4864H107.766V29.4821H95.5171V16.0648H99.0221ZM113.465 16.0648H109.96V29.4821H113.465V16.0648ZM118.743 20.5494V29.4821H116.431V16.0648H119.053L128.606 24.9952V16.0648H130.917V29.4821H128.298L118.743 20.5482V20.5494ZM142.359 17.6366C139.026 17.6366 136.85 19.7448 136.85 22.8871C136.85 25.9908 138.93 27.908 142.165 27.908H142.396C143.495 27.908 144.727 27.6773 145.864 27.3142V23.6917H140.202V21.7756H149.291V28.0802C147.405 29.0581 144.553 29.8253 142.243 29.8253H141.935C136.618 29.8253 133.19 27.0261 133.19 22.9632C133.19 18.939 136.715 15.7205 142.127 15.7205H142.435C144.689 15.7205 147.269 16.4291 149.177 17.5406L148.174 19.1685C146.461 18.2304 144.419 17.6366 142.589 17.6366H142.359Z" fill="#909090"/>
</g>
<defs>
<clipPath id="clip0_2184_5271">
<rect width="149.312" height="42.1586" fill="white" transform="translate(0.566406 0.815186)"/>
</clipPath>
</defs>
</svg>
