<svg width="112" height="43" viewBox="0 0 112 43" fill="none" xmlns="http://www.w3.org/2000/svg">
<g clip-path="url(#clip0_2184_5261)">
<path d="M23.9793 11.2526C23.9571 11.0972 23.8238 11.0084 23.7128 11.0084C23.6018 11.0084 21.4037 10.9639 21.4037 10.9639C21.4037 10.9639 19.5608 9.18767 19.3832 8.98784C19.2055 8.81021 18.8503 8.85462 18.7171 8.89903C18.7171 8.89903 18.3618 9.01004 17.7845 9.18767C17.6957 8.87682 17.5403 8.49937 17.3404 8.0997C16.6965 6.85631 15.7196 6.19021 14.565 6.19021C14.4762 6.19021 14.4096 6.19021 14.3208 6.21242C14.2764 6.16801 14.2542 6.1236 14.2098 6.1014C13.6991 5.56852 13.0552 5.30208 12.2781 5.32428C10.7904 5.36869 9.30282 6.45665 8.08163 8.36615C7.2379 9.72055 6.594 11.408 6.39417 12.718C4.68451 13.2509 3.48553 13.6284 3.44112 13.6284C2.57519 13.8948 2.55298 13.917 2.44197 14.7385C2.39756 15.3602 0.132812 32.8787 0.132812 32.8787L19.1389 36.1648L27.3764 34.1221C27.3542 34.1221 24.0015 11.408 23.9793 11.2526ZM16.8298 9.49852C16.3857 9.63174 15.8972 9.78716 15.3643 9.96479C15.3643 9.20987 15.2533 8.14411 14.9203 7.25598C16.0526 7.4336 16.6077 8.7214 16.8298 9.49852ZM14.3652 10.2534C13.366 10.5643 12.2781 10.8973 11.1901 11.2304C11.501 10.0536 12.0782 8.89903 12.7887 8.12191C13.0552 7.83326 13.4326 7.52242 13.8545 7.34479C14.2986 8.21072 14.3874 9.43191 14.3652 10.2534ZM12.3225 6.32343C12.6777 6.32343 12.9664 6.39004 13.2106 6.56767C12.811 6.7675 12.4113 7.07835 12.056 7.47801C11.1013 8.49937 10.3686 10.0758 10.0799 11.6078C9.16959 11.8965 8.28146 12.1629 7.48214 12.4072C8.01502 9.98699 10.0355 6.39004 12.3225 6.32343Z" fill="#909090"/>
<path d="M23.7145 11.0082C23.6035 11.0082 21.4054 10.9638 21.4054 10.9638C21.4054 10.9638 19.5625 9.18756 19.3849 8.98773C19.3183 8.92112 19.2294 8.87671 19.1406 8.87671V36.1647L27.3781 34.122C27.3781 34.122 24.0254 11.4079 24.0032 11.2525C23.9588 11.097 23.8255 11.0082 23.7145 11.0082Z" fill="#909090"/>
<path d="M14.5651 15.2486L13.6104 18.8234C13.6104 18.8234 12.5446 18.3349 11.279 18.4237C9.41396 18.5348 9.41396 19.7115 9.41396 20.0002C9.52497 21.5988 13.7214 21.9541 13.9657 25.7064C14.1433 28.6595 12.4114 30.68 9.88023 30.8354C6.86057 30.9909 5.19531 29.2146 5.19531 29.2146L5.83921 26.4836C5.83921 26.4836 7.52667 27.7492 8.85887 27.6603C9.72481 27.6159 10.0579 26.8832 10.0135 26.3948C9.88023 24.3076 6.46091 24.4409 6.23887 20.9993C6.06125 18.1129 7.94853 15.2042 12.1228 14.9378C13.7436 14.8268 14.5651 15.2486 14.5651 15.2486Z" fill="white"/>
<path d="M38.5215 22.8652C37.5668 22.3545 37.0783 21.9104 37.0783 21.311C37.0783 20.556 37.7666 20.0676 38.8324 20.0676C40.0758 20.0676 41.1859 20.5782 41.1859 20.5782L42.0519 17.9138C42.0519 17.9138 41.2525 17.2921 38.899 17.2921C35.6129 17.2921 33.3259 19.1794 33.3259 21.8216C33.3259 23.3315 34.3917 24.4638 35.8127 25.2854C36.9673 25.9293 37.3669 26.3955 37.3669 27.0838C37.3669 27.7943 36.7897 28.3716 35.7239 28.3716C34.1475 28.3716 32.6376 27.5501 32.6376 27.5501L31.7051 30.2145C31.7051 30.2145 33.0817 31.1471 35.413 31.1471C38.788 31.1471 41.2303 29.4818 41.2303 26.4843C41.2081 24.8635 39.9869 23.7089 38.5215 22.8652Z" fill="#909090"/>
<path d="M51.9769 17.2479C50.3116 17.2479 49.0016 18.0472 48.0024 19.2462L47.958 19.224L49.4013 11.6749H45.6489L41.9853 30.903H45.7377L46.9811 24.3308C47.4696 21.844 48.7574 20.312 49.9563 20.312C50.8001 20.312 51.1331 20.8893 51.1331 21.7108C51.1331 22.2215 51.0887 22.8654 50.9777 23.3761L49.5567 30.903H53.3091L54.7745 23.1318C54.9299 22.3103 55.0409 21.3333 55.0409 20.6672C55.0631 18.5357 53.953 17.2479 51.9769 17.2479Z" fill="#909090"/>
<path d="M63.5667 17.2476C59.0372 17.2476 56.0398 21.333 56.0398 25.8847C56.0398 28.7934 57.8382 31.1469 61.2131 31.1469C65.6538 31.1469 68.6513 27.1725 68.6513 22.5098C68.6735 19.8232 67.097 17.2476 63.5667 17.2476ZM61.7238 28.2827C60.436 28.2827 59.9031 27.1947 59.9031 25.8181C59.9031 23.6644 61.0133 20.1562 63.056 20.1562C64.3882 20.1562 64.8323 21.3108 64.8323 22.421C64.8323 24.7301 63.6999 28.2827 61.7238 28.2827Z" fill="#909090"/>
<path d="M78.2881 17.2476C75.7569 17.2476 74.3137 19.4901 74.3137 19.4901H74.2692L74.4913 17.4696H71.1608C71.0053 18.824 70.6945 20.9112 70.4059 22.4654L67.7859 36.2315H71.5382L72.5818 30.6584H72.6706C72.6706 30.6584 73.4477 31.1469 74.8687 31.1469C79.2872 31.1469 82.1737 26.6174 82.1737 22.0435C82.1737 19.5123 81.0413 17.2476 78.2881 17.2476ZM74.6911 28.3271C73.7142 28.3271 73.1369 27.772 73.1369 27.772L73.7586 24.2639C74.2026 21.9103 75.4238 20.3561 76.7338 20.3561C77.8884 20.3561 78.2437 21.4218 78.2437 22.421C78.2437 24.8634 76.8004 28.3271 74.6911 28.3271Z" fill="#909090"/>
<path d="M87.5462 11.8524C86.3472 11.8524 85.3925 12.8072 85.3925 14.0284C85.3925 15.1385 86.103 15.9156 87.1688 15.9156H87.2132C88.39 15.9156 89.3891 15.1163 89.4113 13.7397C89.4113 12.6517 88.6786 11.8524 87.5462 11.8524Z" fill="#909090"/>
<path d="M82.2843 30.8806H86.0366L88.59 17.5586H84.8155L82.2843 30.8806Z" fill="#909090"/>
<path d="M98.1595 17.5366H95.5395L95.6727 16.9149C95.8947 15.6271 96.6496 14.4947 97.9152 14.4947C98.5813 14.4947 99.1142 14.6945 99.1142 14.6945L99.8469 11.7415C99.8469 11.7415 99.203 11.4084 97.8042 11.4084C96.472 11.4084 95.1398 11.7859 94.1184 12.6518C92.8306 13.7398 92.2312 15.3162 91.9425 16.9149L91.8315 17.5366H90.0774L89.5223 20.3786H91.2764L89.2781 30.903H93.0305L95.0288 20.3786H97.6266L98.1595 17.5366Z" fill="#909090"/>
<path d="M107.218 17.5586C107.218 17.5586 104.865 23.4869 103.821 26.7286H103.777C103.71 25.685 102.844 17.5586 102.844 17.5586H98.892L101.157 29.7926C101.201 30.0591 101.179 30.2367 101.068 30.4143C100.624 31.2581 99.8911 32.0796 99.0252 32.6791C98.3147 33.1898 97.5154 33.5228 96.8937 33.7448L97.9372 36.9421C98.6921 36.7867 100.291 36.1428 101.623 34.8994C103.333 33.3008 104.931 30.814 106.552 27.4391L111.148 17.5586H107.218Z" fill="#909090"/>
</g>
<defs>
<clipPath id="clip0_2184_5261">
<rect width="111.545" height="42.1586" fill="white" transform="translate(0.133789 0.815186)"/>
</clipPath>
</defs>
</svg>
