<svg width="117" height="43" viewBox="0 0 117 43" fill="none" xmlns="http://www.w3.org/2000/svg">
<g clip-path="url(#clip0_2184_5282)">
<path d="M25.2635 6.96265H5.98736C3.31514 6.96265 1.14941 9.12837 1.14941 11.8006V31.0767C1.14941 33.7489 3.31514 35.9146 5.98736 35.9146H25.2635C27.9357 35.9146 30.1014 33.7489 30.1014 31.0767V11.8006C30.1014 9.12837 27.9357 6.96265 25.2635 6.96265ZM24.8385 29.1235C24.8385 29.9676 24.1544 30.6517 23.3102 30.6517H7.94059C7.09642 30.6517 6.41235 29.9676 6.41235 29.1235V13.7538C6.41235 12.9097 7.09642 12.2256 7.94059 12.2256H23.3102C24.1544 12.2256 24.8385 12.9097 24.8385 13.7538V29.1235ZM12.5544 25.3684C12.0683 25.3684 11.6782 24.9754 11.6782 24.4893V18.3531C11.6782 17.8669 12.0683 17.4711 12.5544 17.4711H18.6993C19.1826 17.4711 19.5755 17.864 19.5755 18.3531V24.4864C19.5755 24.9725 19.1826 25.3655 18.6993 25.3655H12.5544V25.3684ZM37.7775 24.9492H40.9388C41.0959 26.7394 42.3098 28.1367 44.7579 28.1367C46.944 28.1367 48.2888 27.0567 48.2888 25.4237C48.2888 23.8955 47.2351 23.2114 45.3371 22.7631L42.8862 22.2362C40.2256 21.657 38.2229 19.9453 38.2229 17.1509C38.2229 14.0682 40.962 11.9607 44.5192 11.9607C48.2859 11.9607 50.7107 13.9372 50.9203 16.8598H47.8638C47.5 15.4916 46.3647 14.6766 44.5221 14.6766C42.5718 14.6766 41.2298 15.7303 41.2298 17.0752C41.2298 18.42 42.3884 19.2351 44.3911 19.6834L46.8159 20.2102C49.4765 20.7895 51.2929 22.3963 51.2929 25.2141C51.2929 28.7974 48.6061 30.9311 44.7608 30.9311C40.4381 30.9282 38.0424 28.5849 37.7775 24.9492ZM62.6018 35.9146V30.6721L62.8085 28.3724H62.6018C61.877 30.0258 60.3546 30.9311 58.2878 30.9311C54.9548 30.9311 52.4747 28.2182 52.4747 24.0585C52.4747 19.8988 54.9548 17.1858 58.2878 17.1858C60.3284 17.1858 61.7751 18.1406 62.6018 19.6397H62.8085V17.4419H65.5477V35.9146H62.6018ZM62.7037 24.0556C62.7037 21.395 61.0765 19.8435 59.0854 19.8435C57.0943 19.8435 55.4671 21.395 55.4671 24.0556C55.4671 26.7161 57.0943 28.2677 59.0854 28.2677C61.0765 28.2677 62.7037 26.719 62.7037 24.0556ZM67.7337 25.4266V17.4419H70.6796V25.1675C70.6796 27.2605 71.6868 28.2677 73.3664 28.2677C75.4331 28.2677 76.778 26.7947 76.778 24.4951V17.4419H79.7238V30.6692H76.9846V27.93H76.778C76.1318 29.6882 74.7112 30.9282 72.5164 30.9282C69.3609 30.9282 67.7337 28.9139 67.7337 25.4266ZM81.5169 26.9752C81.5169 24.4951 83.2489 23.0484 86.3229 22.8679L89.9644 22.635V21.6017C89.9644 20.3616 89.0591 19.6135 87.4581 19.6135C85.9852 19.6135 85.1061 20.3616 84.8732 21.4212H81.9274C82.2389 18.7344 84.4599 17.1829 87.4552 17.1829C90.8406 17.1829 92.9074 18.6296 92.9074 21.4212V30.6692H90.1682V28.2153H89.9615C89.3415 29.8425 88.049 30.9282 85.5689 30.9282C83.1965 30.9282 81.5169 29.3272 81.5169 26.9752ZM89.9673 25.348V24.6494L86.9953 24.8561C85.3943 24.9579 84.6695 25.5547 84.6695 26.7423C84.6695 27.7495 85.4962 28.4743 86.6576 28.4743C88.7535 28.4743 89.9673 27.1324 89.9673 25.348ZM95.1051 30.6721V17.4419H97.8443V19.9744H98.051C98.4381 18.2425 99.7568 17.4419 101.719 17.4419H103.064V20.1025H101.384C99.4715 20.1025 98.051 21.3426 98.051 23.6946V30.6692H95.1051V30.6721ZM116.541 24.5999H106.49C106.644 27.0276 108.35 28.3986 110.236 28.3986C111.837 28.3986 112.844 27.7524 113.415 26.6666H116.334C115.534 29.3534 113.182 30.9282 110.21 30.9282C106.309 30.9282 103.57 28.0086 103.57 24.0556C103.57 20.1025 106.385 17.1829 110.236 17.1829C114.11 17.1829 116.643 19.8435 116.643 23.1503C116.646 23.7994 116.594 24.1341 116.541 24.5999ZM113.726 22.5593C113.624 20.7255 112.099 19.4854 110.239 19.4854C108.481 19.4854 107.011 20.5974 106.647 22.5593H113.726Z" fill="#909090"/>
</g>
<defs>
<clipPath id="clip0_2184_5282">
<rect width="115.936" height="42.1586" fill="white" transform="translate(0.929688 0.815186)"/>
</clipPath>
</defs>
</svg>
