<svg width="22" height="25" viewBox="0 0 22 25" fill="none" xmlns="http://www.w3.org/2000/svg">
<path d="M10.9997 0.973633C5.10634 0.973633 0.333008 3.3603 0.333008 6.30697C0.333008 9.25363 5.10634 11.6403 10.9997 11.6403C16.893 11.6403 21.6663 9.25363 21.6663 6.30697C21.6663 3.3603 16.893 0.973633 10.9997 0.973633ZM0.333008 8.97363V12.9736C0.333008 15.9203 5.10634 18.307 10.9997 18.307C16.893 18.307 21.6663 15.9203 21.6663 12.9736V8.97363C21.6663 11.9203 16.893 14.307 10.9997 14.307C5.10634 14.307 0.333008 11.9203 0.333008 8.97363ZM0.333008 15.6403V19.6403C0.333008 22.587 5.10634 24.9736 10.9997 24.9736C16.893 24.9736 21.6663 22.587 21.6663 19.6403V15.6403C21.6663 18.587 16.893 20.9736 10.9997 20.9736C5.10634 20.9736 0.333008 18.587 0.333008 15.6403Z" fill="white"/>
</svg>
