<svg width="32" height="33" viewBox="0 0 32 33" fill="none" xmlns="http://www.w3.org/2000/svg">
<g clip-path="url(#clip0_2184_8692)">
<path d="M15.9996 2.75146C13.1867 2.75146 10.437 3.58558 8.09813 5.14834C5.7593 6.7111 3.9364 8.93231 2.85995 11.5311C1.78351 14.1298 1.50186 16.9895 2.05063 19.7483C2.59939 22.5071 3.95393 25.0413 5.94294 27.0303C7.93196 29.0193 10.4661 30.3739 13.225 30.9226C15.9838 31.4714 18.8434 31.1898 21.4422 30.1133C24.041 29.0369 26.2622 27.214 27.8249 24.8751C29.3877 22.5363 30.2218 19.7866 30.2218 16.9737C30.2218 13.2017 28.7234 9.58424 26.0562 6.91706C23.389 4.24987 19.7715 2.75146 15.9996 2.75146ZM22.7996 21.9426C21.9107 24.6092 19.5907 25.3559 17.5551 25.4981V27.2759C17.5551 27.5706 17.4381 27.8532 17.2297 28.0616C17.0213 28.27 16.7387 28.387 16.444 28.387C16.1493 28.387 15.8667 28.27 15.6583 28.0616C15.45 27.8532 15.3329 27.5706 15.3329 27.2759V25.4981C13.2917 25.3067 11.3556 24.5044 9.77735 23.1959C9.67054 23.0961 9.58444 22.9762 9.52395 22.8432C9.46347 22.7101 9.42979 22.5664 9.42484 22.4203C9.41988 22.2742 9.44376 22.1285 9.49509 21.9917C9.54642 21.8548 9.62421 21.7294 9.72402 21.6226C9.82382 21.5158 9.94369 21.4297 10.0768 21.3692C10.2098 21.3087 10.3535 21.275 10.4996 21.2701C10.6457 21.2651 10.7914 21.289 10.9283 21.3403C11.0651 21.3916 11.1905 21.4694 11.2974 21.5692C12.4604 22.5065 13.8603 23.1033 15.3418 23.2937V17.7115C14.1611 17.5304 13.0315 17.1034 12.0262 16.4581C11.1809 15.928 10.5481 15.1182 10.2379 14.1698C9.92772 13.2214 9.95976 12.1943 10.3285 11.267C10.8529 9.9248 12.4796 8.39591 15.3418 8.14702V6.52924C15.3418 6.23456 15.4589 5.95194 15.6672 5.74357C15.8756 5.53519 16.1582 5.41813 16.4529 5.41813C16.7476 5.41813 17.0302 5.53519 17.2386 5.74357C17.447 5.95194 17.564 6.23456 17.564 6.52924V8.18258C19.1529 8.3586 20.6613 8.97426 21.9196 9.96035C22.094 10.1655 22.1879 10.4271 22.1839 10.6964C22.18 10.9656 22.0783 11.2243 21.8979 11.4242C21.7175 11.6242 21.4707 11.7518 21.2033 11.7834C20.9358 11.815 20.666 11.7483 20.444 11.5959C19.5953 10.9752 18.6057 10.575 17.564 10.4315V15.8804C18.0974 15.9959 18.6662 16.1204 19.2618 16.307C19.9507 16.4788 20.5971 16.7898 21.1612 17.2209C21.7253 17.652 22.1952 18.1941 22.5418 18.8137C23.0368 19.7819 23.1295 20.9064 22.7996 21.9426Z" fill="white"/>
<path d="M18.5957 18.4312C18.2401 18.3246 17.8934 18.2357 17.5557 18.1646V23.2846C19.3334 23.1068 20.2846 22.4845 20.6934 21.2401C20.8297 20.7721 20.782 20.2697 20.5601 19.8357C20.3428 19.4825 20.0571 19.1763 19.7197 18.9351C19.3824 18.6939 19.0002 18.5226 18.5957 18.4312Z" fill="white"/>
<path d="M12.3907 12.0671C12.2052 12.5279 12.1931 13.0404 12.3565 13.5094C12.52 13.9785 12.8479 14.3725 13.2796 14.6182C13.9077 15.0215 14.608 15.2992 15.3418 15.436V10.3516C13.4751 10.5738 12.6129 11.4982 12.3907 12.0671Z" fill="white"/>
</g>
<defs>
<clipPath id="clip0_2184_8692">
<rect width="32" height="32" fill="white" transform="translate(0 0.973633)"/>
</clipPath>
</defs>
</svg>
