<svg width="16" height="17" viewBox="0 0 16 17" fill="none" xmlns="http://www.w3.org/2000/svg">
<path d="M3.42871 6.18802V2.18802C3.42871 1.88492 3.54912 1.59423 3.76345 1.3799C3.97777 1.16557 4.26846 1.04517 4.57157 1.04517H14.2859C14.589 1.04517 14.8796 1.16557 15.094 1.3799C15.3083 1.59423 15.4287 1.88492 15.4287 2.18802V11.3309C15.4287 11.634 15.3083 11.9247 15.094 12.139C14.8796 12.3533 14.589 12.4737 14.2859 12.4737H12.5716M3.42871 4.47374H15.4287" stroke="#0FFFD4" stroke-width="1.4" stroke-linecap="round" stroke-linejoin="round"/>
<path d="M0.571289 11.9023H9.71415M8.57129 9.04517H1.71415C1.41104 9.04517 1.12035 9.16557 0.906024 9.3799C0.691697 9.59423 0.571289 9.88492 0.571289 10.188V14.7595C0.571289 15.0626 0.691697 15.3532 0.906024 15.5676C1.12035 15.7819 1.41104 15.9023 1.71415 15.9023H8.57129C8.87439 15.9023 9.16508 15.7819 9.37941 15.5676C9.59374 15.3532 9.71415 15.0626 9.71415 14.7595V10.188C9.71415 9.88492 9.59374 9.59423 9.37941 9.3799C9.16508 9.16557 8.87439 9.04517 8.57129 9.04517Z" stroke="#0FFFD4" stroke-width="1.4" stroke-linecap="round" stroke-linejoin="round"/>
</svg>
