<svg width="16" height="17" viewBox="0 0 16 17" fill="none" xmlns="http://www.w3.org/2000/svg">
<path d="M15.1427 15.9021H9.42843M9.42843 10.1878H15.1427M9.42843 13.0449H15.1427M6.28558 1.61635H0.571289V7.33064H6.28558V1.61635ZM15.4284 7.33064H9.14272L12.2856 1.04492L15.4284 7.33064ZM3.42843 15.9021C4.18619 15.9021 4.91292 15.601 5.44874 15.0652C5.98456 14.5294 6.28558 13.8027 6.28558 13.0449C6.28558 12.2872 5.98456 11.5604 5.44874 11.0246C4.91292 10.4888 4.18619 10.1878 3.42843 10.1878C2.67067 10.1878 1.94395 10.4888 1.40813 11.0246C0.872309 11.5604 0.571289 12.2872 0.571289 13.0449C0.571289 13.8027 0.872309 14.5294 1.40813 15.0652C1.94395 15.601 2.67067 15.9021 3.42843 15.9021Z" stroke="#0F6FFF" stroke-width="1.4" stroke-linecap="round" stroke-linejoin="round"/>
</svg>
