<svg width="16" height="17" viewBox="0 0 16 17" fill="none" xmlns="http://www.w3.org/2000/svg">
<g clip-path="url(#clip0_2184_5321)">
<path d="M1.02441 3.5376C1.3147 4.31474 1.86556 4.90331 2.42899 5.32046M7.7147 6.07588H5.59584M11.2393 7.79245C11.1635 7.79245 11.0908 7.76235 11.0372 7.70877C10.9837 7.65519 10.9536 7.58252 10.9536 7.50674C10.9536 7.43096 10.9837 7.35829 11.0372 7.30471C11.0908 7.25113 11.1635 7.22103 11.2393 7.22103C11.315 7.22103 11.3877 7.25113 11.4413 7.30471C11.4949 7.35829 11.525 7.43096 11.525 7.50674C11.525 7.58252 11.4949 7.65519 11.4413 7.70877C11.3877 7.76235 11.315 7.79245 11.2393 7.79245Z" stroke="#0F6FFF" stroke-width="1.4" stroke-linecap="round" stroke-linejoin="round"/>
<path d="M12.1194 1.93297V4.30211C13.9056 5.04497 14.2268 6.31468 14.2268 7.97411L15.2268 8.79583V11.3318C14.6371 12.5993 13.5479 13.2598 12.1194 13.7661V14.8907C12.1194 15.0422 12.0591 15.1876 11.952 15.2947C11.8448 15.4019 11.6995 15.4621 11.5479 15.4621H9.54792C9.39637 15.4621 9.25103 15.4019 9.14386 15.2947C9.0367 15.1876 8.97649 15.0422 8.97649 14.8907V13.7661H5.38792V14.8015C5.38792 14.9531 5.32772 15.0984 5.22056 15.2056C5.11339 15.3128 4.96805 15.373 4.81649 15.373H2.79821C2.64666 15.373 2.50131 15.3128 2.39415 15.2056C2.28698 15.0984 2.22678 14.9531 2.22678 14.8015V12.7787C2.22678 12.725 2.12164 12.4324 1.98564 11.9798C1.58792 10.6564 0.926209 8.42097 1.87707 6.31583C2.67364 4.5524 4.60049 3.20611 8.76278 3.43925C9.35935 1.86211 10.9411 1.44954 11.7479 1.48497C11.9776 1.4964 12.1194 1.70211 12.1194 1.93297Z" stroke="#0F6FFF" stroke-width="1.4" stroke-linecap="round" stroke-linejoin="round"/>
</g>
<defs>
<clipPath id="clip0_2184_5321">
<rect width="16" height="16" fill="white" transform="translate(0 0.473633)"/>
</clipPath>
</defs>
</svg>
