<svg width="24" height="25" viewBox="0 0 24 25" fill="none" xmlns="http://www.w3.org/2000/svg">
<path d="M11 19.9736V20.9736C11 21.2388 10.8946 21.4932 10.7071 21.6807C10.5196 21.8683 10.2652 21.9736 10 21.9736H8V22.9736C8 23.5041 7.78929 24.0128 7.41421 24.3878C7.03914 24.7629 6.53043 24.9736 6 24.9736H2C1.46957 24.9736 0.960859 24.7629 0.585786 24.3878C0.210714 24.0128 0 23.5041 0 22.9736V20.3876C0.000113275 19.8572 0.210901 19.3486 0.586 18.9736L8.324 11.2346C7.84922 9.62322 7.89375 7.90323 8.45129 6.31855C9.00882 4.73387 10.0511 3.3649 11.4302 2.40576C12.8094 1.44662 14.4555 0.945974 16.1352 0.974812C17.8148 1.00365 19.4428 1.56051 20.7882 2.56643C22.1337 3.57235 23.1283 4.97628 23.6311 6.57917C24.1339 8.18207 24.1194 9.90257 23.5895 11.4967C23.0597 13.0909 22.0415 14.4778 20.6793 15.4609C19.317 16.4439 17.6799 16.9732 16 16.9736H14V18.9736C14 19.2388 13.8946 19.4932 13.7071 19.6807C13.5196 19.8683 13.2652 19.9736 13 19.9736H11ZM18 8.97363C18.5304 8.97363 19.0391 8.76292 19.4142 8.38785C19.7893 8.01277 20 7.50407 20 6.97363C20 6.4432 19.7893 5.93449 19.4142 5.55942C19.0391 5.18435 18.5304 4.97363 18 4.97363C17.4696 4.97363 16.9609 5.18435 16.5858 5.55942C16.2107 5.93449 16 6.4432 16 6.97363C16 7.50407 16.2107 8.01277 16.5858 8.38785C16.9609 8.76292 17.4696 8.97363 18 8.97363Z" fill="white"/>
</svg>
