<svg width="32" height="33" viewBox="0 0 32 33" fill="none" xmlns="http://www.w3.org/2000/svg">
<mask id="mask0_2184_8661" style="mask-type:luminance" maskUnits="userSpaceOnUse" x="2" y="4" width="28" height="26">
<path d="M24.6667 12.9736H7.33333C6.59695 12.9736 6 13.5706 6 14.307V27.6403C6 28.3767 6.59695 28.9736 7.33333 28.9736H24.6667C25.403 28.9736 26 28.3767 26 27.6403V14.307C26 13.5706 25.403 12.9736 24.6667 12.9736Z" fill="white" stroke="white" stroke-width="1.33333"/>
<path d="M11.3333 19.6403C12.0697 19.6403 12.6667 19.0433 12.6667 18.307C12.6667 17.5706 12.0697 16.9736 11.3333 16.9736C10.597 16.9736 10 17.5706 10 18.307C10 19.0433 10.597 19.6403 11.3333 19.6403Z" fill="black"/>
<path d="M20.6673 19.6403C21.4037 19.6403 22.0007 19.0433 22.0007 18.307C22.0007 17.5706 21.4037 16.9736 20.6673 16.9736C19.9309 16.9736 19.334 17.5706 19.334 18.307C19.334 19.0433 19.9309 19.6403 20.6673 19.6403Z" fill="black"/>
<path d="M13.3333 22.3071C12.9797 22.3071 12.6406 22.4476 12.3905 22.6977C12.1405 22.9477 12 23.2868 12 23.6405C12 23.9941 12.1405 24.3332 12.3905 24.5833C12.6406 24.8333 12.9797 24.9738 13.3333 24.9738V22.3071ZM18.6667 24.9738C19.0203 24.9738 19.3594 24.8333 19.6095 24.5833C19.8595 24.3332 20 23.9941 20 23.6405C20 23.2868 19.8595 22.9477 19.6095 22.6977C19.3594 22.4476 19.0203 22.3071 18.6667 22.3071V24.9738ZM13.3333 24.9738H18.6667V22.3071H13.3333V24.9738Z" fill="black"/>
<path d="M16.0003 7.64014V12.9735M2.66699 18.3068V23.6401M29.3337 18.3068V23.6401" stroke="white" stroke-width="1.33333" stroke-linecap="round" stroke-linejoin="round"/>
<path d="M16.0003 7.6403C16.7367 7.6403 17.3337 7.04335 17.3337 6.30697C17.3337 5.57059 16.7367 4.97363 16.0003 4.97363C15.2639 4.97363 14.667 5.57059 14.667 6.30697C14.667 7.04335 15.2639 7.6403 16.0003 7.6403Z" stroke="white" stroke-width="1.33333"/>
</mask>
<g mask="url(#mask0_2184_8661)">
<path d="M0 0.973633H32V32.9736H0V0.973633Z" fill="white"/>
</g>
</svg>
