<svg width="30" height="28" viewBox="0 0 30 28" fill="none" xmlns="http://www.w3.org/2000/svg">
<path d="M9.66634 0.973633C7.19099 0.973633 4.81702 1.95696 3.06668 3.7073C1.31634 5.45764 0.333008 7.83161 0.333008 10.307C0.333008 12.7823 1.31634 15.1563 3.06668 16.9066C4.81702 18.657 7.19099 19.6403 9.66634 19.6403H11.093C10.9654 18.756 10.9654 17.8579 11.093 16.9736H9.66634C7.89823 16.9736 6.20254 16.2713 4.9523 15.021C3.70205 13.7708 2.99967 12.0751 2.99967 10.307C2.99967 8.53886 3.70205 6.84316 4.9523 5.59292C6.20254 4.34268 7.89823 3.6403 9.66634 3.6403H20.333C21.3217 3.6401 22.2981 3.85981 23.1914 4.28351C24.0847 4.70721 24.8725 5.3243 25.4979 6.09007C26.1233 6.85584 26.5705 7.75113 26.8072 8.71107C27.0439 9.67102 27.0641 10.6716 26.8663 11.6403C27.6523 12.4102 28.296 13.313 28.7677 14.307C29.4425 12.8842 29.7465 11.3138 29.6512 9.74202C29.5558 8.1702 29.0644 6.64806 28.2225 5.31728C27.3807 3.9865 26.2158 2.89035 24.8363 2.13088C23.4569 1.37141 21.9077 0.973308 20.333 0.973633H9.66634ZM13.6663 18.307C13.6666 17.2675 13.9099 16.2425 14.3768 15.3139C14.8438 14.3852 15.5214 13.5786 16.3556 12.9584C17.1897 12.3382 18.1574 11.9217 19.1812 11.7422C20.205 11.5626 21.2567 11.6249 22.2521 11.9241C23.2476 12.2233 24.1593 12.7512 24.9144 13.4655C25.6695 14.1798 26.2471 15.0608 26.6011 16.0381C26.9551 17.0154 27.0757 18.062 26.9532 19.0942C26.8307 20.1264 26.4686 21.1156 25.8957 21.983L29.2757 25.3643L27.3903 27.2496L24.009 23.8696C23.0042 24.5338 21.8381 24.9133 20.6349 24.9679C19.4316 25.0224 18.236 24.7499 17.1752 24.1794C16.1144 23.6088 15.228 22.7615 14.6101 21.7275C13.9923 20.6935 13.6662 19.5115 13.6663 18.307Z" fill="white"/>
</svg>
