<svg width="21" height="21" viewBox="0 0 21 21" fill="none" xmlns="http://www.w3.org/2000/svg">
<path d="M10.9805 0.973633C5.47047 0.973633 0.980469 5.46363 0.980469 10.9736C0.980469 16.4836 5.47047 20.9736 10.9805 20.9736C16.4905 20.9736 20.9805 16.4836 20.9805 10.9736C20.9805 5.46363 16.4905 0.973633 10.9805 0.973633ZM15.7605 8.67363L10.0905 14.3436C9.95047 14.4836 9.76047 14.5636 9.56047 14.5636C9.36047 14.5636 9.17047 14.4836 9.03047 14.3436L6.20047 11.5136C5.91047 11.2236 5.91047 10.7436 6.20047 10.4536C6.49047 10.1636 6.97047 10.1636 7.26047 10.4536L9.56047 12.7536L14.7005 7.61363C14.9905 7.32363 15.4705 7.32363 15.7605 7.61363C16.0505 7.90363 16.0505 8.37363 15.7605 8.67363Z" fill="#0F6FFF"/>
</svg>
