<svg width="113" height="43" viewBox="0 0 113 43" fill="none" xmlns="http://www.w3.org/2000/svg">
<g clip-path="url(#clip0_2184_22456)">
<path fill-rule="evenodd" clip-rule="evenodd" d="M108.673 28.0878C108.74 28.8515 109.351 29.8236 110.41 29.8236H111.029C111.269 29.8236 111.466 29.6269 111.466 29.3867V15.7679H111.463C111.451 15.5385 111.261 15.3547 111.029 15.3547H109.11C108.878 15.3547 108.688 15.5385 108.676 15.7679H108.673V16.8745C107.497 15.4254 105.644 14.8239 103.786 14.8239C99.5606 14.8239 96.1358 18.2515 96.1358 22.4798C96.1358 26.7084 99.5606 30.136 103.786 30.136C105.644 30.136 107.67 29.4147 108.673 28.0861V28.0878ZM103.793 27.4566C101.106 27.4566 98.9276 25.2286 98.9276 22.4798C98.9276 19.7315 101.106 17.5035 103.793 17.5035C106.48 17.5035 108.658 19.7315 108.658 22.4798C108.658 25.2286 106.48 27.4566 103.793 27.4566Z" fill="#6E4E46"/>
<path fill-rule="evenodd" clip-rule="evenodd" d="M93.7093 21.509C93.7093 17.5366 91.2053 14.8568 87.2121 14.8568C85.3059 14.8568 83.7433 15.9599 83.1914 16.9075C83.0721 16.1665 82.6791 15.3877 81.4601 15.3877H80.8389C80.5985 15.3877 80.4023 15.5846 80.4023 15.8248V28.1218C80.4023 28.1222 80.4023 28.1231 80.4023 28.1237V29.4447H80.4047C80.4173 29.6737 80.607 29.8577 80.8391 29.8577H82.7578C82.7872 29.8577 82.816 29.8542 82.8439 29.8488C82.8566 29.8463 82.8683 29.8413 82.8807 29.8378C82.895 29.8334 82.9098 29.83 82.9234 29.8245C82.9405 29.8174 82.956 29.8079 82.9718 29.799C82.9796 29.7942 82.9878 29.7909 82.9953 29.7859C83.0145 29.7736 83.032 29.7587 83.049 29.7435C83.0518 29.7407 83.0551 29.7388 83.0579 29.7362C83.0769 29.7178 83.0944 29.6974 83.1098 29.6762C83.1578 29.6103 83.1871 29.5304 83.1919 29.4447H83.1944V21.3997C83.1944 19.2663 84.9228 17.5366 87.0547 17.5366C89.1866 17.5366 90.9151 19.2663 90.9151 21.3997L90.9168 28.1242L90.9173 28.1218C90.9173 28.1278 90.9182 28.1339 90.9182 28.1403V29.4447H90.9208C90.9335 29.6737 91.123 29.8577 91.3549 29.8577H93.2738C93.3034 29.8577 93.332 29.8542 93.3598 29.8488C93.3712 29.8467 93.3816 29.8421 93.3928 29.839C93.4085 29.8344 93.4246 29.8305 93.4397 29.8245C93.4554 29.818 93.4697 29.8089 93.4845 29.8005C93.4936 29.7954 93.5031 29.7917 93.5118 29.7859C93.5294 29.7743 93.5457 29.7602 93.5617 29.7463C93.5657 29.7425 93.5703 29.7397 93.5741 29.7359C93.5923 29.7184 93.6085 29.6994 93.6233 29.6795C93.6244 29.678 93.6256 29.6768 93.6267 29.6753C93.674 29.61 93.7029 29.531 93.7079 29.4458C93.7079 29.4452 93.7081 29.4447 93.7081 29.4447H93.7107L93.7093 21.509Z" fill="#6E4E46"/>
<path fill-rule="evenodd" clip-rule="evenodd" d="M73.7266 28.0877C73.7936 28.8515 74.4045 29.8236 75.4629 29.8236H76.0821C76.3221 29.8236 76.5187 29.6269 76.5187 29.3866V15.7679H76.5162C76.5037 15.5385 76.3139 15.3547 76.0821 15.3547H74.1633C73.9313 15.3547 73.7417 15.5385 73.7288 15.7679H73.7266V16.8745C72.5508 15.4254 70.6973 14.8239 68.8386 14.8239C64.6138 14.8239 61.189 18.2515 61.189 22.4799C61.189 26.7084 64.6138 30.1361 68.8386 30.1361C70.6973 30.1361 72.723 29.4148 73.7264 28.086L73.7266 28.0877ZM68.8461 27.4566C66.1593 27.4566 63.9809 25.2287 63.9809 22.4799C63.9809 19.7315 66.1593 17.5035 68.8461 17.5035C71.5332 17.5035 73.7112 19.7315 73.7112 22.4799C73.7112 25.2287 71.5332 27.4566 68.8461 27.4566Z" fill="#6E4E46"/>
<path fill-rule="evenodd" clip-rule="evenodd" d="M49.842 26.1373C51.1229 27.0254 52.5211 27.4567 53.8647 27.4567C55.1448 27.4567 56.4681 26.7926 56.4681 25.6366C56.4681 24.0934 53.5846 23.8533 51.7729 23.2371C49.9608 22.6209 48.4001 21.347 48.4001 19.2841C48.4001 16.1275 51.2106 14.8237 53.8337 14.8237C55.4957 14.8237 57.2105 15.3722 58.3222 16.1579C58.7051 16.4482 58.4719 16.7816 58.4719 16.7816L57.4107 18.2985C57.2914 18.4693 57.0828 18.6169 56.7835 18.432C56.4841 18.2472 55.434 17.5033 53.8337 17.5033C52.2332 17.5033 51.2692 18.243 51.2692 19.1598C51.2692 20.2592 52.5221 20.605 53.9897 20.9797C56.5473 21.6696 59.3372 22.4989 59.3372 25.6366C59.3372 28.4179 56.7377 30.1367 53.8647 30.1367C51.6877 30.1367 49.834 29.5156 48.2794 28.3739C47.9556 28.0495 48.1817 27.7483 48.1817 27.7483L49.2378 26.2391C49.4527 25.9569 49.7235 26.0553 49.842 26.1373Z" fill="#6E4E46"/>
<path fill-rule="evenodd" clip-rule="evenodd" d="M42.4654 28.0877C42.5325 28.8515 43.1434 29.8236 44.2017 29.8236H44.821C45.061 29.8236 45.2577 29.6269 45.2577 29.3866V15.7679H45.255C45.2425 15.5385 45.0529 15.3547 44.821 15.3547H42.9022C42.6701 15.3547 42.4806 15.5385 42.4677 15.7679H42.4654V16.8745C41.2898 15.4254 39.4363 14.8239 37.5776 14.8239C33.3527 14.8239 29.9277 18.2515 29.9277 22.4799C29.9277 26.7084 33.3527 30.1361 37.5776 30.1361C39.4363 30.1361 41.4619 29.4148 42.4651 28.086L42.4654 28.0877ZM37.585 27.4566C34.898 27.4566 32.7197 25.2287 32.7197 22.4799C32.7197 19.7315 34.898 17.5035 37.585 17.5035C40.272 17.5035 42.45 19.7315 42.45 22.4799C42.45 25.2287 40.272 27.4566 37.585 27.4566Z" fill="#6E4E46"/>
<path fill-rule="evenodd" clip-rule="evenodd" d="M19.2027 23.0006C16.3596 23.0006 14.0547 25.3055 14.0547 28.1489C14.0547 30.9921 16.3596 33.2969 19.2027 33.2969C22.0459 33.2969 24.3508 30.9921 24.3508 28.1489C24.3508 25.3055 22.0459 23.0006 19.2027 23.0006ZM5.82772 23.0011C2.98457 23.0011 0.679688 25.3055 0.679688 28.1489C0.679688 30.9921 2.98457 33.2969 5.82772 33.2969C8.671 33.2969 10.976 30.9921 10.976 28.1489C10.976 25.3055 8.671 23.0011 5.82772 23.0011ZM17.6632 16.5654C17.6632 19.4088 15.3584 21.7139 12.5152 21.7139C9.67197 21.7139 7.36721 19.4088 7.36721 16.5654C7.36721 13.7226 9.67197 11.4175 12.5152 11.4175C15.3584 11.4175 17.6632 13.7226 17.6632 16.5654Z" fill="#6E4E46"/>
</g>
<defs>
<clipPath id="clip0_2184_22456">
<rect width="111.545" height="42.1586" fill="white" transform="translate(0.679688)"/>
</clipPath>
</defs>
</svg>
