<svg width="48" height="49" viewBox="0 0 48 49" fill="none" xmlns="http://www.w3.org/2000/svg">
<g clip-path="url(#clip0_2184_22657)">
<path d="M32.176 12.9826C31.487 12.0931 30.5494 11.4284 29.482 11.0726L26.726 10.1766C26.5144 10.1013 26.3313 9.9623 26.2019 9.77878C26.0724 9.59526 26.0029 9.37617 26.0029 9.15158C26.0029 8.92698 26.0724 8.70789 26.2019 8.52437C26.3313 8.34085 26.5144 8.20189 26.726 8.12657L29.482 7.23058C30.2976 6.94895 31.0382 6.48523 31.6478 5.87463C32.2573 5.26403 32.7198 4.52258 33 3.70658L33.022 3.63858L33.918 0.884575C33.9925 0.671603 34.1314 0.487055 34.3154 0.35648C34.4994 0.225905 34.7194 0.155762 34.945 0.155762C35.1706 0.155762 35.3907 0.225905 35.5747 0.35648C35.7587 0.487055 35.8975 0.671603 35.972 0.884575L36.866 3.63858C37.1455 4.47566 37.6161 5.23611 38.2407 5.85961C38.8652 6.48311 39.6265 6.95251 40.464 7.23058L43.218 8.12657L43.274 8.14057C43.4856 8.21589 43.6687 8.35485 43.7982 8.53837C43.9277 8.72189 43.9972 8.94098 43.9972 9.16558C43.9972 9.39017 43.9277 9.60926 43.7982 9.79278C43.6687 9.9763 43.4856 10.1153 43.274 10.1906L40.518 11.0866C39.6808 11.3649 38.92 11.8344 38.2958 12.4579C37.6716 13.0814 37.2013 13.8417 36.922 14.6786L36.026 17.4326L36 17.5006C35.9136 17.7018 35.7685 17.8723 35.5836 17.9897C35.3987 18.1071 35.1827 18.166 34.9638 18.1587C34.7449 18.1513 34.5333 18.0781 34.3567 17.9485C34.1801 17.819 34.0467 17.6392 33.974 17.4326L33.078 14.6786C32.8779 14.0656 32.5734 13.4919 32.178 12.9826M47.568 20.5846L46.036 20.0886C45.5712 19.9332 45.1488 19.6717 44.8024 19.325C44.456 18.9782 44.195 18.5556 44.04 18.0906L43.54 16.5626C43.4986 16.4444 43.4215 16.3421 43.3194 16.2697C43.2173 16.1973 43.0952 16.1584 42.97 16.1584C42.8448 16.1584 42.7227 16.1973 42.6206 16.2697C42.5185 16.3421 42.4414 16.4444 42.4 16.5626L41.904 18.0906C41.7519 18.5526 41.4952 18.9733 41.1538 19.3199C40.8125 19.6664 40.3957 19.9295 39.936 20.0886L38.406 20.5846C38.2879 20.626 38.1855 20.7031 38.1131 20.8052C38.0407 20.9073 38.0018 21.0294 38.0018 21.1546C38.0018 21.2798 38.0407 21.4018 38.1131 21.504C38.1855 21.6061 38.2879 21.6832 38.406 21.7246L39.936 22.2226C40.4023 22.3781 40.8258 22.6402 41.173 22.9881C41.5202 23.3359 41.7815 23.76 41.936 24.2266L42.432 25.7546C42.4734 25.8727 42.5505 25.9751 42.6526 26.0475C42.7547 26.1199 42.8768 26.1588 43.002 26.1588C43.1272 26.1588 43.2493 26.1199 43.3514 26.0475C43.4535 25.9751 43.5306 25.8727 43.572 25.7546L44.07 24.2266C44.2252 23.7613 44.4865 23.3386 44.8333 22.9918C45.18 22.645 45.6028 22.3837 46.068 22.2286L47.598 21.7326C47.7162 21.6912 47.8185 21.6141 47.8909 21.512C47.9633 21.4098 48.0022 21.2878 48.0022 21.1626C48.0022 21.0374 47.9633 20.9153 47.8909 20.8132C47.8185 20.7111 47.7162 20.634 47.598 20.5926L47.568 20.5846ZM24 4.15858C25.914 4.15858 27.766 4.42658 29.518 4.92858C29.286 5.07217 29.0384 5.18892 28.78 5.27658L26.1 6.15658C25.4852 6.37591 24.9493 6.77263 24.56 7.29658C24.1953 7.82224 23.9998 8.44677 23.9998 9.08658C23.9998 9.72638 24.1953 10.3509 24.56 10.8766C24.89 11.4466 25.396 11.8966 26 12.1566L28.8 13.0766C29.34 13.2586 29.832 13.5606 30.24 13.9566L30.6 14.1566C30.8534 14.4912 31.0467 14.8579 31.18 15.2566L32 18.1566C32.212 18.7766 32.61 19.3146 33.14 19.6966C33.662 20.0586 34.284 20.2546 34.92 20.2566C35.392 20.2626 35.86 20.1526 36.28 19.9366C36.0443 20.3365 35.92 20.7923 35.92 21.2566C35.916 21.7966 36.084 22.3206 36.4 22.7566C36.71 23.1986 37.152 23.5346 37.66 23.7166L39.24 24.2166C39.4027 24.2832 39.5494 24.3766 39.68 24.4966C39.807 24.6267 39.9027 24.784 39.96 24.9566L40.44 26.4766C40.626 27.0006 40.968 27.4546 41.42 27.7766C41.7316 27.9993 42.089 28.1499 42.466 28.2174C42.8431 28.2848 43.2305 28.2675 43.6 28.1666C41.74 37.2926 33.672 44.1586 24 44.1586C20.7645 44.1629 17.5766 43.3789 14.712 41.8746L6.13202 44.1086C5.84533 44.1832 5.54411 44.1817 5.2582 44.1041C4.97229 44.0265 4.71163 43.8755 4.50205 43.6661C4.29246 43.4567 4.14124 43.1962 4.06335 42.9104C3.98547 42.6246 3.98363 42.3233 4.05802 42.0366L6.29002 33.4586C4.78169 30.591 3.99564 27.3987 4.00002 24.1586C4.00002 13.1126 12.954 4.15858 24 4.15858Z" fill="#2FAA67"/>
</g>
<defs>
<clipPath id="clip0_2184_22657">
<rect width="48" height="48" fill="white" transform="translate(0 0.158691)"/>
</clipPath>
</defs>
</svg>
