<svg width="48" height="49" viewBox="0 0 48 49" fill="none" xmlns="http://www.w3.org/2000/svg">
<path d="M24 6.15869C15.16 6.15869 8 9.73869 8 14.1587C8 18.5787 15.16 22.1587 24 22.1587C32.84 22.1587 40 18.5787 40 14.1587C40 9.73869 32.84 6.15869 24 6.15869ZM8 18.1587V24.1587C8 28.5787 15.16 32.1587 24 32.1587C32.84 32.1587 40 28.5787 40 24.1587V18.1587C40 22.5787 32.84 26.1587 24 26.1587C15.16 26.1587 8 22.5787 8 18.1587ZM8 28.1587V34.1587C8 38.5787 15.16 42.1587 24 42.1587C32.84 42.1587 40 38.5787 40 34.1587V28.1587C40 32.5787 32.84 36.1587 24 36.1587C15.16 36.1587 8 32.5787 8 28.1587Z" fill="#FF6868"/>
</svg>
