<svg width="48" height="49" viewBox="0 0 48 49" fill="none" xmlns="http://www.w3.org/2000/svg">
<g clip-path="url(#clip0_2184_22693)">
<path d="M23.9994 2.8252C19.78 2.8252 15.6554 4.07637 12.1472 6.42051C8.63894 8.76465 5.9046 12.0965 4.28993 15.9946C2.67526 19.8928 2.25279 24.1822 3.07594 28.3205C3.89909 32.4587 5.93089 36.26 8.91441 39.2435C11.8979 42.227 15.6992 44.2588 19.8374 45.082C23.9757 45.9051 28.2651 45.4826 32.1633 43.868C36.0614 42.2533 39.3932 39.5189 41.7374 36.0107C44.0815 32.5024 45.3327 28.3779 45.3327 24.1585C45.3327 18.5006 43.0851 13.0744 39.0843 9.07358C35.0835 5.07281 29.6573 2.8252 23.9994 2.8252ZM34.1994 31.6119C32.866 35.6119 29.386 36.7319 26.3327 36.9452V39.6119C26.3327 40.0539 26.1571 40.4778 25.8445 40.7904C25.532 41.1029 25.1081 41.2785 24.666 41.2785C24.224 41.2785 23.8001 41.1029 23.4875 40.7904C23.175 40.4778 22.9994 40.0539 22.9994 39.6119V36.9452C19.9376 36.6581 17.0334 35.4546 14.666 33.4919C14.5058 33.3422 14.3767 33.1624 14.2859 32.9627C14.1952 32.7631 14.1447 32.5476 14.1373 32.3284C14.1298 32.1093 14.1656 31.8908 14.2426 31.6855C14.3196 31.4802 14.4363 31.2921 14.586 31.1319C14.7357 30.9716 14.9155 30.8425 15.1152 30.7518C15.3148 30.661 15.5303 30.6105 15.7495 30.6031C15.9686 30.5957 16.1871 30.6315 16.3924 30.7085C16.5977 30.7855 16.7858 30.9022 16.946 31.0519C18.6906 32.4577 20.7904 33.353 23.0127 33.6385V25.2652C21.2416 24.9935 19.5473 24.3531 18.0394 23.3852C16.7713 22.5899 15.8221 21.3754 15.3569 19.9527C14.8916 18.5301 14.9396 16.9894 15.4927 15.5985C16.2794 13.5852 18.7194 11.2919 23.0127 10.9185V8.49186C23.0127 8.04983 23.1883 7.62591 23.5008 7.31335C23.8134 7.00079 24.2373 6.8252 24.6794 6.8252C25.1214 6.8252 25.5453 7.00079 25.8579 7.31335C26.1704 7.62591 26.346 8.04983 26.346 8.49186V10.9719C28.7294 11.2359 30.9919 12.1594 32.8794 13.6385C33.141 13.9463 33.2819 14.3386 33.2759 14.7425C33.2699 15.1464 33.1175 15.5344 32.8469 15.8343C32.5763 16.1342 32.206 16.3257 31.8049 16.3731C31.4037 16.4204 30.999 16.3205 30.666 16.0919C29.393 15.1608 27.9085 14.5606 26.346 14.3452V22.5185C27.146 22.6919 27.9994 22.8785 28.8927 23.1585C29.926 23.4162 30.8956 23.8827 31.7418 24.5294C32.588 25.176 33.2927 25.9891 33.8127 26.9185C34.5552 28.3708 34.6942 30.0576 34.1994 31.6119Z" fill="#ED1FFF"/>
<path d="M27.894 26.3453C27.3607 26.1853 26.8407 26.052 26.334 25.9453V33.6253C29.0007 33.3586 30.4273 32.4253 31.0407 30.5586C31.2451 29.8566 31.1735 29.103 30.8407 28.452C30.5147 27.9222 30.0861 27.4629 29.5801 27.1011C29.074 26.7393 28.5008 26.4823 27.894 26.3453Z" fill="#ED1FFF"/>
<path d="M18.5861 16.7989C18.3078 17.4901 18.2896 18.2588 18.5348 18.9624C18.7799 19.666 19.2719 20.2569 19.9194 20.6256C20.8616 21.2304 21.9121 21.647 23.0127 21.8523V14.2256C20.2127 14.5589 18.9194 15.9456 18.5861 16.7989Z" fill="#ED1FFF"/>
</g>
<defs>
<clipPath id="clip0_2184_22693">
<rect width="48" height="48" fill="white" transform="translate(0 0.158691)"/>
</clipPath>
</defs>
</svg>
