<svg width="48" height="49" viewBox="0 0 48 49" fill="none" xmlns="http://www.w3.org/2000/svg">
<path fill-rule="evenodd" clip-rule="evenodd" d="M4.14 10.6747C4 11.4107 4 12.2947 4 14.0587L4 28.1587C4 35.7007 4 39.4727 6.344 41.8147C8.686 44.1587 12.458 44.1587 20 44.1587H28C35.542 44.1587 39.314 44.1587 41.656 41.8147C44 39.4727 44 35.7007 44 28.1587V23.7547C44 18.4907 44 15.8567 42.46 14.1467C42.3188 13.9888 42.1692 13.8386 42.012 13.6967C40.302 12.1587 37.668 12.1587 32.404 12.1587H31.656C29.35 12.1587 28.196 12.1587 27.12 11.8527C26.5295 11.6839 25.9604 11.4477 25.424 11.1487C24.448 10.6067 23.632 9.78869 22 8.15869L20.9 7.05869C20.352 6.51069 20.08 6.23869 19.792 5.99869C18.5533 4.97197 17.0339 4.34258 15.432 4.19269C15.06 4.15869 14.672 4.15869 13.9 4.15869C12.134 4.15869 11.252 4.15869 10.516 4.29869C8.93568 4.59714 7.482 5.36496 6.34461 6.50199C5.20723 7.63902 4.43894 9.09446 4.14 10.6747ZM24.5 20.1587C24.5 19.7609 24.658 19.3793 24.9393 19.098C25.2206 18.8167 25.6022 18.6587 26 18.6587H36C36.3978 18.6587 36.7794 18.8167 37.0607 19.098C37.342 19.3793 37.5 19.7609 37.5 20.1587C37.5 20.5565 37.342 20.938 37.0607 21.2194C36.7794 21.5007 36.3978 21.6587 36 21.6587H26C25.6022 21.6587 25.2206 21.5007 24.9393 21.2194C24.658 20.938 24.5 20.5565 24.5 20.1587Z" fill="#8A64DC"/>
</svg>
