<svg width="92" height="43" viewBox="0 0 92 43" fill="none" xmlns="http://www.w3.org/2000/svg">
<g clip-path="url(#clip0_2184_22459)">
<path d="M6.45229 27.1205H0.275062V30.2092H6.45229V27.1205Z" fill="#6E4E46"/>
<path d="M15.7154 27.1205H9.54203V30.2092H15.7154V27.1205Z" fill="#6E4E46"/>
<path d="M15.717 20.9433H0.271484V24.032H15.717V20.9433Z" fill="#6E4E46"/>
<path d="M9.54179 14.7666H0.275065V17.8551H9.54179V14.7666Z" fill="#6E4E46"/>
<path d="M15.7186 14.7666H12.63V17.8551H15.7186V14.7666Z" fill="#6E4E46"/>
<path d="M60.5568 14.749C55.5964 14.749 53.0345 18.2568 53.0345 22.584C53.0345 26.9113 55.5332 30.4195 60.5568 30.4195C65.5803 30.4195 68.079 26.9113 68.079 22.584C68.0792 18.2568 65.517 14.749 60.5568 14.749ZM64.3095 22.598C64.306 25.3806 63.3684 27.6344 60.5568 27.6344C57.7451 27.6344 56.8073 25.3808 56.8044 22.598V22.5842C56.8073 19.8017 57.7453 17.5481 60.557 17.5481C63.3684 17.5481 64.306 19.8017 64.3095 22.5842V22.5912C64.3095 22.5935 64.3095 22.5957 64.3095 22.598Z" fill="#6E4E46"/>
<path d="M38.3463 30.2089V8.5462C38.3463 8.5462 41.2035 8.14033 41.4251 8.11052C41.676 8.07662 42.0092 8.25529 42.0092 8.60855V16.639C42.6021 16.0753 43.2551 15.6209 43.9666 15.2747C44.6788 14.9288 45.5139 14.7556 46.4734 14.7556C47.304 14.7556 48.0399 14.8965 48.6825 15.1784C49.3255 15.4598 49.8619 15.8557 50.292 16.3644C50.722 16.874 51.0484 17.4819 51.2709 18.1888C51.4932 18.8957 51.6044 19.6743 51.6044 20.5246V30.2087H47.9413V20.5246C47.9413 19.5954 47.7262 18.876 47.2962 18.3665C46.866 17.8575 46.2208 17.6029 45.3604 17.6029C44.7277 17.6029 44.1348 17.7463 43.5814 18.0333C43.0275 18.3201 42.5035 18.7102 42.0092 19.2049V30.2089H38.3463Z" fill="#6E4E46"/>
<path d="M87.2492 30.4175C84.7285 30.4175 83.1486 28.9505 83.1486 26.2137V18.1026H80.3078C80.3078 18.1026 80.9116 16.0142 80.9593 15.8498C81.0073 15.6855 81.1322 15.509 81.3829 15.4741C81.6337 15.4392 83.1451 15.2284 83.1451 15.2284L83.8433 10.7871C83.8433 10.7871 85.8944 10.4979 86.2196 10.4494C86.5267 10.4034 86.8051 10.6246 86.8051 10.9591V15.2284H90.3981V18.1026H86.8051V26.1044C86.8051 27.1969 87.4703 27.6144 88.1079 27.6144C88.4976 27.6144 89.0313 27.4075 89.4295 27.2228C89.6756 27.109 90.0569 27.1934 90.1555 27.5369C90.2426 27.8412 90.7058 29.4567 90.7058 29.4567C90.3061 29.7147 89.043 30.4175 87.2492 30.4175Z" fill="#6E4E46"/>
<path d="M78.2957 18.151C77.5818 17.9192 76.2399 17.548 74.9634 17.548C73.6628 17.548 72.6395 17.9973 72.6395 19.0787C72.6395 20.4294 74.845 20.8226 76.3546 21.3732C77.3639 21.7413 80.0706 22.4589 80.0706 25.3699C80.0706 28.906 77.134 30.4178 74.0015 30.4178C70.8685 30.4178 69.0177 29.2526 69.0177 29.2526C69.0177 29.2526 69.5036 27.536 69.602 27.1972C69.6911 26.8923 70.0455 26.7853 70.2713 26.872C71.0776 27.1828 72.5335 27.6147 74.1792 27.6147C75.8453 27.6147 76.6514 27.106 76.6514 26.0215C76.6514 24.5781 74.4015 24.1369 72.9134 23.6675C71.8883 23.3445 69.1751 22.591 69.1751 19.3895C69.1751 16.2357 71.9445 14.756 74.9042 14.756C77.4095 14.756 78.6384 15.28 79.5564 15.7476C79.5564 15.7476 79.0449 17.5302 78.9689 17.7958C78.8793 18.1115 78.6203 18.2562 78.2957 18.151Z" fill="#6E4E46"/>
<path d="M36.917 15.2781C36.917 14.9369 36.6255 14.7417 36.3474 14.7735C35.1181 14.9143 34.2411 15.4928 33.6737 16.0314C32.5596 15.1585 31.0131 14.7417 29.2774 14.7417C25.7974 14.7417 23.0785 16.4213 23.0785 20.0836C23.0785 22.186 23.9735 23.6347 25.3947 24.4876C24.3392 24.9872 23.6362 26.0473 23.6362 27.0895C23.6362 28.833 25.0136 29.379 25.0136 29.379C25.0136 29.379 22.6053 30.5479 22.6053 32.8864C22.6053 35.8801 25.3602 37.0905 28.7266 37.0905C33.579 37.0905 36.9175 35.0863 36.9175 31.4062C36.9175 29.1413 35.1844 27.891 31.4075 27.7423C29.1661 27.6538 27.7143 27.5732 27.3546 27.4541C26.8794 27.2963 26.6458 26.9157 26.6458 26.4957C26.6458 26.0319 27.0267 25.5904 27.6272 25.2872C28.151 25.38 28.7038 25.4258 29.2778 25.4258C32.7607 25.4258 35.4768 23.751 35.4768 20.0838C35.4768 19.1945 35.3163 18.4226 35.0244 17.763C35.5361 17.49 36.1656 17.2979 36.9173 17.2979C36.9173 17.2979 36.917 15.5893 36.917 15.2781ZM27.3268 30.2281C27.3268 30.2281 29.1543 30.2973 30.9804 30.3819C33.0319 30.4768 33.6712 30.9189 33.6712 31.9812C33.6712 33.2791 31.8883 34.5415 29.3968 34.5415C27.0318 34.5415 25.8504 33.7186 25.8504 32.3487C25.8504 31.5626 26.2655 30.6833 27.3268 30.2281ZM29.284 22.8694C27.6354 22.8694 26.3492 21.9937 26.3492 20.0836C26.3492 18.1734 27.6366 17.2977 29.284 17.2977C30.9316 17.2977 32.2188 18.171 32.2188 20.0836C32.2188 21.9962 30.9332 22.8694 29.284 22.8694Z" fill="#6E4E46"/>
</g>
<defs>
<clipPath id="clip0_2184_22459">
<rect width="91.3435" height="42.1586" fill="white" transform="translate(0.224609)"/>
</clipPath>
</defs>
</svg>
