<svg width="181" height="43" viewBox="0 0 181 43" fill="none" xmlns="http://www.w3.org/2000/svg">
<path d="M66.8816 35.1317H1.97605C1.47273 35.1317 1.18337 34.6172 1.52024 34.2409C2.59991 33.0348 4.5796 31.6491 5.97835 31.6491C8.18952 31.6491 8.5054 33.2321 10.4007 33.2321C13.5595 33.2321 17.0342 22.4678 22.4041 22.4678C27.7741 22.4678 27.7741 28.7997 33.7758 28.7997C39.7776 28.7997 42.3046 7.9043 50.8334 7.9043C58.3148 7.9043 65.7963 23.5328 68.1745 33.5229C68.3727 34.3554 67.7323 35.1317 66.8816 35.1317Z" fill="#6E4E46"/>
<path d="M76.9121 29.7337H79.3303V24.2916C79.3303 21.9246 80.5615 20.6636 82.1663 20.6636C83.5733 20.6636 84.4526 21.7255 84.4526 23.4731V29.7337H86.8709V23.0749C86.8709 20.2654 85.2221 18.4514 82.6719 18.4514C81.243 18.4514 79.9899 19.0708 79.3303 20.1769V13.142H76.9121V29.7337Z" fill="#6E4E46"/>
<path d="M92.5592 14.6242C92.5592 13.7393 91.8557 13.0093 90.9544 13.0093C90.075 13.0093 89.3276 13.7393 89.3276 14.6242C89.3276 15.5312 90.075 16.2613 90.9544 16.2613C91.8557 16.2613 92.5592 15.5312 92.5592 14.6242ZM89.7453 29.7337H92.1635V18.6726H89.7453V29.7337Z" fill="#6E4E46"/>
<path d="M95.1932 29.7337H97.6114V24.2916C97.6114 21.9688 98.6886 20.6636 100.249 20.6636C101.569 20.6636 102.206 21.7918 102.206 23.5174V29.7337H104.624V24.2916C104.624 21.9688 105.68 20.6636 107.24 20.6636C108.559 20.6636 109.197 21.7918 109.197 23.5174V29.7337H111.615V23.1192C111.615 20.2875 110.142 18.4514 107.658 18.4514C106.207 18.4514 104.8 19.2256 104.141 20.6415C103.547 19.2699 102.36 18.4514 100.733 18.4514C99.3262 18.4514 98.227 19.1371 97.6114 20.1769V18.6726H95.1932V29.7337Z" fill="#6E4E46"/>
<path d="M113.697 24.2031C113.697 27.3666 115.983 29.9549 118.995 29.9549C120.578 29.9549 121.897 29.1364 122.513 28.2515V29.7337H124.931V18.6726H122.513V20.1548C121.897 19.2699 120.578 18.4514 118.995 18.4514C115.983 18.4514 113.697 21.0397 113.697 24.2031ZM122.71 24.2031C122.71 26.1941 121.391 27.7427 119.435 27.7427C117.478 27.7427 116.159 26.1941 116.159 24.2031C116.159 22.2121 117.478 20.6636 119.435 20.6636C121.391 20.6636 122.71 22.2121 122.71 24.2031Z" fill="#6E4E46"/>
<path d="M127.987 29.7337H130.405V13.142H127.987V29.7337Z" fill="#6E4E46"/>
<path d="M132.644 24.2031C132.644 27.3666 134.93 29.9549 137.942 29.9549C139.525 29.9549 140.844 29.1364 141.459 28.2515V29.7337H143.877V18.6726H141.459V20.1548C140.844 19.2699 139.525 18.4514 137.942 18.4514C134.93 18.4514 132.644 21.0397 132.644 24.2031ZM141.657 24.2031C141.657 26.1941 140.338 27.7427 138.381 27.7427C136.425 27.7427 135.106 26.1941 135.106 24.2031C135.106 22.2121 136.425 20.6636 138.381 20.6636C140.338 20.6636 141.657 22.2121 141.657 24.2031Z" fill="#6E4E46"/>
<path d="M150.451 34.3573L157.508 18.6726H154.826L151.462 26.5039L148.077 18.6726H145.417L150.143 29.1364L147.791 34.3573H150.451Z" fill="#6E4E46"/>
<path d="M157.923 24.2031C157.923 27.3666 160.21 29.9549 163.222 29.9549C164.804 29.9549 166.124 29.1364 166.739 28.2515V29.7337H169.157V18.6726H166.739V20.1548C166.124 19.2699 164.804 18.4514 163.222 18.4514C160.21 18.4514 157.923 21.0397 157.923 24.2031ZM166.937 24.2031C166.937 26.1941 165.618 27.7427 163.661 27.7427C161.705 27.7427 160.386 26.1941 160.386 24.2031C160.386 22.2121 161.705 20.6636 163.661 20.6636C165.618 20.6636 166.937 22.2121 166.937 24.2031Z" fill="#6E4E46"/>
<path d="M180.392 26.6808C180.392 24.9995 179.446 23.8492 177.468 23.3404L175.621 22.8537C174.698 22.6103 174.148 22.2343 174.148 21.5264C174.148 20.8184 174.83 20.3981 175.753 20.3981C176.61 20.3981 177.336 20.8406 177.556 21.7697H179.974C179.798 19.7787 178.149 18.4514 175.775 18.4514C173.313 18.4514 171.686 19.6902 171.686 21.5485C171.686 23.1634 172.609 24.4022 174.5 24.8889L176.303 25.3756C177.446 25.6632 177.929 26.0835 177.929 26.8357C177.929 27.5879 177.204 28.0082 176.149 28.0082C175.072 28.0082 174.082 27.5657 173.884 26.3711H171.378C171.51 28.5834 173.511 29.9549 176.083 29.9549C178.545 29.9549 180.392 28.8267 180.392 26.6808Z" fill="#6E4E46"/>
</svg>
