<svg width="48" height="49" viewBox="0 0 48 49" fill="none" xmlns="http://www.w3.org/2000/svg">
<path d="M22.5 34.6587V36.1587C22.5 36.5565 22.342 36.938 22.0607 37.2194C21.7794 37.5007 21.3978 37.6587 21 37.6587H18V39.1587C18 39.9543 17.6839 40.7174 17.1213 41.28C16.5587 41.8426 15.7956 42.1587 15 42.1587H9C8.20435 42.1587 7.44129 41.8426 6.87868 41.28C6.31607 40.7174 6 39.9543 6 39.1587V35.2797C6.00017 34.4841 6.31635 33.7212 6.879 33.1587L18.486 21.5502C17.7738 19.1331 17.8406 16.5531 18.6769 14.1761C19.5132 11.799 21.0766 9.74559 23.1454 8.30688C25.2141 6.86817 27.6833 6.1172 30.2028 6.16046C32.7222 6.20372 35.1642 7.039 37.1823 8.54789C39.2005 10.0568 40.6924 12.1627 41.4466 14.567C42.2009 16.9713 42.1791 19.5521 41.3843 21.9433C40.5896 24.3346 39.0623 26.415 37.0189 27.8895C34.9756 29.3641 32.5199 30.158 30 30.1587H27V33.1587C27 33.5565 26.842 33.938 26.5607 34.2194C26.2794 34.5007 25.8978 34.6587 25.5 34.6587H22.5ZM33 18.1587C33.7956 18.1587 34.5587 17.8426 35.1213 17.28C35.6839 16.7174 36 15.9543 36 15.1587C36 14.363 35.6839 13.6 35.1213 13.0374C34.5587 12.4748 33.7956 12.1587 33 12.1587C32.2044 12.1587 31.4413 12.4748 30.8787 13.0374C30.3161 13.6 30 14.363 30 15.1587C30 15.9543 30.3161 16.7174 30.8787 17.28C31.4413 17.8426 32.2044 18.1587 33 18.1587Z" fill="#689BFF"/>
</svg>
