<svg width="150" height="43" viewBox="0 0 150 43" fill="none" xmlns="http://www.w3.org/2000/svg">
<g clip-path="url(#clip0_2184_22461)">
<path d="M3.93675 17.2618C3.93675 14.9428 2.76216 13.0267 0.566406 11.4175H5.66993C6.56959 12.1028 7.29852 12.9869 7.79972 14.0008C8.30091 15.0147 8.56077 16.1308 8.55897 17.2618C8.56077 18.3928 8.30091 19.5089 7.79972 20.5227C7.29852 21.5366 6.56959 22.4208 5.66993 23.1061C7.327 23.7971 8.26971 25.4836 8.26971 27.8975V32.4968H3.64867V27.8975C3.64867 25.5984 2.55137 23.9892 0.567577 23.1072C2.76334 21.4968 3.93792 19.5819 3.93792 17.2629L3.93675 17.2618ZM13.9517 17.2618C13.9517 14.9428 12.7772 13.0267 10.5814 11.4175H15.6861C16.5855 12.1029 17.3143 12.9871 17.8152 14.001C18.3162 15.0148 18.5759 16.1309 18.574 17.2618C18.5759 18.3927 18.3162 19.5087 17.8152 20.5226C17.3143 21.5364 16.5855 22.4207 15.6861 23.1061C17.342 23.7971 18.2859 25.4836 18.2859 27.8975V32.4968H13.6637V27.8975C13.6637 25.5984 12.5652 23.9892 10.5814 23.1072C12.7772 21.4968 13.9517 19.5819 13.9517 17.2629V17.2618ZM23.9691 17.2618C23.9691 14.9428 22.7945 13.0267 20.5988 11.4175H25.7023C26.6019 12.1028 27.3309 12.9869 27.8321 14.0008C28.3333 15.0147 28.5931 16.1308 28.5913 17.2618C28.5931 18.3928 28.3333 19.5089 27.8321 20.5227C27.3309 21.5366 26.6019 22.4208 25.7023 23.1061C27.3593 23.7971 28.3021 25.4836 28.3021 27.8975V32.4968H23.6798V27.8975C23.6798 25.5984 22.5825 23.9892 20.5988 23.1072C22.7945 21.4968 23.9691 19.5819 23.9691 17.2629V17.2618ZM42.6688 28.6669H39.1649V15.2497H47.7746C51.9155 15.2497 53.9567 16.7839 53.9567 19.2938C53.9567 20.9991 52.9554 22.2827 51.0876 22.9351C53.0128 23.222 53.8794 24.2374 53.8794 26.0587V28.6646H50.3358V26.2121C50.3358 24.6778 49.5652 24.0653 47.5428 24.0653H42.6711V28.6669H42.6688ZM47.5802 17.2044H42.6688V22.1117H47.5416C49.3134 22.1117 50.4107 21.1338 50.4107 19.6007C50.4107 18.0863 49.3919 17.2044 47.5802 17.2044ZM60.0416 15.2497H56.5366V28.6669H60.0416V15.2497ZM70.7885 24.2948H66.5129V28.6646H63.0068V15.2497H70.8646C75.0055 15.2497 77.1826 16.9748 77.1826 19.7354C77.1826 22.5896 74.9681 24.2948 70.7885 24.2948ZM70.7112 17.2044H66.5129V22.3401H70.6726C72.4831 22.3401 73.6003 21.4207 73.6003 19.7541C73.6003 18.1249 72.4831 17.2044 70.7112 17.2044ZM87.0442 24.2948H82.7686V28.6646H79.2624V15.2497H87.1203C91.2612 15.2497 93.4382 16.9748 93.4382 19.7354C93.4382 22.5896 91.2225 24.2948 87.0442 24.2948ZM86.9669 17.2044H82.7686V22.3401H86.9282C88.7387 22.3401 89.8559 21.4207 89.8559 19.7541C89.8559 18.1249 88.7387 17.2044 86.9669 17.2044ZM99.023 15.2497V26.6712H107.767V28.6669H95.518V15.2497H99.023ZM113.466 15.2497H109.961V28.6669H113.466V15.2497ZM118.744 19.7342V28.6669H116.432V15.2497H119.054L128.607 24.1801V15.2497H130.918V28.6669H128.299L118.744 19.733V19.7342ZM142.36 16.8214C139.027 16.8214 136.851 18.9296 136.851 22.0719C136.851 25.1756 138.931 27.0928 142.166 27.0928H142.397C143.496 27.0928 144.728 26.8621 145.865 26.499V22.8765H140.203V20.9604H149.292V27.265C147.406 28.243 144.554 29.0101 142.244 29.0101H141.936C136.619 29.0101 133.191 26.2109 133.191 22.148C133.191 18.1238 136.716 14.9053 142.128 14.9053H142.436C144.69 14.9053 147.27 15.6139 149.178 16.7254L148.175 18.3533C146.462 17.4152 144.42 16.8214 142.59 16.8214H142.36Z" fill="#6E4E46"/>
</g>
<defs>
<clipPath id="clip0_2184_22461">
<rect width="149.312" height="42.1586" fill="white" transform="translate(0.566406)"/>
</clipPath>
</defs>
</svg>
