<svg width="112" height="43" viewBox="0 0 112 43" fill="none" xmlns="http://www.w3.org/2000/svg">
<g clip-path="url(#clip0_2184_22451)">
<path d="M23.9812 10.4374C23.959 10.282 23.8258 10.1932 23.7148 10.1932C23.6038 10.1932 21.4056 10.1488 21.4056 10.1488C21.4056 10.1488 19.5627 8.37249 19.3851 8.17266C19.2075 7.99503 18.8522 8.03944 18.719 8.08384C18.719 8.08384 18.3638 8.19486 17.7865 8.37249C17.6977 8.06164 17.5422 7.68418 17.3424 7.28452C16.6985 6.04113 15.7215 5.37503 14.567 5.37503C14.4782 5.37503 14.4115 5.37503 14.3227 5.39723C14.2783 5.35282 14.2561 5.30842 14.2117 5.28621C13.701 4.75333 13.0571 4.48689 12.28 4.50909C10.7924 4.5535 9.30477 5.64147 8.08358 7.55096C7.23985 8.90537 6.59595 10.5928 6.39612 11.9028C4.68646 12.4357 3.48748 12.8132 3.44307 12.8132C2.57714 13.0796 2.55494 13.1018 2.44392 13.9233C2.39951 14.545 0.134766 32.0635 0.134766 32.0635L19.1409 35.3496L27.3783 33.3069C27.3561 33.3069 24.0034 10.5928 23.9812 10.4374ZM16.8317 8.68333C16.3877 8.81655 15.8992 8.97198 15.3663 9.1496C15.3663 8.39469 15.2553 7.32893 14.9222 6.44079C16.0546 6.61842 16.6097 7.90621 16.8317 8.68333ZM14.3671 9.43825C13.368 9.7491 12.28 10.0821 11.1921 10.4152C11.5029 9.23842 12.0802 8.08384 12.7907 7.30672C13.0571 7.01808 13.4346 6.70723 13.8565 6.5296C14.3005 7.39554 14.3893 8.61672 14.3671 9.43825ZM12.3244 5.50825C12.6797 5.50825 12.9683 5.57486 13.2126 5.75249C12.8129 5.95232 12.4132 6.26316 12.058 6.66282C11.1032 7.68418 10.3705 9.26062 10.0819 10.7927C9.17155 11.0813 8.28341 11.3477 7.48409 11.592C8.01697 9.17181 10.0375 5.57486 12.3244 5.50825Z" fill="#6E4E46"/>
<path d="M23.7165 10.193C23.6055 10.193 21.4073 10.1486 21.4073 10.1486C21.4073 10.1486 19.5644 8.37237 19.3868 8.17254C19.3202 8.10593 19.2314 8.06152 19.1426 8.06152V35.3495L27.38 33.3068C27.38 33.3068 24.0273 10.5927 24.0051 10.4373C23.9607 10.2819 23.8275 10.193 23.7165 10.193Z" fill="#6E4E46"/>
<path d="M14.5671 14.4335L13.6124 18.0082C13.6124 18.0082 12.5466 17.5197 11.281 17.6085C9.41591 17.7196 9.41591 18.8963 9.41591 19.185C9.52693 20.7836 13.7234 21.1389 13.9676 24.8913C14.1452 27.8443 12.4134 29.8648 9.88218 30.0202C6.86252 30.1757 5.19727 28.3994 5.19727 28.3994L5.84116 25.6684C5.84116 25.6684 7.52862 26.934 8.86083 26.8452C9.72676 26.8008 10.0598 26.068 10.0154 25.5796C9.88218 23.4924 6.46286 23.6257 6.24083 20.1841C6.0632 17.2977 7.95049 14.3891 12.1247 14.1226C13.7456 14.0116 14.5671 14.4335 14.5671 14.4335Z" fill="white"/>
<path d="M38.5235 22.05C37.5687 21.5393 37.0803 21.0953 37.0803 20.4958C37.0803 19.7409 37.7686 19.2524 38.8343 19.2524C40.0777 19.2524 41.1879 19.7631 41.1879 19.7631L42.0538 17.0986C42.0538 17.0986 41.2545 16.477 38.9009 16.477C35.6148 16.477 33.3279 18.3642 33.3279 21.0064C33.3279 22.5163 34.3936 23.6486 35.8147 24.4702C36.9692 25.1141 37.3689 25.5803 37.3689 26.2686C37.3689 26.9792 36.7916 27.5564 35.7258 27.5564C34.1494 27.5564 32.6396 26.7349 32.6396 26.7349L31.707 29.3993C31.707 29.3993 33.0836 30.3319 35.415 30.3319C38.7899 30.3319 41.2323 28.6666 41.2323 25.6692C41.2101 24.0483 39.9889 22.8937 38.5235 22.05Z" fill="#6E4E46"/>
<path d="M51.9788 16.4327C50.3135 16.4327 49.0036 17.2321 48.0044 18.431L47.96 18.4088L49.4032 10.8597H45.6508L41.9873 30.0878H45.7396L46.983 23.5156C47.4715 21.0288 48.7593 19.4968 49.9583 19.4968C50.802 19.4968 51.1351 20.0741 51.1351 20.8956C51.1351 21.4063 51.0907 22.0502 50.9797 22.5609L49.5586 30.0878H53.311L54.7764 22.3166C54.9319 21.4951 55.0429 20.5182 55.0429 19.8521C55.0651 17.7205 53.9549 16.4327 51.9788 16.4327Z" fill="#6E4E46"/>
<path d="M63.5687 16.4324C59.0392 16.4324 56.0417 20.5178 56.0417 25.0695C56.0417 27.9782 57.8402 30.3317 61.2151 30.3317C65.6558 30.3317 68.6532 26.3573 68.6532 21.6946C68.6754 19.008 67.099 16.4324 63.5687 16.4324ZM61.7258 27.4675C60.438 27.4675 59.9051 26.3795 59.9051 25.0029C59.9051 22.8492 61.0153 19.3411 63.058 19.3411C64.3902 19.3411 64.8342 20.4956 64.8342 21.6058C64.8342 23.915 63.7019 27.4675 61.7258 27.4675Z" fill="#6E4E46"/>
<path d="M78.29 16.4324C75.7588 16.4324 74.3156 18.675 74.3156 18.675H74.2712L74.4932 16.6544H71.1627C71.0073 18.0089 70.6965 20.096 70.4078 21.6502L67.7878 35.4163H71.5402L72.5837 29.8433H72.6726C72.6726 29.8433 73.4497 30.3317 74.8707 30.3317C79.2892 30.3317 82.1756 25.8022 82.1756 21.2283C82.1756 18.6972 81.0432 16.4324 78.29 16.4324ZM74.6931 27.5119C73.7161 27.5119 73.1388 26.9568 73.1388 26.9568L73.7605 23.4487C74.2046 21.0951 75.4258 19.5409 76.7358 19.5409C77.8904 19.5409 78.2456 20.6066 78.2456 21.6058C78.2456 24.0482 76.8024 27.5119 74.6931 27.5119Z" fill="#6E4E46"/>
<path d="M87.5482 11.0372C86.3492 11.0372 85.3945 11.992 85.3945 13.2132C85.3945 14.3233 86.105 15.1005 87.1707 15.1005H87.2151C88.3919 15.1005 89.3911 14.3011 89.4133 12.9245C89.4133 11.8366 88.6806 11.0372 87.5482 11.0372Z" fill="#6E4E46"/>
<path d="M82.2862 30.0654H86.0386L88.592 16.7434H84.8174L82.2862 30.0654Z" fill="#6E4E46"/>
<path d="M98.1614 16.7214H95.5414L95.6746 16.0997C95.8967 14.8119 96.6516 13.6795 97.9172 13.6795C98.5833 13.6795 99.1162 13.8794 99.1162 13.8794L99.8489 10.9263C99.8489 10.9263 99.205 10.5933 97.8062 10.5933C96.474 10.5933 95.1418 10.9707 94.1204 11.8367C92.8326 12.9246 92.2331 14.5011 91.9445 16.0997L91.8334 16.7214H90.0794L89.5243 19.5634H91.2784L89.2801 30.0878H93.0324L95.0307 19.5634H97.6285L98.1614 16.7214Z" fill="#6E4E46"/>
<path d="M107.22 16.7434C107.22 16.7434 104.867 22.6717 103.823 25.9134H103.779C103.712 24.8698 102.846 16.7434 102.846 16.7434H98.8939L101.159 28.9775C101.203 29.2439 101.181 29.4215 101.07 29.5991C100.626 30.4429 99.8931 31.2644 99.0272 31.8639C98.3166 32.3746 97.5173 32.7076 96.8956 32.9297L97.9392 36.1269C98.6941 35.9715 100.293 35.3276 101.625 34.0842C103.335 32.4856 104.933 29.9988 106.554 26.6239L111.15 16.7434H107.22Z" fill="#6E4E46"/>
</g>
<defs>
<clipPath id="clip0_2184_22451">
<rect width="111.545" height="42.1586" fill="white" transform="translate(0.134766)"/>
</clipPath>
</defs>
</svg>
