<svg width="117" height="43" viewBox="0 0 117 43" fill="none" xmlns="http://www.w3.org/2000/svg">
<g clip-path="url(#clip0_2184_22466)">
<path d="M25.2664 6.14746H5.99029C3.31807 6.14746 1.15234 8.31318 1.15234 10.9854V30.2615C1.15234 32.9337 3.31807 35.0994 5.99029 35.0994H25.2664C27.9386 35.0994 30.1043 32.9337 30.1043 30.2615V10.9854C30.1043 8.31318 27.9386 6.14746 25.2664 6.14746ZM24.8414 28.3083C24.8414 29.1524 24.1573 29.8365 23.3132 29.8365H7.94352C7.09935 29.8365 6.41528 29.1524 6.41528 28.3083V12.9386C6.41528 12.0945 7.09935 11.4104 7.94352 11.4104H23.3132C24.1573 11.4104 24.8414 12.0945 24.8414 12.9386V28.3083ZM12.5573 24.5532C12.0712 24.5532 11.6811 24.1602 11.6811 23.6741V17.5379C11.6811 17.0518 12.0712 16.6559 12.5573 16.6559H18.7023C19.1855 16.6559 19.5785 17.0488 19.5785 17.5379V23.6712C19.5785 24.1573 19.1855 24.5503 18.7023 24.5503H12.5573V24.5532ZM37.7804 24.134H40.9417C41.0989 25.9242 42.3127 27.3215 44.7608 27.3215C46.9469 27.3215 48.2917 26.2415 48.2917 24.6085C48.2917 23.0803 47.238 22.3962 45.3401 21.9479L42.8891 21.421C40.2285 20.8418 38.2258 19.1302 38.2258 16.3357C38.2258 13.253 40.965 11.1455 44.5221 11.1455C48.2888 11.1455 50.7136 13.122 50.9232 16.0446H47.8668C47.5029 14.6764 46.3676 13.8614 44.525 13.8614C42.5747 13.8614 41.2328 14.9151 41.2328 16.26C41.2328 17.6048 42.3913 18.4199 44.394 18.8682L46.8188 19.395C49.4794 19.9743 51.2958 21.5811 51.2958 24.3989C51.2958 27.9823 48.609 30.116 44.7637 30.116C40.441 30.113 38.0453 27.7698 37.7804 24.134ZM62.6047 35.0994V29.8569L62.8114 27.5573H62.6047C61.8799 29.2107 60.3575 30.116 58.2907 30.116C54.9577 30.116 52.4776 27.403 52.4776 23.2433C52.4776 19.0836 54.9577 16.3706 58.2907 16.3706C60.3313 16.3706 61.778 17.3254 62.6047 18.8245H62.8114V16.6268H65.5506V35.0994H62.6047ZM62.7066 23.2404C62.7066 20.5798 61.0794 19.0283 59.0883 19.0283C57.0973 19.0283 55.4701 20.5798 55.4701 23.2404C55.4701 25.9009 57.0973 27.4525 59.0883 27.4525C61.0794 27.4525 62.7066 25.9039 62.7066 23.2404ZM67.7367 24.6114V16.6268H70.6825V24.3523C70.6825 26.4453 71.6897 27.4525 73.3693 27.4525C75.4361 27.4525 76.7809 25.9795 76.7809 23.6799V16.6268H79.7268V29.854H76.9876V27.1148H76.7809C76.1347 28.873 74.7141 30.113 72.5193 30.113C69.3639 30.113 67.7367 28.0987 67.7367 24.6114ZM81.5199 26.16C81.5199 23.6799 83.2519 22.2332 86.3258 22.0527L89.9674 21.8198V20.7865C89.9674 19.5464 89.0621 18.7983 87.4611 18.7983C85.9881 18.7983 85.109 19.5464 84.8762 20.606H81.9303C82.2418 17.9192 84.4628 16.3677 87.4581 16.3677C90.8435 16.3677 92.9103 17.8144 92.9103 20.606V29.854H90.1711V27.4001H89.9644C89.3444 29.0273 88.052 30.113 85.5719 30.113C83.1995 30.113 81.5199 28.512 81.5199 26.16ZM89.9703 24.5328V23.8342L86.9982 24.0409C85.3972 24.1428 84.6724 24.7395 84.6724 25.9271C84.6724 26.9343 85.4991 27.6591 86.6606 27.6591C88.7564 27.6591 89.9703 26.3172 89.9703 24.5328ZM95.108 29.8569V16.6268H97.8472V19.1593H98.0539C98.441 17.4273 99.7597 16.6268 101.722 16.6268H103.066V19.2873H101.387C99.4744 19.2873 98.0539 20.5274 98.0539 22.8794V29.854H95.108V29.8569ZM116.544 23.7847H106.493C106.647 26.2124 108.353 27.5835 110.239 27.5835C111.84 27.5835 112.847 26.9372 113.418 25.8515H116.337C115.537 28.5382 113.185 30.113 110.213 30.113C106.312 30.113 103.573 27.1934 103.573 23.2404C103.573 19.2873 106.388 16.3677 110.239 16.3677C114.113 16.3677 116.646 19.0283 116.646 22.3351C116.649 22.9842 116.596 23.319 116.544 23.7847ZM113.729 21.7442C113.627 19.9103 112.102 18.6702 110.242 18.6702C108.484 18.6702 107.014 19.7822 106.65 21.7442H113.729Z" fill="#6E4E46"/>
</g>
<defs>
<clipPath id="clip0_2184_22466">
<rect width="115.936" height="42.1586" fill="white" transform="translate(0.931641)"/>
</clipPath>
</defs>
</svg>
